<?xml version="1.0" encoding="utf-8" standalone="no"?>
<!DOCTYPE svg PUBLIC "-//W3C//DTD SVG 1.1//EN"
  "http://www.w3.org/Graphics/SVG/1.1/DTD/svg11.dtd">
<svg xmlns:xlink="http://www.w3.org/1999/xlink" width="432pt" height="288pt" viewBox="0 0 432 288" xmlns="http://www.w3.org/2000/svg" version="1.1">
 <metadata>
  <rdf:RDF xmlns:dc="http://purl.org/dc/elements/1.1/" xmlns:cc="http://creativecommons.org/ns#" xmlns:rdf="http://www.w3.org/1999/02/22-rdf-syntax-ns#">
   <cc:Work>
    <dc:type rdf:resource="http://purl.org/dc/dcmitype/StillImage"/>
    <dc:date>2025-07-23T14:32:25.928407</dc:date>
    <dc:format>image/svg+xml</dc:format>
    <dc:creator>
     <cc:Agent>
      <dc:title>Matplotlib v3.8.0, https://matplotlib.org/</dc:title>
     </cc:Agent>
    </dc:creator>
   </cc:Work>
  </rdf:RDF>
 </metadata>
 <defs>
  <style type="text/css">*{stroke-linejoin: round; stroke-linecap: butt}</style>
 </defs>
 <g id="figure_1">
  <g id="patch_1">
   <path d="M 0 288 
L 432 288 
L 432 0 
L 0 0 
z
" style="fill: #ffffff"/>
  </g>
  <g id="axes_1">
   <g id="patch_2">
    <path d="M 54 256.32 
L 388.8 256.32 
L 388.8 34.56 
L 54 34.56 
z
" style="fill: #ffffff"/>
   </g>
   <g id="PathCollection_1">
    <defs>
     <path id="md44326bce7" d="M 0 1.118034 
C 0.296506 1.118034 0.580908 1.000231 0.790569 0.790569 
C 1.000231 0.580908 1.118034 0.296506 1.118034 0 
C 1.118034 -0.296506 1.000231 -0.580908 0.790569 -0.790569 
C 0.580908 -1.000231 0.296506 -1.118034 0 -1.118034 
C -0.296506 -1.118034 -0.580908 -1.000231 -0.790569 -0.790569 
C -1.000231 -0.580908 -1.118034 -0.296506 -1.118034 0 
C -1.118034 0.296506 -1.000231 0.580908 -0.790569 0.790569 
C -0.580908 1.000231 -0.296506 1.118034 0 1.118034 
z
" style="stroke: #00bfbf"/>
    </defs>
    <g clip-path="url(#p969892d1c8)">
     <use xlink:href="#md44326bce7" x="69.218182" y="254.67" style="fill: #00bfbf; stroke: #00bfbf"/>
     <use xlink:href="#md44326bce7" x="79.363637" y="242.7075" style="fill: #00bfbf; stroke: #00bfbf"/>
     <use xlink:href="#md44326bce7" x="89.509092" y="236.52" style="fill: #00bfbf; stroke: #00bfbf"/>
     <use xlink:href="#md44326bce7" x="99.654544" y="229.095" style="fill: #00bfbf; stroke: #00bfbf"/>
     <use xlink:href="#md44326bce7" x="109.800002" y="217.9575" style="fill: #00bfbf; stroke: #00bfbf"/>
     <use xlink:href="#md44326bce7" x="119.945456" y="220.02" style="fill: #00bfbf; stroke: #00bfbf"/>
     <use xlink:href="#md44326bce7" x="130.090905" y="210.5325" style="fill: #00bfbf; stroke: #00bfbf"/>
     <use xlink:href="#md44326bce7" x="140.236369" y="194.8575" style="fill: #00bfbf; stroke: #00bfbf"/>
     <use xlink:href="#md44326bce7" x="150.381823" y="161.8575" style="fill: #00bfbf; stroke: #00bfbf"/>
     <use xlink:href="#md44326bce7" x="160.527267" y="146.595" style="fill: #00bfbf; stroke: #00bfbf"/>
     <use xlink:href="#md44326bce7" x="170.67273" y="121.845" style="fill: #00bfbf; stroke: #00bfbf"/>
     <use xlink:href="#md44326bce7" x="180.818184" y="96.6825" style="fill: #00bfbf; stroke: #00bfbf"/>
     <use xlink:href="#md44326bce7" x="190.963629" y="86.37" style="fill: #00bfbf; stroke: #00bfbf"/>
     <use xlink:href="#md44326bce7" x="201.109092" y="68.22" style="fill: #00bfbf; stroke: #00bfbf"/>
     <use xlink:href="#md44326bce7" x="211.254556" y="52.1325" style="fill: #00bfbf; stroke: #00bfbf"/>
     <use xlink:href="#md44326bce7" x="221.4" y="46.3575" style="fill: #00bfbf; stroke: #00bfbf"/>
     <use xlink:href="#md44326bce7" x="231.545444" y="45.12" style="fill: #00bfbf; stroke: #00bfbf"/>
     <use xlink:href="#md44326bce7" x="241.690898" y="45.12" style="fill: #00bfbf; stroke: #00bfbf"/>
     <use xlink:href="#md44326bce7" x="251.836352" y="45.12" style="fill: #00bfbf; stroke: #00bfbf"/>
     <use xlink:href="#md44326bce7" x="261.981806" y="45.12" style="fill: #00bfbf; stroke: #00bfbf"/>
     <use xlink:href="#md44326bce7" x="272.12726" y="45.12" style="fill: #00bfbf; stroke: #00bfbf"/>
     <use xlink:href="#md44326bce7" x="282.272714" y="45.12" style="fill: #00bfbf; stroke: #00bfbf"/>
     <use xlink:href="#md44326bce7" x="292.418168" y="45.12" style="fill: #00bfbf; stroke: #00bfbf"/>
     <use xlink:href="#md44326bce7" x="302.563622" y="45.12" style="fill: #00bfbf; stroke: #00bfbf"/>
     <use xlink:href="#md44326bce7" x="312.709075" y="45.12" style="fill: #00bfbf; stroke: #00bfbf"/>
     <use xlink:href="#md44326bce7" x="322.854529" y="45.12" style="fill: #00bfbf; stroke: #00bfbf"/>
     <use xlink:href="#md44326bce7" x="333.000003" y="45.12" style="fill: #00bfbf; stroke: #00bfbf"/>
     <use xlink:href="#md44326bce7" x="343.145456" y="45.12" style="fill: #00bfbf; stroke: #00bfbf"/>
     <use xlink:href="#md44326bce7" x="353.290891" y="45.12" style="fill: #00bfbf; stroke: #00bfbf"/>
     <use xlink:href="#md44326bce7" x="363.436364" y="45.12" style="fill: #00bfbf; stroke: #00bfbf"/>
     <use xlink:href="#md44326bce7" x="373.581818" y="45.12" style="fill: #00bfbf; stroke: #00bfbf"/>
    </g>
   </g>
   <g id="PathCollection_2">
    <defs>
     <path id="me476dfacb8" d="M 0 1.118034 
C 0.296506 1.118034 0.580908 1.000231 0.790569 0.790569 
C 1.000231 0.580908 1.118034 0.296506 1.118034 0 
C 1.118034 -0.296506 1.000231 -0.580908 0.790569 -0.790569 
C 0.580908 -1.000231 0.296506 -1.118034 0 -1.118034 
C -0.296506 -1.118034 -0.580908 -1.000231 -0.790569 -0.790569 
C -1.000231 -0.580908 -1.118034 -0.296506 -1.118034 0 
C -1.118034 0.296506 -1.000231 0.580908 -0.790569 0.790569 
C -0.580908 1.000231 -0.296506 1.118034 0 1.118034 
z
" style="stroke: #bf00bf"/>
    </defs>
    <g clip-path="url(#p969892d1c8)">
     <use xlink:href="#me476dfacb8" x="69.218182" y="256.32" style="fill: #bf00bf; stroke: #bf00bf"/>
     <use xlink:href="#me476dfacb8" x="79.363637" y="256.32" style="fill: #bf00bf; stroke: #bf00bf"/>
     <use xlink:href="#me476dfacb8" x="89.509092" y="255.9075" style="fill: #bf00bf; stroke: #bf00bf"/>
     <use xlink:href="#me476dfacb8" x="99.654544" y="251.37" style="fill: #bf00bf; stroke: #bf00bf"/>
     <use xlink:href="#me476dfacb8" x="109.800002" y="243.945" style="fill: #bf00bf; stroke: #bf00bf"/>
     <use xlink:href="#me476dfacb8" x="119.945456" y="234.87" style="fill: #bf00bf; stroke: #bf00bf"/>
     <use xlink:href="#me476dfacb8" x="130.090905" y="231.57" style="fill: #bf00bf; stroke: #bf00bf"/>
     <use xlink:href="#me476dfacb8" x="140.236369" y="227.8575" style="fill: #bf00bf; stroke: #bf00bf"/>
     <use xlink:href="#me476dfacb8" x="150.381823" y="214.245" style="fill: #bf00bf; stroke: #bf00bf"/>
     <use xlink:href="#me476dfacb8" x="160.527267" y="201.87" style="fill: #bf00bf; stroke: #bf00bf"/>
     <use xlink:href="#me476dfacb8" x="170.67273" y="171.7575" style="fill: #bf00bf; stroke: #bf00bf"/>
     <use xlink:href="#me476dfacb8" x="180.818184" y="149.895" style="fill: #bf00bf; stroke: #bf00bf"/>
     <use xlink:href="#me476dfacb8" x="190.963629" y="132.9825" style="fill: #bf00bf; stroke: #bf00bf"/>
     <use xlink:href="#me476dfacb8" x="201.109092" y="96.6825" style="fill: #bf00bf; stroke: #bf00bf"/>
     <use xlink:href="#me476dfacb8" x="211.254556" y="67.8075" style="fill: #bf00bf; stroke: #bf00bf"/>
     <use xlink:href="#me476dfacb8" x="221.4" y="51.3075" style="fill: #bf00bf; stroke: #bf00bf"/>
     <use xlink:href="#me476dfacb8" x="231.545444" y="45.12" style="fill: #bf00bf; stroke: #bf00bf"/>
     <use xlink:href="#me476dfacb8" x="241.690898" y="45.12" style="fill: #bf00bf; stroke: #bf00bf"/>
     <use xlink:href="#me476dfacb8" x="251.836352" y="45.12" style="fill: #bf00bf; stroke: #bf00bf"/>
     <use xlink:href="#me476dfacb8" x="261.981806" y="45.12" style="fill: #bf00bf; stroke: #bf00bf"/>
     <use xlink:href="#me476dfacb8" x="272.12726" y="45.12" style="fill: #bf00bf; stroke: #bf00bf"/>
     <use xlink:href="#me476dfacb8" x="282.272714" y="45.12" style="fill: #bf00bf; stroke: #bf00bf"/>
     <use xlink:href="#me476dfacb8" x="292.418168" y="45.12" style="fill: #bf00bf; stroke: #bf00bf"/>
     <use xlink:href="#me476dfacb8" x="302.563622" y="45.12" style="fill: #bf00bf; stroke: #bf00bf"/>
     <use xlink:href="#me476dfacb8" x="312.709075" y="45.12" style="fill: #bf00bf; stroke: #bf00bf"/>
     <use xlink:href="#me476dfacb8" x="322.854529" y="45.12" style="fill: #bf00bf; stroke: #bf00bf"/>
     <use xlink:href="#me476dfacb8" x="333.000003" y="45.12" style="fill: #bf00bf; stroke: #bf00bf"/>
     <use xlink:href="#me476dfacb8" x="343.145456" y="45.12" style="fill: #bf00bf; stroke: #bf00bf"/>
     <use xlink:href="#me476dfacb8" x="353.290891" y="45.12" style="fill: #bf00bf; stroke: #bf00bf"/>
     <use xlink:href="#me476dfacb8" x="363.436364" y="45.12" style="fill: #bf00bf; stroke: #bf00bf"/>
     <use xlink:href="#me476dfacb8" x="373.581818" y="45.12" style="fill: #bf00bf; stroke: #bf00bf"/>
    </g>
   </g>
   <g id="PathCollection_3">
    <defs>
     <path id="m94c87733bd" d="M 0 1.118034 
C 0.296506 1.118034 0.580908 1.000231 0.790569 0.790569 
C 1.000231 0.580908 1.118034 0.296506 1.118034 0 
C 1.118034 -0.296506 1.000231 -0.580908 0.790569 -0.790569 
C 0.580908 -1.000231 0.296506 -1.118034 0 -1.118034 
C -0.296506 -1.118034 -0.580908 -1.000231 -0.790569 -0.790569 
C -1.000231 -0.580908 -1.118034 -0.296506 -1.118034 0 
C -1.118034 0.296506 -1.000231 0.580908 -0.790569 0.790569 
C -0.580908 1.000231 -0.296506 1.118034 0 1.118034 
z
" style="stroke: #bfbf00"/>
    </defs>
    <g clip-path="url(#p969892d1c8)">
     <use xlink:href="#m94c87733bd" x="69.218182" y="256.32" style="fill: #bfbf00; stroke: #bfbf00"/>
     <use xlink:href="#m94c87733bd" x="79.363637" y="256.32" style="fill: #bfbf00; stroke: #bfbf00"/>
     <use xlink:href="#m94c87733bd" x="89.509092" y="256.32" style="fill: #bfbf00; stroke: #bfbf00"/>
     <use xlink:href="#m94c87733bd" x="99.654544" y="256.32" style="fill: #bfbf00; stroke: #bfbf00"/>
     <use xlink:href="#m94c87733bd" x="109.800002" y="256.32" style="fill: #bfbf00; stroke: #bfbf00"/>
     <use xlink:href="#m94c87733bd" x="119.945456" y="252.195" style="fill: #bfbf00; stroke: #bfbf00"/>
     <use xlink:href="#m94c87733bd" x="130.090905" y="240.2325" style="fill: #bfbf00; stroke: #bfbf00"/>
     <use xlink:href="#m94c87733bd" x="140.236369" y="233.22" style="fill: #bfbf00; stroke: #bfbf00"/>
     <use xlink:href="#m94c87733bd" x="150.381823" y="208.47" style="fill: #bfbf00; stroke: #bfbf00"/>
     <use xlink:href="#m94c87733bd" x="160.527267" y="194.445" style="fill: #bfbf00; stroke: #bfbf00"/>
     <use xlink:href="#m94c87733bd" x="170.67273" y="150.72" style="fill: #bfbf00; stroke: #bfbf00"/>
     <use xlink:href="#m94c87733bd" x="180.818184" y="111.945" style="fill: #bfbf00; stroke: #bfbf00"/>
     <use xlink:href="#m94c87733bd" x="190.963629" y="74.4075" style="fill: #bfbf00; stroke: #bfbf00"/>
     <use xlink:href="#m94c87733bd" x="201.109092" y="54.195" style="fill: #bfbf00; stroke: #bfbf00"/>
     <use xlink:href="#m94c87733bd" x="211.254556" y="47.595" style="fill: #bfbf00; stroke: #bfbf00"/>
     <use xlink:href="#m94c87733bd" x="221.4" y="45.12" style="fill: #bfbf00; stroke: #bfbf00"/>
     <use xlink:href="#m94c87733bd" x="231.545444" y="45.12" style="fill: #bfbf00; stroke: #bfbf00"/>
     <use xlink:href="#m94c87733bd" x="241.690898" y="45.12" style="fill: #bfbf00; stroke: #bfbf00"/>
     <use xlink:href="#m94c87733bd" x="251.836352" y="45.12" style="fill: #bfbf00; stroke: #bfbf00"/>
     <use xlink:href="#m94c87733bd" x="261.981806" y="45.12" style="fill: #bfbf00; stroke: #bfbf00"/>
     <use xlink:href="#m94c87733bd" x="272.12726" y="45.12" style="fill: #bfbf00; stroke: #bfbf00"/>
     <use xlink:href="#m94c87733bd" x="282.272714" y="45.12" style="fill: #bfbf00; stroke: #bfbf00"/>
     <use xlink:href="#m94c87733bd" x="292.418168" y="45.12" style="fill: #bfbf00; stroke: #bfbf00"/>
     <use xlink:href="#m94c87733bd" x="302.563622" y="45.12" style="fill: #bfbf00; stroke: #bfbf00"/>
     <use xlink:href="#m94c87733bd" x="312.709075" y="45.12" style="fill: #bfbf00; stroke: #bfbf00"/>
     <use xlink:href="#m94c87733bd" x="322.854529" y="45.12" style="fill: #bfbf00; stroke: #bfbf00"/>
     <use xlink:href="#m94c87733bd" x="333.000003" y="45.12" style="fill: #bfbf00; stroke: #bfbf00"/>
     <use xlink:href="#m94c87733bd" x="343.145456" y="45.12" style="fill: #bfbf00; stroke: #bfbf00"/>
     <use xlink:href="#m94c87733bd" x="353.290891" y="45.12" style="fill: #bfbf00; stroke: #bfbf00"/>
     <use xlink:href="#m94c87733bd" x="363.436364" y="45.12" style="fill: #bfbf00; stroke: #bfbf00"/>
     <use xlink:href="#m94c87733bd" x="373.581818" y="45.12" style="fill: #bfbf00; stroke: #bfbf00"/>
    </g>
   </g>
   <g id="matplotlib.axis_1">
    <g id="xtick_1">
     <g id="line2d_1">
      <defs>
       <path id="mc5c7fe844e" d="M 0 0 
L 0 3.5 
" style="stroke: #000000; stroke-width: 0.8"/>
      </defs>
      <g>
       <use xlink:href="#mc5c7fe844e" x="69.218182" y="256.32" style="stroke: #000000; stroke-width: 0.8"/>
      </g>
     </g>
     <g id="text_1">
      <!-- 0 -->
      <g transform="translate(66.036932 270.918437) scale(0.1 -0.1)">
       <defs>
        <path id="DejaVuSans-30" d="M 2034 4250 
Q 1547 4250 1301 3770 
Q 1056 3291 1056 2328 
Q 1056 1369 1301 889 
Q 1547 409 2034 409 
Q 2525 409 2770 889 
Q 3016 1369 3016 2328 
Q 3016 3291 2770 3770 
Q 2525 4250 2034 4250 
z
M 2034 4750 
Q 2819 4750 3233 4129 
Q 3647 3509 3647 2328 
Q 3647 1150 3233 529 
Q 2819 -91 2034 -91 
Q 1250 -91 836 529 
Q 422 1150 422 2328 
Q 422 3509 836 4129 
Q 1250 4750 2034 4750 
z
" transform="scale(0.015625)"/>
       </defs>
       <use xlink:href="#DejaVuSans-30"/>
      </g>
     </g>
    </g>
    <g id="xtick_2">
     <g id="line2d_2">
      <g>
       <use xlink:href="#mc5c7fe844e" x="119.945451" y="256.32" style="stroke: #000000; stroke-width: 0.8"/>
      </g>
     </g>
     <g id="text_2">
      <!-- 5 -->
      <g transform="translate(116.764201 270.918437) scale(0.1 -0.1)">
       <defs>
        <path id="DejaVuSans-35" d="M 691 4666 
L 3169 4666 
L 3169 4134 
L 1269 4134 
L 1269 2991 
Q 1406 3038 1543 3061 
Q 1681 3084 1819 3084 
Q 2600 3084 3056 2656 
Q 3513 2228 3513 1497 
Q 3513 744 3044 326 
Q 2575 -91 1722 -91 
Q 1428 -91 1123 -41 
Q 819 9 494 109 
L 494 744 
Q 775 591 1075 516 
Q 1375 441 1709 441 
Q 2250 441 2565 725 
Q 2881 1009 2881 1497 
Q 2881 1984 2565 2268 
Q 2250 2553 1709 2553 
Q 1456 2553 1204 2497 
Q 953 2441 691 2322 
L 691 4666 
z
" transform="scale(0.015625)"/>
       </defs>
       <use xlink:href="#DejaVuSans-35"/>
      </g>
     </g>
    </g>
    <g id="xtick_3">
     <g id="line2d_3">
      <g>
       <use xlink:href="#mc5c7fe844e" x="170.672721" y="256.32" style="stroke: #000000; stroke-width: 0.8"/>
      </g>
     </g>
     <g id="text_3">
      <!-- 10 -->
      <g transform="translate(164.310221 270.918437) scale(0.1 -0.1)">
       <defs>
        <path id="DejaVuSans-31" d="M 794 531 
L 1825 531 
L 1825 4091 
L 703 3866 
L 703 4441 
L 1819 4666 
L 2450 4666 
L 2450 531 
L 3481 531 
L 3481 0 
L 794 0 
L 794 531 
z
" transform="scale(0.015625)"/>
       </defs>
       <use xlink:href="#DejaVuSans-31"/>
       <use xlink:href="#DejaVuSans-30" x="63.623047"/>
      </g>
     </g>
    </g>
    <g id="xtick_4">
     <g id="line2d_4">
      <g>
       <use xlink:href="#mc5c7fe844e" x="221.39999" y="256.32" style="stroke: #000000; stroke-width: 0.8"/>
      </g>
     </g>
     <g id="text_4">
      <!-- 15 -->
      <g transform="translate(215.03749 270.918437) scale(0.1 -0.1)">
       <use xlink:href="#DejaVuSans-31"/>
       <use xlink:href="#DejaVuSans-35" x="63.623047"/>
      </g>
     </g>
    </g>
    <g id="xtick_5">
     <g id="line2d_5">
      <g>
       <use xlink:href="#mc5c7fe844e" x="272.12726" y="256.32" style="stroke: #000000; stroke-width: 0.8"/>
      </g>
     </g>
     <g id="text_5">
      <!-- 20 -->
      <g transform="translate(265.76476 270.918437) scale(0.1 -0.1)">
       <defs>
        <path id="DejaVuSans-32" d="M 1228 531 
L 3431 531 
L 3431 0 
L 469 0 
L 469 531 
Q 828 903 1448 1529 
Q 2069 2156 2228 2338 
Q 2531 2678 2651 2914 
Q 2772 3150 2772 3378 
Q 2772 3750 2511 3984 
Q 2250 4219 1831 4219 
Q 1534 4219 1204 4116 
Q 875 4013 500 3803 
L 500 4441 
Q 881 4594 1212 4672 
Q 1544 4750 1819 4750 
Q 2544 4750 2975 4387 
Q 3406 4025 3406 3419 
Q 3406 3131 3298 2873 
Q 3191 2616 2906 2266 
Q 2828 2175 2409 1742 
Q 1991 1309 1228 531 
z
" transform="scale(0.015625)"/>
       </defs>
       <use xlink:href="#DejaVuSans-32"/>
       <use xlink:href="#DejaVuSans-30" x="63.623047"/>
      </g>
     </g>
    </g>
    <g id="xtick_6">
     <g id="line2d_6">
      <g>
       <use xlink:href="#mc5c7fe844e" x="322.854529" y="256.32" style="stroke: #000000; stroke-width: 0.8"/>
      </g>
     </g>
     <g id="text_6">
      <!-- 25 -->
      <g transform="translate(316.492029 270.918437) scale(0.1 -0.1)">
       <use xlink:href="#DejaVuSans-32"/>
       <use xlink:href="#DejaVuSans-35" x="63.623047"/>
      </g>
     </g>
    </g>
    <g id="xtick_7">
     <g id="line2d_7">
      <g>
       <use xlink:href="#mc5c7fe844e" x="373.581799" y="256.32" style="stroke: #000000; stroke-width: 0.8"/>
      </g>
     </g>
     <g id="text_7">
      <!-- 30 -->
      <g transform="translate(367.219299 270.918437) scale(0.1 -0.1)">
       <defs>
        <path id="DejaVuSans-33" d="M 2597 2516 
Q 3050 2419 3304 2112 
Q 3559 1806 3559 1356 
Q 3559 666 3084 287 
Q 2609 -91 1734 -91 
Q 1441 -91 1130 -33 
Q 819 25 488 141 
L 488 750 
Q 750 597 1062 519 
Q 1375 441 1716 441 
Q 2309 441 2620 675 
Q 2931 909 2931 1356 
Q 2931 1769 2642 2001 
Q 2353 2234 1838 2234 
L 1294 2234 
L 1294 2753 
L 1863 2753 
Q 2328 2753 2575 2939 
Q 2822 3125 2822 3475 
Q 2822 3834 2567 4026 
Q 2313 4219 1838 4219 
Q 1578 4219 1281 4162 
Q 984 4106 628 3988 
L 628 4550 
Q 988 4650 1302 4700 
Q 1616 4750 1894 4750 
Q 2613 4750 3031 4423 
Q 3450 4097 3450 3541 
Q 3450 3153 3228 2886 
Q 3006 2619 2597 2516 
z
" transform="scale(0.015625)"/>
       </defs>
       <use xlink:href="#DejaVuSans-33"/>
       <use xlink:href="#DejaVuSans-30" x="63.623047"/>
      </g>
     </g>
    </g>
    <g id="text_8">
     <!-- Contrast of test stimulus (%) -->
     <g transform="translate(149.450781 284.596563) scale(0.1 -0.1)">
      <defs>
       <path id="DejaVuSans-43" d="M 4122 4306 
L 4122 3641 
Q 3803 3938 3442 4084 
Q 3081 4231 2675 4231 
Q 1875 4231 1450 3742 
Q 1025 3253 1025 2328 
Q 1025 1406 1450 917 
Q 1875 428 2675 428 
Q 3081 428 3442 575 
Q 3803 722 4122 1019 
L 4122 359 
Q 3791 134 3420 21 
Q 3050 -91 2638 -91 
Q 1578 -91 968 557 
Q 359 1206 359 2328 
Q 359 3453 968 4101 
Q 1578 4750 2638 4750 
Q 3056 4750 3426 4639 
Q 3797 4528 4122 4306 
z
" transform="scale(0.015625)"/>
       <path id="DejaVuSans-6f" d="M 1959 3097 
Q 1497 3097 1228 2736 
Q 959 2375 959 1747 
Q 959 1119 1226 758 
Q 1494 397 1959 397 
Q 2419 397 2687 759 
Q 2956 1122 2956 1747 
Q 2956 2369 2687 2733 
Q 2419 3097 1959 3097 
z
M 1959 3584 
Q 2709 3584 3137 3096 
Q 3566 2609 3566 1747 
Q 3566 888 3137 398 
Q 2709 -91 1959 -91 
Q 1206 -91 779 398 
Q 353 888 353 1747 
Q 353 2609 779 3096 
Q 1206 3584 1959 3584 
z
" transform="scale(0.015625)"/>
       <path id="DejaVuSans-6e" d="M 3513 2113 
L 3513 0 
L 2938 0 
L 2938 2094 
Q 2938 2591 2744 2837 
Q 2550 3084 2163 3084 
Q 1697 3084 1428 2787 
Q 1159 2491 1159 1978 
L 1159 0 
L 581 0 
L 581 3500 
L 1159 3500 
L 1159 2956 
Q 1366 3272 1645 3428 
Q 1925 3584 2291 3584 
Q 2894 3584 3203 3211 
Q 3513 2838 3513 2113 
z
" transform="scale(0.015625)"/>
       <path id="DejaVuSans-74" d="M 1172 4494 
L 1172 3500 
L 2356 3500 
L 2356 3053 
L 1172 3053 
L 1172 1153 
Q 1172 725 1289 603 
Q 1406 481 1766 481 
L 2356 481 
L 2356 0 
L 1766 0 
Q 1100 0 847 248 
Q 594 497 594 1153 
L 594 3053 
L 172 3053 
L 172 3500 
L 594 3500 
L 594 4494 
L 1172 4494 
z
" transform="scale(0.015625)"/>
       <path id="DejaVuSans-72" d="M 2631 2963 
Q 2534 3019 2420 3045 
Q 2306 3072 2169 3072 
Q 1681 3072 1420 2755 
Q 1159 2438 1159 1844 
L 1159 0 
L 581 0 
L 581 3500 
L 1159 3500 
L 1159 2956 
Q 1341 3275 1631 3429 
Q 1922 3584 2338 3584 
Q 2397 3584 2469 3576 
Q 2541 3569 2628 3553 
L 2631 2963 
z
" transform="scale(0.015625)"/>
       <path id="DejaVuSans-61" d="M 2194 1759 
Q 1497 1759 1228 1600 
Q 959 1441 959 1056 
Q 959 750 1161 570 
Q 1363 391 1709 391 
Q 2188 391 2477 730 
Q 2766 1069 2766 1631 
L 2766 1759 
L 2194 1759 
z
M 3341 1997 
L 3341 0 
L 2766 0 
L 2766 531 
Q 2569 213 2275 61 
Q 1981 -91 1556 -91 
Q 1019 -91 701 211 
Q 384 513 384 1019 
Q 384 1609 779 1909 
Q 1175 2209 1959 2209 
L 2766 2209 
L 2766 2266 
Q 2766 2663 2505 2880 
Q 2244 3097 1772 3097 
Q 1472 3097 1187 3025 
Q 903 2953 641 2809 
L 641 3341 
Q 956 3463 1253 3523 
Q 1550 3584 1831 3584 
Q 2591 3584 2966 3190 
Q 3341 2797 3341 1997 
z
" transform="scale(0.015625)"/>
       <path id="DejaVuSans-73" d="M 2834 3397 
L 2834 2853 
Q 2591 2978 2328 3040 
Q 2066 3103 1784 3103 
Q 1356 3103 1142 2972 
Q 928 2841 928 2578 
Q 928 2378 1081 2264 
Q 1234 2150 1697 2047 
L 1894 2003 
Q 2506 1872 2764 1633 
Q 3022 1394 3022 966 
Q 3022 478 2636 193 
Q 2250 -91 1575 -91 
Q 1294 -91 989 -36 
Q 684 19 347 128 
L 347 722 
Q 666 556 975 473 
Q 1284 391 1588 391 
Q 1994 391 2212 530 
Q 2431 669 2431 922 
Q 2431 1156 2273 1281 
Q 2116 1406 1581 1522 
L 1381 1569 
Q 847 1681 609 1914 
Q 372 2147 372 2553 
Q 372 3047 722 3315 
Q 1072 3584 1716 3584 
Q 2034 3584 2315 3537 
Q 2597 3491 2834 3397 
z
" transform="scale(0.015625)"/>
       <path id="DejaVuSans-20" transform="scale(0.015625)"/>
       <path id="DejaVuSans-66" d="M 2375 4863 
L 2375 4384 
L 1825 4384 
Q 1516 4384 1395 4259 
Q 1275 4134 1275 3809 
L 1275 3500 
L 2222 3500 
L 2222 3053 
L 1275 3053 
L 1275 0 
L 697 0 
L 697 3053 
L 147 3053 
L 147 3500 
L 697 3500 
L 697 3744 
Q 697 4328 969 4595 
Q 1241 4863 1831 4863 
L 2375 4863 
z
" transform="scale(0.015625)"/>
       <path id="DejaVuSans-65" d="M 3597 1894 
L 3597 1613 
L 953 1613 
Q 991 1019 1311 708 
Q 1631 397 2203 397 
Q 2534 397 2845 478 
Q 3156 559 3463 722 
L 3463 178 
Q 3153 47 2828 -22 
Q 2503 -91 2169 -91 
Q 1331 -91 842 396 
Q 353 884 353 1716 
Q 353 2575 817 3079 
Q 1281 3584 2069 3584 
Q 2775 3584 3186 3129 
Q 3597 2675 3597 1894 
z
M 3022 2063 
Q 3016 2534 2758 2815 
Q 2500 3097 2075 3097 
Q 1594 3097 1305 2825 
Q 1016 2553 972 2059 
L 3022 2063 
z
" transform="scale(0.015625)"/>
       <path id="DejaVuSans-69" d="M 603 3500 
L 1178 3500 
L 1178 0 
L 603 0 
L 603 3500 
z
M 603 4863 
L 1178 4863 
L 1178 4134 
L 603 4134 
L 603 4863 
z
" transform="scale(0.015625)"/>
       <path id="DejaVuSans-6d" d="M 3328 2828 
Q 3544 3216 3844 3400 
Q 4144 3584 4550 3584 
Q 5097 3584 5394 3201 
Q 5691 2819 5691 2113 
L 5691 0 
L 5113 0 
L 5113 2094 
Q 5113 2597 4934 2840 
Q 4756 3084 4391 3084 
Q 3944 3084 3684 2787 
Q 3425 2491 3425 1978 
L 3425 0 
L 2847 0 
L 2847 2094 
Q 2847 2600 2669 2842 
Q 2491 3084 2119 3084 
Q 1678 3084 1418 2786 
Q 1159 2488 1159 1978 
L 1159 0 
L 581 0 
L 581 3500 
L 1159 3500 
L 1159 2956 
Q 1356 3278 1631 3431 
Q 1906 3584 2284 3584 
Q 2666 3584 2933 3390 
Q 3200 3197 3328 2828 
z
" transform="scale(0.015625)"/>
       <path id="DejaVuSans-75" d="M 544 1381 
L 544 3500 
L 1119 3500 
L 1119 1403 
Q 1119 906 1312 657 
Q 1506 409 1894 409 
Q 2359 409 2629 706 
Q 2900 1003 2900 1516 
L 2900 3500 
L 3475 3500 
L 3475 0 
L 2900 0 
L 2900 538 
Q 2691 219 2414 64 
Q 2138 -91 1772 -91 
Q 1169 -91 856 284 
Q 544 659 544 1381 
z
M 1991 3584 
L 1991 3584 
z
" transform="scale(0.015625)"/>
       <path id="DejaVuSans-6c" d="M 603 4863 
L 1178 4863 
L 1178 0 
L 603 0 
L 603 4863 
z
" transform="scale(0.015625)"/>
       <path id="DejaVuSans-28" d="M 1984 4856 
Q 1566 4138 1362 3434 
Q 1159 2731 1159 2009 
Q 1159 1288 1364 580 
Q 1569 -128 1984 -844 
L 1484 -844 
Q 1016 -109 783 600 
Q 550 1309 550 2009 
Q 550 2706 781 3412 
Q 1013 4119 1484 4856 
L 1984 4856 
z
" transform="scale(0.015625)"/>
       <path id="DejaVuSans-25" d="M 4653 2053 
Q 4381 2053 4226 1822 
Q 4072 1591 4072 1178 
Q 4072 772 4226 539 
Q 4381 306 4653 306 
Q 4919 306 5073 539 
Q 5228 772 5228 1178 
Q 5228 1588 5073 1820 
Q 4919 2053 4653 2053 
z
M 4653 2450 
Q 5147 2450 5437 2106 
Q 5728 1763 5728 1178 
Q 5728 594 5436 251 
Q 5144 -91 4653 -91 
Q 4153 -91 3862 251 
Q 3572 594 3572 1178 
Q 3572 1766 3864 2108 
Q 4156 2450 4653 2450 
z
M 1428 4353 
Q 1159 4353 1004 4120 
Q 850 3888 850 3481 
Q 850 3069 1003 2837 
Q 1156 2606 1428 2606 
Q 1700 2606 1854 2837 
Q 2009 3069 2009 3481 
Q 2009 3884 1853 4118 
Q 1697 4353 1428 4353 
z
M 4250 4750 
L 4750 4750 
L 1831 -91 
L 1331 -91 
L 4250 4750 
z
M 1428 4750 
Q 1922 4750 2215 4408 
Q 2509 4066 2509 3481 
Q 2509 2891 2217 2550 
Q 1925 2209 1428 2209 
Q 931 2209 642 2551 
Q 353 2894 353 3481 
Q 353 4063 643 4406 
Q 934 4750 1428 4750 
z
" transform="scale(0.015625)"/>
       <path id="DejaVuSans-29" d="M 513 4856 
L 1013 4856 
Q 1481 4119 1714 3412 
Q 1947 2706 1947 2009 
Q 1947 1309 1714 600 
Q 1481 -109 1013 -844 
L 513 -844 
Q 928 -128 1133 580 
Q 1338 1288 1338 2009 
Q 1338 2731 1133 3434 
Q 928 4138 513 4856 
z
" transform="scale(0.015625)"/>
      </defs>
      <use xlink:href="#DejaVuSans-43"/>
      <use xlink:href="#DejaVuSans-6f" x="69.824219"/>
      <use xlink:href="#DejaVuSans-6e" x="131.005859"/>
      <use xlink:href="#DejaVuSans-74" x="194.384766"/>
      <use xlink:href="#DejaVuSans-72" x="233.59375"/>
      <use xlink:href="#DejaVuSans-61" x="274.707031"/>
      <use xlink:href="#DejaVuSans-73" x="335.986328"/>
      <use xlink:href="#DejaVuSans-74" x="388.085938"/>
      <use xlink:href="#DejaVuSans-20" x="427.294922"/>
      <use xlink:href="#DejaVuSans-6f" x="459.082031"/>
      <use xlink:href="#DejaVuSans-66" x="520.263672"/>
      <use xlink:href="#DejaVuSans-20" x="555.46875"/>
      <use xlink:href="#DejaVuSans-74" x="587.255859"/>
      <use xlink:href="#DejaVuSans-65" x="626.464844"/>
      <use xlink:href="#DejaVuSans-73" x="687.988281"/>
      <use xlink:href="#DejaVuSans-74" x="740.087891"/>
      <use xlink:href="#DejaVuSans-20" x="779.296875"/>
      <use xlink:href="#DejaVuSans-73" x="811.083984"/>
      <use xlink:href="#DejaVuSans-74" x="863.183594"/>
      <use xlink:href="#DejaVuSans-69" x="902.392578"/>
      <use xlink:href="#DejaVuSans-6d" x="930.175781"/>
      <use xlink:href="#DejaVuSans-75" x="1027.587891"/>
      <use xlink:href="#DejaVuSans-6c" x="1090.966797"/>
      <use xlink:href="#DejaVuSans-75" x="1118.75"/>
      <use xlink:href="#DejaVuSans-73" x="1182.128906"/>
      <use xlink:href="#DejaVuSans-20" x="1234.228516"/>
      <use xlink:href="#DejaVuSans-28" x="1266.015625"/>
      <use xlink:href="#DejaVuSans-25" x="1305.029297"/>
      <use xlink:href="#DejaVuSans-29" x="1400.048828"/>
     </g>
    </g>
   </g>
   <g id="matplotlib.axis_2">
    <g id="ytick_1">
     <g id="line2d_8">
      <defs>
       <path id="m95ad603a28" d="M 0 0 
L -3.5 0 
" style="stroke: #000000; stroke-width: 0.8"/>
      </defs>
      <g>
       <use xlink:href="#m95ad603a28" x="54" y="256.32" style="stroke: #000000; stroke-width: 0.8"/>
      </g>
     </g>
     <g id="text_9">
      <!-- 0 -->
      <g transform="translate(40.6375 260.119219) scale(0.1 -0.1)">
       <use xlink:href="#DejaVuSans-30"/>
      </g>
     </g>
    </g>
    <g id="ytick_2">
     <g id="line2d_9">
      <g>
       <use xlink:href="#m95ad603a28" x="54" y="214.08" style="stroke: #000000; stroke-width: 0.8"/>
      </g>
     </g>
     <g id="text_10">
      <!-- 20 -->
      <g transform="translate(34.275 217.879219) scale(0.1 -0.1)">
       <use xlink:href="#DejaVuSans-32"/>
       <use xlink:href="#DejaVuSans-30" x="63.623047"/>
      </g>
     </g>
    </g>
    <g id="ytick_3">
     <g id="line2d_10">
      <g>
       <use xlink:href="#m95ad603a28" x="54" y="171.84" style="stroke: #000000; stroke-width: 0.8"/>
      </g>
     </g>
     <g id="text_11">
      <!-- 40 -->
      <g transform="translate(34.275 175.639219) scale(0.1 -0.1)">
       <defs>
        <path id="DejaVuSans-34" d="M 2419 4116 
L 825 1625 
L 2419 1625 
L 2419 4116 
z
M 2253 4666 
L 3047 4666 
L 3047 1625 
L 3713 1625 
L 3713 1100 
L 3047 1100 
L 3047 0 
L 2419 0 
L 2419 1100 
L 313 1100 
L 313 1709 
L 2253 4666 
z
" transform="scale(0.015625)"/>
       </defs>
       <use xlink:href="#DejaVuSans-34"/>
       <use xlink:href="#DejaVuSans-30" x="63.623047"/>
      </g>
     </g>
    </g>
    <g id="ytick_4">
     <g id="line2d_11">
      <g>
       <use xlink:href="#m95ad603a28" x="54" y="129.6" style="stroke: #000000; stroke-width: 0.8"/>
      </g>
     </g>
     <g id="text_12">
      <!-- 60 -->
      <g transform="translate(34.275 133.399219) scale(0.1 -0.1)">
       <defs>
        <path id="DejaVuSans-36" d="M 2113 2584 
Q 1688 2584 1439 2293 
Q 1191 2003 1191 1497 
Q 1191 994 1439 701 
Q 1688 409 2113 409 
Q 2538 409 2786 701 
Q 3034 994 3034 1497 
Q 3034 2003 2786 2293 
Q 2538 2584 2113 2584 
z
M 3366 4563 
L 3366 3988 
Q 3128 4100 2886 4159 
Q 2644 4219 2406 4219 
Q 1781 4219 1451 3797 
Q 1122 3375 1075 2522 
Q 1259 2794 1537 2939 
Q 1816 3084 2150 3084 
Q 2853 3084 3261 2657 
Q 3669 2231 3669 1497 
Q 3669 778 3244 343 
Q 2819 -91 2113 -91 
Q 1303 -91 875 529 
Q 447 1150 447 2328 
Q 447 3434 972 4092 
Q 1497 4750 2381 4750 
Q 2619 4750 2861 4703 
Q 3103 4656 3366 4563 
z
" transform="scale(0.015625)"/>
       </defs>
       <use xlink:href="#DejaVuSans-36"/>
       <use xlink:href="#DejaVuSans-30" x="63.623047"/>
      </g>
     </g>
    </g>
    <g id="ytick_5">
     <g id="line2d_12">
      <g>
       <use xlink:href="#m95ad603a28" x="54" y="87.36" style="stroke: #000000; stroke-width: 0.8"/>
      </g>
     </g>
     <g id="text_13">
      <!-- 80 -->
      <g transform="translate(34.275 91.159219) scale(0.1 -0.1)">
       <defs>
        <path id="DejaVuSans-38" d="M 2034 2216 
Q 1584 2216 1326 1975 
Q 1069 1734 1069 1313 
Q 1069 891 1326 650 
Q 1584 409 2034 409 
Q 2484 409 2743 651 
Q 3003 894 3003 1313 
Q 3003 1734 2745 1975 
Q 2488 2216 2034 2216 
z
M 1403 2484 
Q 997 2584 770 2862 
Q 544 3141 544 3541 
Q 544 4100 942 4425 
Q 1341 4750 2034 4750 
Q 2731 4750 3128 4425 
Q 3525 4100 3525 3541 
Q 3525 3141 3298 2862 
Q 3072 2584 2669 2484 
Q 3125 2378 3379 2068 
Q 3634 1759 3634 1313 
Q 3634 634 3220 271 
Q 2806 -91 2034 -91 
Q 1263 -91 848 271 
Q 434 634 434 1313 
Q 434 1759 690 2068 
Q 947 2378 1403 2484 
z
M 1172 3481 
Q 1172 3119 1398 2916 
Q 1625 2713 2034 2713 
Q 2441 2713 2670 2916 
Q 2900 3119 2900 3481 
Q 2900 3844 2670 4047 
Q 2441 4250 2034 4250 
Q 1625 4250 1398 4047 
Q 1172 3844 1172 3481 
z
" transform="scale(0.015625)"/>
       </defs>
       <use xlink:href="#DejaVuSans-38"/>
       <use xlink:href="#DejaVuSans-30" x="63.623047"/>
      </g>
     </g>
    </g>
    <g id="ytick_6">
     <g id="line2d_13">
      <g>
       <use xlink:href="#m95ad603a28" x="54" y="45.12" style="stroke: #000000; stroke-width: 0.8"/>
      </g>
     </g>
     <g id="text_14">
      <!-- 100 -->
      <g transform="translate(27.9125 48.919219) scale(0.1 -0.1)">
       <use xlink:href="#DejaVuSans-31"/>
       <use xlink:href="#DejaVuSans-30" x="63.623047"/>
       <use xlink:href="#DejaVuSans-30" x="127.246094"/>
      </g>
     </g>
    </g>
    <g id="text_15">
     <!-- Percieved contrast of test &gt; standard (%) -->
     <g transform="translate(21.832812 249.315781) rotate(-90) scale(0.1 -0.1)">
      <defs>
       <path id="DejaVuSans-50" d="M 1259 4147 
L 1259 2394 
L 2053 2394 
Q 2494 2394 2734 2622 
Q 2975 2850 2975 3272 
Q 2975 3691 2734 3919 
Q 2494 4147 2053 4147 
L 1259 4147 
z
M 628 4666 
L 2053 4666 
Q 2838 4666 3239 4311 
Q 3641 3956 3641 3272 
Q 3641 2581 3239 2228 
Q 2838 1875 2053 1875 
L 1259 1875 
L 1259 0 
L 628 0 
L 628 4666 
z
" transform="scale(0.015625)"/>
       <path id="DejaVuSans-63" d="M 3122 3366 
L 3122 2828 
Q 2878 2963 2633 3030 
Q 2388 3097 2138 3097 
Q 1578 3097 1268 2742 
Q 959 2388 959 1747 
Q 959 1106 1268 751 
Q 1578 397 2138 397 
Q 2388 397 2633 464 
Q 2878 531 3122 666 
L 3122 134 
Q 2881 22 2623 -34 
Q 2366 -91 2075 -91 
Q 1284 -91 818 406 
Q 353 903 353 1747 
Q 353 2603 823 3093 
Q 1294 3584 2113 3584 
Q 2378 3584 2631 3529 
Q 2884 3475 3122 3366 
z
" transform="scale(0.015625)"/>
       <path id="DejaVuSans-76" d="M 191 3500 
L 800 3500 
L 1894 563 
L 2988 3500 
L 3597 3500 
L 2284 0 
L 1503 0 
L 191 3500 
z
" transform="scale(0.015625)"/>
       <path id="DejaVuSans-64" d="M 2906 2969 
L 2906 4863 
L 3481 4863 
L 3481 0 
L 2906 0 
L 2906 525 
Q 2725 213 2448 61 
Q 2172 -91 1784 -91 
Q 1150 -91 751 415 
Q 353 922 353 1747 
Q 353 2572 751 3078 
Q 1150 3584 1784 3584 
Q 2172 3584 2448 3432 
Q 2725 3281 2906 2969 
z
M 947 1747 
Q 947 1113 1208 752 
Q 1469 391 1925 391 
Q 2381 391 2643 752 
Q 2906 1113 2906 1747 
Q 2906 2381 2643 2742 
Q 2381 3103 1925 3103 
Q 1469 3103 1208 2742 
Q 947 2381 947 1747 
z
" transform="scale(0.015625)"/>
       <path id="DejaVuSans-3e" d="M 678 3150 
L 678 3719 
L 4684 2266 
L 4684 1747 
L 678 294 
L 678 863 
L 3897 2003 
L 678 3150 
z
" transform="scale(0.015625)"/>
      </defs>
      <use xlink:href="#DejaVuSans-50"/>
      <use xlink:href="#DejaVuSans-65" x="56.677734"/>
      <use xlink:href="#DejaVuSans-72" x="118.201172"/>
      <use xlink:href="#DejaVuSans-63" x="157.064453"/>
      <use xlink:href="#DejaVuSans-69" x="212.044922"/>
      <use xlink:href="#DejaVuSans-65" x="239.828125"/>
      <use xlink:href="#DejaVuSans-76" x="301.351562"/>
      <use xlink:href="#DejaVuSans-65" x="360.53125"/>
      <use xlink:href="#DejaVuSans-64" x="422.054688"/>
      <use xlink:href="#DejaVuSans-20" x="485.53125"/>
      <use xlink:href="#DejaVuSans-63" x="517.318359"/>
      <use xlink:href="#DejaVuSans-6f" x="572.298828"/>
      <use xlink:href="#DejaVuSans-6e" x="633.480469"/>
      <use xlink:href="#DejaVuSans-74" x="696.859375"/>
      <use xlink:href="#DejaVuSans-72" x="736.068359"/>
      <use xlink:href="#DejaVuSans-61" x="777.181641"/>
      <use xlink:href="#DejaVuSans-73" x="838.460938"/>
      <use xlink:href="#DejaVuSans-74" x="890.560547"/>
      <use xlink:href="#DejaVuSans-20" x="929.769531"/>
      <use xlink:href="#DejaVuSans-6f" x="961.556641"/>
      <use xlink:href="#DejaVuSans-66" x="1022.738281"/>
      <use xlink:href="#DejaVuSans-20" x="1057.943359"/>
      <use xlink:href="#DejaVuSans-74" x="1089.730469"/>
      <use xlink:href="#DejaVuSans-65" x="1128.939453"/>
      <use xlink:href="#DejaVuSans-73" x="1190.462891"/>
      <use xlink:href="#DejaVuSans-74" x="1242.5625"/>
      <use xlink:href="#DejaVuSans-20" x="1281.771484"/>
      <use xlink:href="#DejaVuSans-3e" x="1313.558594"/>
      <use xlink:href="#DejaVuSans-20" x="1397.347656"/>
      <use xlink:href="#DejaVuSans-73" x="1429.134766"/>
      <use xlink:href="#DejaVuSans-74" x="1481.234375"/>
      <use xlink:href="#DejaVuSans-61" x="1520.443359"/>
      <use xlink:href="#DejaVuSans-6e" x="1581.722656"/>
      <use xlink:href="#DejaVuSans-64" x="1645.101562"/>
      <use xlink:href="#DejaVuSans-61" x="1708.578125"/>
      <use xlink:href="#DejaVuSans-72" x="1769.857422"/>
      <use xlink:href="#DejaVuSans-64" x="1809.220703"/>
      <use xlink:href="#DejaVuSans-20" x="1872.697266"/>
      <use xlink:href="#DejaVuSans-28" x="1904.484375"/>
      <use xlink:href="#DejaVuSans-25" x="1943.498047"/>
      <use xlink:href="#DejaVuSans-29" x="2038.517578"/>
     </g>
    </g>
   </g>
   <g id="line2d_14">
    <path d="M 69.218182 242.561691 
L 79.363637 241.083212 
L 89.509092 238.707344 
L 99.654544 234.93518 
L 109.800002 229.059349 
L 119.945456 220.173378 
L 130.090905 207.318702 
L 140.236369 189.868603 
L 150.381823 168.119057 
L 160.527267 143.721309 
L 170.67273 119.385855 
L 180.818184 97.796298 
L 190.963629 80.545371 
L 201.109092 67.877432 
L 211.254556 59.140359 
L 221.4 53.371869 
L 231.545444 49.672308 
L 241.690898 47.343649 
L 251.836352 45.895129 
L 261.981806 45.000729 
L 272.12726 44.450977 
L 282.272714 44.113983 
L 292.418168 43.907798 
L 302.563622 43.78176 
L 312.709075 43.704754 
L 322.854529 43.657768 
L 333.000003 43.629038 
L 343.145456 43.611539 
L 353.290891 43.600872 
L 363.436364 43.59433 
L 373.581818 43.59035 
" clip-path="url(#p969892d1c8)" style="fill: none; stroke: #00bfbf; stroke-width: 1.5; stroke-linecap: square"/>
   </g>
   <g id="line2d_15">
    <path d="M 69.218182 250.349461 
L 79.363637 250.03036 
L 89.509092 249.472524 
L 99.654544 248.500437 
L 109.800002 246.815814 
L 119.945456 243.924158 
L 130.090905 239.041185 
L 140.236369 231.01902 
L 150.381823 218.416306 
L 160.527267 199.945482 
L 170.67273 175.454717 
L 180.818184 146.962657 
L 190.963629 118.449835 
L 201.109092 93.90797 
L 211.254556 75.378245 
L 221.4 62.725274 
L 231.545444 54.666861 
L 241.690898 49.76019 
L 251.836352 46.853934 
L 261.981806 45.160622 
L 272.12726 44.183448 
L 282.272714 43.622673 
L 292.418168 43.301842 
L 302.563622 43.118698 
L 312.709075 43.01422 
L 322.854529 42.954649 
L 333.000003 42.920714 
L 343.145456 42.901378 
L 353.290891 42.890357 
L 363.436364 42.884089 
L 373.581818 42.880512 
" clip-path="url(#p969892d1c8)" style="fill: none; stroke: #bf00bf; stroke-width: 1.5; stroke-linecap: square"/>
   </g>
   <g id="line2d_16">
    <path d="M 69.218182 254.927651 
L 79.363637 254.835031 
L 89.509092 254.629881 
L 99.654544 254.176266 
L 109.800002 253.177058 
L 119.945456 250.994312 
L 130.090905 246.311791 
L 140.236369 236.645875 
L 150.381823 218.187884 
L 160.527267 187.661679 
L 170.67273 147.459494 
L 180.818184 107.855079 
L 190.963629 78.560666 
L 201.109092 61.162641 
L 211.254556 52.144585 
L 221.4 47.798559 
L 231.545444 45.777696 
L 241.690898 44.853647 
L 251.836352 44.43438 
L 261.981806 44.244823 
L 272.12726 44.159213 
L 282.272714 44.120622 
L 292.418168 44.10322 
L 302.563622 44.09534 
L 312.709075 44.091844 
L 322.854529 44.090232 
L 333.000003 44.089507 
L 343.145456 44.089201 
L 353.290891 44.089056 
L 363.436364 44.088976 
L 373.581818 44.088943 
" clip-path="url(#p969892d1c8)" style="fill: none; stroke: #bfbf00; stroke-width: 1.5; stroke-linecap: square"/>
   </g>
   <g id="patch_3">
    <path d="M 54 256.32 
L 54 34.56 
" style="fill: none; stroke: #000000; stroke-width: 0.8; stroke-linejoin: miter; stroke-linecap: square"/>
   </g>
   <g id="patch_4">
    <path d="M 388.8 256.32 
L 388.8 34.56 
" style="fill: none; stroke: #000000; stroke-width: 0.8; stroke-linejoin: miter; stroke-linecap: square"/>
   </g>
   <g id="patch_5">
    <path d="M 54 256.32 
L 388.8 256.32 
" style="fill: none; stroke: #000000; stroke-width: 0.8; stroke-linejoin: miter; stroke-linecap: square"/>
   </g>
   <g id="patch_6">
    <path d="M 54 34.56 
L 388.8 34.56 
" style="fill: none; stroke: #000000; stroke-width: 0.8; stroke-linejoin: miter; stroke-linecap: square"/>
   </g>
   <g id="text_16">
    <!-- ite -1 - Accuracy vs Contrast -->
    <g transform="translate(136.300313 28.56) scale(0.12 -0.12)">
     <defs>
      <path id="DejaVuSans-2d" d="M 313 2009 
L 1997 2009 
L 1997 1497 
L 313 1497 
L 313 2009 
z
" transform="scale(0.015625)"/>
      <path id="DejaVuSans-41" d="M 2188 4044 
L 1331 1722 
L 3047 1722 
L 2188 4044 
z
M 1831 4666 
L 2547 4666 
L 4325 0 
L 3669 0 
L 3244 1197 
L 1141 1197 
L 716 0 
L 50 0 
L 1831 4666 
z
" transform="scale(0.015625)"/>
      <path id="DejaVuSans-79" d="M 2059 -325 
Q 1816 -950 1584 -1140 
Q 1353 -1331 966 -1331 
L 506 -1331 
L 506 -850 
L 844 -850 
Q 1081 -850 1212 -737 
Q 1344 -625 1503 -206 
L 1606 56 
L 191 3500 
L 800 3500 
L 1894 763 
L 2988 3500 
L 3597 3500 
L 2059 -325 
z
" transform="scale(0.015625)"/>
     </defs>
     <use xlink:href="#DejaVuSans-69"/>
     <use xlink:href="#DejaVuSans-74" x="27.783203"/>
     <use xlink:href="#DejaVuSans-65" x="66.992188"/>
     <use xlink:href="#DejaVuSans-20" x="128.515625"/>
     <use xlink:href="#DejaVuSans-2d" x="160.302734"/>
     <use xlink:href="#DejaVuSans-31" x="196.386719"/>
     <use xlink:href="#DejaVuSans-20" x="260.009766"/>
     <use xlink:href="#DejaVuSans-2d" x="291.796875"/>
     <use xlink:href="#DejaVuSans-20" x="327.880859"/>
     <use xlink:href="#DejaVuSans-41" x="359.667969"/>
     <use xlink:href="#DejaVuSans-63" x="426.326172"/>
     <use xlink:href="#DejaVuSans-63" x="481.306641"/>
     <use xlink:href="#DejaVuSans-75" x="536.287109"/>
     <use xlink:href="#DejaVuSans-72" x="599.666016"/>
     <use xlink:href="#DejaVuSans-61" x="640.779297"/>
     <use xlink:href="#DejaVuSans-63" x="702.058594"/>
     <use xlink:href="#DejaVuSans-79" x="757.039062"/>
     <use xlink:href="#DejaVuSans-20" x="816.21875"/>
     <use xlink:href="#DejaVuSans-76" x="848.005859"/>
     <use xlink:href="#DejaVuSans-73" x="907.185547"/>
     <use xlink:href="#DejaVuSans-20" x="959.285156"/>
     <use xlink:href="#DejaVuSans-43" x="991.072266"/>
     <use xlink:href="#DejaVuSans-6f" x="1060.896484"/>
     <use xlink:href="#DejaVuSans-6e" x="1122.078125"/>
     <use xlink:href="#DejaVuSans-74" x="1185.457031"/>
     <use xlink:href="#DejaVuSans-72" x="1224.666016"/>
     <use xlink:href="#DejaVuSans-61" x="1265.779297"/>
     <use xlink:href="#DejaVuSans-73" x="1327.058594"/>
     <use xlink:href="#DejaVuSans-74" x="1379.158203"/>
    </g>
   </g>
   <g id="legend_1">
    <g id="patch_7">
     <path d="M 61 86.594375 
L 165.301562 86.594375 
Q 167.301562 86.594375 167.301562 84.594375 
L 167.301562 41.56 
Q 167.301562 39.56 165.301562 39.56 
L 61 39.56 
Q 59 39.56 59 41.56 
L 59 84.594375 
Q 59 86.594375 61 86.594375 
z
" style="fill: #ffffff; opacity: 0.8; stroke: #cccccc; stroke-linejoin: miter"/>
    </g>
    <g id="PathCollection_4">
     <g>
      <use xlink:href="#md44326bce7" x="73" y="48.533438" style="fill: #00bfbf; stroke: #00bfbf"/>
     </g>
    </g>
    <g id="text_17">
     <!-- test-cued -->
     <g transform="translate(91 51.158438) scale(0.1 -0.1)">
      <use xlink:href="#DejaVuSans-74"/>
      <use xlink:href="#DejaVuSans-65" x="39.208984"/>
      <use xlink:href="#DejaVuSans-73" x="100.732422"/>
      <use xlink:href="#DejaVuSans-74" x="152.832031"/>
      <use xlink:href="#DejaVuSans-2d" x="192.041016"/>
      <use xlink:href="#DejaVuSans-63" x="228.125"/>
      <use xlink:href="#DejaVuSans-75" x="283.105469"/>
      <use xlink:href="#DejaVuSans-65" x="346.484375"/>
      <use xlink:href="#DejaVuSans-64" x="408.007812"/>
     </g>
    </g>
    <g id="PathCollection_5">
     <g>
      <use xlink:href="#me476dfacb8" x="73" y="63.211563" style="fill: #bf00bf; stroke: #bf00bf"/>
     </g>
    </g>
    <g id="text_18">
     <!-- standard-cued -->
     <g transform="translate(91 65.836563) scale(0.1 -0.1)">
      <use xlink:href="#DejaVuSans-73"/>
      <use xlink:href="#DejaVuSans-74" x="52.099609"/>
      <use xlink:href="#DejaVuSans-61" x="91.308594"/>
      <use xlink:href="#DejaVuSans-6e" x="152.587891"/>
      <use xlink:href="#DejaVuSans-64" x="215.966797"/>
      <use xlink:href="#DejaVuSans-61" x="279.443359"/>
      <use xlink:href="#DejaVuSans-72" x="340.722656"/>
      <use xlink:href="#DejaVuSans-64" x="380.085938"/>
      <use xlink:href="#DejaVuSans-2d" x="443.5625"/>
      <use xlink:href="#DejaVuSans-63" x="479.646484"/>
      <use xlink:href="#DejaVuSans-75" x="534.626953"/>
      <use xlink:href="#DejaVuSans-65" x="598.005859"/>
      <use xlink:href="#DejaVuSans-64" x="659.529297"/>
     </g>
    </g>
    <g id="PathCollection_6">
     <g>
      <use xlink:href="#m94c87733bd" x="73" y="77.889688" style="fill: #bfbf00; stroke: #bfbf00"/>
     </g>
    </g>
    <g id="text_19">
     <!-- neutral-cued -->
     <g transform="translate(91 80.514688) scale(0.1 -0.1)">
      <use xlink:href="#DejaVuSans-6e"/>
      <use xlink:href="#DejaVuSans-65" x="63.378906"/>
      <use xlink:href="#DejaVuSans-75" x="124.902344"/>
      <use xlink:href="#DejaVuSans-74" x="188.28125"/>
      <use xlink:href="#DejaVuSans-72" x="227.490234"/>
      <use xlink:href="#DejaVuSans-61" x="268.603516"/>
      <use xlink:href="#DejaVuSans-6c" x="329.882812"/>
      <use xlink:href="#DejaVuSans-2d" x="357.666016"/>
      <use xlink:href="#DejaVuSans-63" x="393.75"/>
      <use xlink:href="#DejaVuSans-75" x="448.730469"/>
      <use xlink:href="#DejaVuSans-65" x="512.109375"/>
      <use xlink:href="#DejaVuSans-64" x="573.632812"/>
     </g>
    </g>
   </g>
  </g>
 </g>
 <defs>
  <clipPath id="p969892d1c8">
   <rect x="54" y="34.56" width="334.8" height="221.76"/>
  </clipPath>
 </defs>
</svg>
