<?xml version="1.0" encoding="utf-8" standalone="no"?>
<!DOCTYPE svg PUBLIC "-//W3C//DTD SVG 1.1//EN"
  "http://www.w3.org/Graphics/SVG/1.1/DTD/svg11.dtd">
<svg xmlns:xlink="http://www.w3.org/1999/xlink" width="432pt" height="288pt" viewBox="0 0 432 288" xmlns="http://www.w3.org/2000/svg" version="1.1">
 <metadata>
  <rdf:RDF xmlns:dc="http://purl.org/dc/elements/1.1/" xmlns:cc="http://creativecommons.org/ns#" xmlns:rdf="http://www.w3.org/1999/02/22-rdf-syntax-ns#">
   <cc:Work>
    <dc:type rdf:resource="http://purl.org/dc/dcmitype/StillImage"/>
    <dc:date>2025-07-23T14:34:05.630679</dc:date>
    <dc:format>image/svg+xml</dc:format>
    <dc:creator>
     <cc:Agent>
      <dc:title>Matplotlib v3.8.0, https://matplotlib.org/</dc:title>
     </cc:Agent>
    </dc:creator>
   </cc:Work>
  </rdf:RDF>
 </metadata>
 <defs>
  <style type="text/css">*{stroke-linejoin: round; stroke-linecap: butt}</style>
 </defs>
 <g id="figure_1">
  <g id="patch_1">
   <path d="M 0 288 
L 432 288 
L 432 0 
L 0 0 
z
" style="fill: #ffffff"/>
  </g>
  <g id="axes_1">
   <g id="patch_2">
    <path d="M 54 256.32 
L 388.8 256.32 
L 388.8 34.56 
L 54 34.56 
z
" style="fill: #ffffff"/>
   </g>
   <g id="PathCollection_1">
    <defs>
     <path id="m9c29770616" d="M 0 1.581139 
C 0.419323 1.581139 0.821528 1.41454 1.118034 1.118034 
C 1.41454 0.821528 1.581139 0.419323 1.581139 0 
C 1.581139 -0.419323 1.41454 -0.821528 1.118034 -1.118034 
C 0.821528 -1.41454 0.419323 -1.581139 0 -1.581139 
C -0.419323 -1.581139 -0.821528 -1.41454 -1.118034 -1.118034 
C -1.41454 -0.821528 -1.581139 -0.419323 -1.581139 0 
C -1.581139 0.419323 -1.41454 0.821528 -1.118034 1.118034 
C -0.821528 1.41454 -0.419323 1.581139 0 1.581139 
z
" style="stroke: #ff0000"/>
    </defs>
    <g clip-path="url(#pe4200fe266)">
     <use xlink:href="#m9c29770616" x="84.436364" y="239.1525" style="fill: #ff0000; stroke: #ff0000"/>
     <use xlink:href="#m9c29770616" x="114.872727" y="231.2775" style="fill: #ff0000; stroke: #ff0000"/>
     <use xlink:href="#m9c29770616" x="145.309091" y="195.84" style="fill: #ff0000; stroke: #ff0000"/>
     <use xlink:href="#m9c29770616" x="175.745455" y="143.0775" style="fill: #ff0000; stroke: #ff0000"/>
     <use xlink:href="#m9c29770616" x="206.181818" y="84.40875" style="fill: #ff0000; stroke: #ff0000"/>
     <use xlink:href="#m9c29770616" x="236.618182" y="59.99625" style="fill: #ff0000; stroke: #ff0000"/>
     <use xlink:href="#m9c29770616" x="267.054545" y="48.18375" style="fill: #ff0000; stroke: #ff0000"/>
     <use xlink:href="#m9c29770616" x="297.490909" y="46.215" style="fill: #ff0000; stroke: #ff0000"/>
     <use xlink:href="#m9c29770616" x="327.927273" y="44.64" style="fill: #ff0000; stroke: #ff0000"/>
     <use xlink:href="#m9c29770616" x="358.363636" y="44.64" style="fill: #ff0000; stroke: #ff0000"/>
     <use xlink:href="#m9c29770616" x="388.8" y="44.64" style="fill: #ff0000; stroke: #ff0000"/>
    </g>
   </g>
   <g id="PathCollection_2">
    <defs>
     <path id="meaabd702d8" d="M 0 1.581139 
C 0.419323 1.581139 0.821528 1.41454 1.118034 1.118034 
C 1.41454 0.821528 1.581139 0.419323 1.581139 0 
C 1.581139 -0.419323 1.41454 -0.821528 1.118034 -1.118034 
C 0.821528 -1.41454 0.419323 -1.581139 0 -1.581139 
C -0.419323 -1.581139 -0.821528 -1.41454 -1.118034 -1.118034 
C -1.41454 -0.821528 -1.581139 -0.419323 -1.581139 0 
C -1.581139 0.419323 -1.41454 0.821528 -1.118034 1.118034 
C -0.821528 1.41454 -0.419323 1.581139 0 1.581139 
z
" style="stroke: #0000ff"/>
    </defs>
    <g clip-path="url(#pe4200fe266)">
     <use xlink:href="#meaabd702d8" x="84.436364" y="245.84625" style="fill: #0000ff; stroke: #0000ff"/>
     <use xlink:href="#meaabd702d8" x="114.872727" y="240.7275" style="fill: #0000ff; stroke: #0000ff"/>
     <use xlink:href="#meaabd702d8" x="145.309091" y="223.4025" style="fill: #0000ff; stroke: #0000ff"/>
     <use xlink:href="#meaabd702d8" x="175.745455" y="188.35875" style="fill: #0000ff; stroke: #0000ff"/>
     <use xlink:href="#meaabd702d8" x="206.181818" y="131.265" style="fill: #0000ff; stroke: #0000ff"/>
     <use xlink:href="#meaabd702d8" x="236.618182" y="84.015" style="fill: #0000ff; stroke: #0000ff"/>
     <use xlink:href="#meaabd702d8" x="267.054545" y="59.6025" style="fill: #0000ff; stroke: #0000ff"/>
     <use xlink:href="#meaabd702d8" x="297.490909" y="50.94" style="fill: #0000ff; stroke: #0000ff"/>
     <use xlink:href="#meaabd702d8" x="327.927273" y="45.03375" style="fill: #0000ff; stroke: #0000ff"/>
     <use xlink:href="#meaabd702d8" x="358.363636" y="45.4275" style="fill: #0000ff; stroke: #0000ff"/>
     <use xlink:href="#meaabd702d8" x="388.8" y="44.64" style="fill: #0000ff; stroke: #0000ff"/>
    </g>
   </g>
   <g id="PathCollection_3">
    <defs>
     <path id="m47c3fe4a3d" d="M 0 1.581139 
C 0.419323 1.581139 0.821528 1.41454 1.118034 1.118034 
C 1.41454 0.821528 1.581139 0.419323 1.581139 0 
C 1.581139 -0.419323 1.41454 -0.821528 1.118034 -1.118034 
C 0.821528 -1.41454 0.419323 -1.581139 0 -1.581139 
C -0.419323 -1.581139 -0.821528 -1.41454 -1.118034 -1.118034 
C -1.41454 -0.821528 -1.581139 -0.419323 -1.581139 0 
C -1.581139 0.419323 -1.41454 0.821528 -1.118034 1.118034 
C -0.821528 1.41454 -0.419323 1.581139 0 1.581139 
z
" style="stroke: #bf00bf"/>
    </defs>
    <g clip-path="url(#pe4200fe266)">
     <use xlink:href="#m47c3fe4a3d" x="84.436364" y="245.84625" style="fill: #bf00bf; stroke: #bf00bf"/>
     <use xlink:href="#m47c3fe4a3d" x="114.872727" y="245.05875" style="fill: #bf00bf; stroke: #bf00bf"/>
     <use xlink:href="#m47c3fe4a3d" x="145.309091" y="239.1525" style="fill: #bf00bf; stroke: #bf00bf"/>
     <use xlink:href="#m47c3fe4a3d" x="175.745455" y="222.22125" style="fill: #bf00bf; stroke: #bf00bf"/>
     <use xlink:href="#m47c3fe4a3d" x="206.181818" y="180.8775" style="fill: #bf00bf; stroke: #bf00bf"/>
     <use xlink:href="#m47c3fe4a3d" x="236.618182" y="116.69625" style="fill: #bf00bf; stroke: #bf00bf"/>
     <use xlink:href="#m47c3fe4a3d" x="267.054545" y="78.10875" style="fill: #bf00bf; stroke: #bf00bf"/>
     <use xlink:href="#m47c3fe4a3d" x="297.490909" y="55.27125" style="fill: #bf00bf; stroke: #bf00bf"/>
     <use xlink:href="#m47c3fe4a3d" x="327.927273" y="49.365" style="fill: #bf00bf; stroke: #bf00bf"/>
     <use xlink:href="#m47c3fe4a3d" x="358.363636" y="45.82125" style="fill: #bf00bf; stroke: #bf00bf"/>
     <use xlink:href="#m47c3fe4a3d" x="388.8" y="45.4275" style="fill: #bf00bf; stroke: #bf00bf"/>
    </g>
   </g>
   <g id="PathCollection_4">
    <defs>
     <path id="m9a0dd877af" d="M 0 1.581139 
C 0.419323 1.581139 0.821528 1.41454 1.118034 1.118034 
C 1.41454 0.821528 1.581139 0.419323 1.581139 0 
C 1.581139 -0.419323 1.41454 -0.821528 1.118034 -1.118034 
C 0.821528 -1.41454 0.419323 -1.581139 0 -1.581139 
C -0.419323 -1.581139 -0.821528 -1.41454 -1.118034 -1.118034 
C -1.41454 -0.821528 -1.581139 -0.419323 -1.581139 0 
C -1.581139 0.419323 -1.41454 0.821528 -1.118034 1.118034 
C -0.821528 1.41454 -0.419323 1.581139 0 1.581139 
z
" style="stroke: #00bfbf"/>
    </defs>
    <g clip-path="url(#pe4200fe266)">
     <use xlink:href="#m9a0dd877af" x="84.436364" y="246.24" style="fill: #00bfbf; stroke: #00bfbf"/>
     <use xlink:href="#m9a0dd877af" x="114.872727" y="245.84625" style="fill: #00bfbf; stroke: #00bfbf"/>
     <use xlink:href="#m9a0dd877af" x="145.309091" y="242.69625" style="fill: #00bfbf; stroke: #00bfbf"/>
     <use xlink:href="#m9a0dd877af" x="175.745455" y="232.45875" style="fill: #00bfbf; stroke: #00bfbf"/>
     <use xlink:href="#m9a0dd877af" x="206.181818" y="207.25875" style="fill: #00bfbf; stroke: #00bfbf"/>
     <use xlink:href="#m9a0dd877af" x="236.618182" y="142.68375" style="fill: #00bfbf; stroke: #00bfbf"/>
     <use xlink:href="#m9a0dd877af" x="267.054545" y="97.79625" style="fill: #00bfbf; stroke: #00bfbf"/>
     <use xlink:href="#m9a0dd877af" x="297.490909" y="66.29625" style="fill: #00bfbf; stroke: #00bfbf"/>
     <use xlink:href="#m9a0dd877af" x="327.927273" y="51.7275" style="fill: #00bfbf; stroke: #00bfbf"/>
     <use xlink:href="#m9a0dd877af" x="358.363636" y="47.39625" style="fill: #00bfbf; stroke: #00bfbf"/>
     <use xlink:href="#m9a0dd877af" x="388.8" y="45.03375" style="fill: #00bfbf; stroke: #00bfbf"/>
    </g>
   </g>
   <g id="matplotlib.axis_1">
    <g id="xtick_1">
     <g id="line2d_1">
      <defs>
       <path id="mf11fad7f0c" d="M 0 0 
L 0 3.5 
" style="stroke: #000000; stroke-width: 0.8"/>
      </defs>
      <g>
       <use xlink:href="#mf11fad7f0c" x="54" y="256.32" style="stroke: #000000; stroke-width: 0.8"/>
      </g>
     </g>
     <g id="text_1">
      <!-- 4 -->
      <g transform="translate(50.81875 270.918437) scale(0.1 -0.1)">
       <defs>
        <path id="DejaVuSans-34" d="M 2419 4116 
L 825 1625 
L 2419 1625 
L 2419 4116 
z
M 2253 4666 
L 3047 4666 
L 3047 1625 
L 3713 1625 
L 3713 1100 
L 3047 1100 
L 3047 0 
L 2419 0 
L 2419 1100 
L 313 1100 
L 313 1709 
L 2253 4666 
z
" transform="scale(0.015625)"/>
       </defs>
       <use xlink:href="#DejaVuSans-34"/>
      </g>
     </g>
    </g>
    <g id="xtick_2">
     <g id="line2d_2">
      <g>
       <use xlink:href="#mf11fad7f0c" x="114.872727" y="256.32" style="stroke: #000000; stroke-width: 0.8"/>
      </g>
     </g>
     <g id="text_2">
      <!-- 6 -->
      <g transform="translate(111.691477 270.918437) scale(0.1 -0.1)">
       <defs>
        <path id="DejaVuSans-36" d="M 2113 2584 
Q 1688 2584 1439 2293 
Q 1191 2003 1191 1497 
Q 1191 994 1439 701 
Q 1688 409 2113 409 
Q 2538 409 2786 701 
Q 3034 994 3034 1497 
Q 3034 2003 2786 2293 
Q 2538 2584 2113 2584 
z
M 3366 4563 
L 3366 3988 
Q 3128 4100 2886 4159 
Q 2644 4219 2406 4219 
Q 1781 4219 1451 3797 
Q 1122 3375 1075 2522 
Q 1259 2794 1537 2939 
Q 1816 3084 2150 3084 
Q 2853 3084 3261 2657 
Q 3669 2231 3669 1497 
Q 3669 778 3244 343 
Q 2819 -91 2113 -91 
Q 1303 -91 875 529 
Q 447 1150 447 2328 
Q 447 3434 972 4092 
Q 1497 4750 2381 4750 
Q 2619 4750 2861 4703 
Q 3103 4656 3366 4563 
z
" transform="scale(0.015625)"/>
       </defs>
       <use xlink:href="#DejaVuSans-36"/>
      </g>
     </g>
    </g>
    <g id="xtick_3">
     <g id="line2d_3">
      <g>
       <use xlink:href="#mf11fad7f0c" x="175.745455" y="256.32" style="stroke: #000000; stroke-width: 0.8"/>
      </g>
     </g>
     <g id="text_3">
      <!-- 8 -->
      <g transform="translate(172.564205 270.918437) scale(0.1 -0.1)">
       <defs>
        <path id="DejaVuSans-38" d="M 2034 2216 
Q 1584 2216 1326 1975 
Q 1069 1734 1069 1313 
Q 1069 891 1326 650 
Q 1584 409 2034 409 
Q 2484 409 2743 651 
Q 3003 894 3003 1313 
Q 3003 1734 2745 1975 
Q 2488 2216 2034 2216 
z
M 1403 2484 
Q 997 2584 770 2862 
Q 544 3141 544 3541 
Q 544 4100 942 4425 
Q 1341 4750 2034 4750 
Q 2731 4750 3128 4425 
Q 3525 4100 3525 3541 
Q 3525 3141 3298 2862 
Q 3072 2584 2669 2484 
Q 3125 2378 3379 2068 
Q 3634 1759 3634 1313 
Q 3634 634 3220 271 
Q 2806 -91 2034 -91 
Q 1263 -91 848 271 
Q 434 634 434 1313 
Q 434 1759 690 2068 
Q 947 2378 1403 2484 
z
M 1172 3481 
Q 1172 3119 1398 2916 
Q 1625 2713 2034 2713 
Q 2441 2713 2670 2916 
Q 2900 3119 2900 3481 
Q 2900 3844 2670 4047 
Q 2441 4250 2034 4250 
Q 1625 4250 1398 4047 
Q 1172 3844 1172 3481 
z
" transform="scale(0.015625)"/>
       </defs>
       <use xlink:href="#DejaVuSans-38"/>
      </g>
     </g>
    </g>
    <g id="xtick_4">
     <g id="line2d_4">
      <g>
       <use xlink:href="#mf11fad7f0c" x="236.618182" y="256.32" style="stroke: #000000; stroke-width: 0.8"/>
      </g>
     </g>
     <g id="text_4">
      <!-- 10 -->
      <g transform="translate(230.255682 270.918437) scale(0.1 -0.1)">
       <defs>
        <path id="DejaVuSans-31" d="M 794 531 
L 1825 531 
L 1825 4091 
L 703 3866 
L 703 4441 
L 1819 4666 
L 2450 4666 
L 2450 531 
L 3481 531 
L 3481 0 
L 794 0 
L 794 531 
z
" transform="scale(0.015625)"/>
        <path id="DejaVuSans-30" d="M 2034 4250 
Q 1547 4250 1301 3770 
Q 1056 3291 1056 2328 
Q 1056 1369 1301 889 
Q 1547 409 2034 409 
Q 2525 409 2770 889 
Q 3016 1369 3016 2328 
Q 3016 3291 2770 3770 
Q 2525 4250 2034 4250 
z
M 2034 4750 
Q 2819 4750 3233 4129 
Q 3647 3509 3647 2328 
Q 3647 1150 3233 529 
Q 2819 -91 2034 -91 
Q 1250 -91 836 529 
Q 422 1150 422 2328 
Q 422 3509 836 4129 
Q 1250 4750 2034 4750 
z
" transform="scale(0.015625)"/>
       </defs>
       <use xlink:href="#DejaVuSans-31"/>
       <use xlink:href="#DejaVuSans-30" x="63.623047"/>
      </g>
     </g>
    </g>
    <g id="xtick_5">
     <g id="line2d_5">
      <g>
       <use xlink:href="#mf11fad7f0c" x="297.490909" y="256.32" style="stroke: #000000; stroke-width: 0.8"/>
      </g>
     </g>
     <g id="text_5">
      <!-- 12 -->
      <g transform="translate(291.128409 270.918437) scale(0.1 -0.1)">
       <defs>
        <path id="DejaVuSans-32" d="M 1228 531 
L 3431 531 
L 3431 0 
L 469 0 
L 469 531 
Q 828 903 1448 1529 
Q 2069 2156 2228 2338 
Q 2531 2678 2651 2914 
Q 2772 3150 2772 3378 
Q 2772 3750 2511 3984 
Q 2250 4219 1831 4219 
Q 1534 4219 1204 4116 
Q 875 4013 500 3803 
L 500 4441 
Q 881 4594 1212 4672 
Q 1544 4750 1819 4750 
Q 2544 4750 2975 4387 
Q 3406 4025 3406 3419 
Q 3406 3131 3298 2873 
Q 3191 2616 2906 2266 
Q 2828 2175 2409 1742 
Q 1991 1309 1228 531 
z
" transform="scale(0.015625)"/>
       </defs>
       <use xlink:href="#DejaVuSans-31"/>
       <use xlink:href="#DejaVuSans-32" x="63.623047"/>
      </g>
     </g>
    </g>
    <g id="xtick_6">
     <g id="line2d_6">
      <g>
       <use xlink:href="#mf11fad7f0c" x="358.363636" y="256.32" style="stroke: #000000; stroke-width: 0.8"/>
      </g>
     </g>
     <g id="text_6">
      <!-- 14 -->
      <g transform="translate(352.001136 270.918437) scale(0.1 -0.1)">
       <use xlink:href="#DejaVuSans-31"/>
       <use xlink:href="#DejaVuSans-34" x="63.623047"/>
      </g>
     </g>
    </g>
    <g id="text_7">
     <!-- Rotation Range -->
     <g transform="translate(183.055469 284.596563) scale(0.1 -0.1)">
      <defs>
       <path id="DejaVuSans-52" d="M 2841 2188 
Q 3044 2119 3236 1894 
Q 3428 1669 3622 1275 
L 4263 0 
L 3584 0 
L 2988 1197 
Q 2756 1666 2539 1819 
Q 2322 1972 1947 1972 
L 1259 1972 
L 1259 0 
L 628 0 
L 628 4666 
L 2053 4666 
Q 2853 4666 3247 4331 
Q 3641 3997 3641 3322 
Q 3641 2881 3436 2590 
Q 3231 2300 2841 2188 
z
M 1259 4147 
L 1259 2491 
L 2053 2491 
Q 2509 2491 2742 2702 
Q 2975 2913 2975 3322 
Q 2975 3731 2742 3939 
Q 2509 4147 2053 4147 
L 1259 4147 
z
" transform="scale(0.015625)"/>
       <path id="DejaVuSans-6f" d="M 1959 3097 
Q 1497 3097 1228 2736 
Q 959 2375 959 1747 
Q 959 1119 1226 758 
Q 1494 397 1959 397 
Q 2419 397 2687 759 
Q 2956 1122 2956 1747 
Q 2956 2369 2687 2733 
Q 2419 3097 1959 3097 
z
M 1959 3584 
Q 2709 3584 3137 3096 
Q 3566 2609 3566 1747 
Q 3566 888 3137 398 
Q 2709 -91 1959 -91 
Q 1206 -91 779 398 
Q 353 888 353 1747 
Q 353 2609 779 3096 
Q 1206 3584 1959 3584 
z
" transform="scale(0.015625)"/>
       <path id="DejaVuSans-74" d="M 1172 4494 
L 1172 3500 
L 2356 3500 
L 2356 3053 
L 1172 3053 
L 1172 1153 
Q 1172 725 1289 603 
Q 1406 481 1766 481 
L 2356 481 
L 2356 0 
L 1766 0 
Q 1100 0 847 248 
Q 594 497 594 1153 
L 594 3053 
L 172 3053 
L 172 3500 
L 594 3500 
L 594 4494 
L 1172 4494 
z
" transform="scale(0.015625)"/>
       <path id="DejaVuSans-61" d="M 2194 1759 
Q 1497 1759 1228 1600 
Q 959 1441 959 1056 
Q 959 750 1161 570 
Q 1363 391 1709 391 
Q 2188 391 2477 730 
Q 2766 1069 2766 1631 
L 2766 1759 
L 2194 1759 
z
M 3341 1997 
L 3341 0 
L 2766 0 
L 2766 531 
Q 2569 213 2275 61 
Q 1981 -91 1556 -91 
Q 1019 -91 701 211 
Q 384 513 384 1019 
Q 384 1609 779 1909 
Q 1175 2209 1959 2209 
L 2766 2209 
L 2766 2266 
Q 2766 2663 2505 2880 
Q 2244 3097 1772 3097 
Q 1472 3097 1187 3025 
Q 903 2953 641 2809 
L 641 3341 
Q 956 3463 1253 3523 
Q 1550 3584 1831 3584 
Q 2591 3584 2966 3190 
Q 3341 2797 3341 1997 
z
" transform="scale(0.015625)"/>
       <path id="DejaVuSans-69" d="M 603 3500 
L 1178 3500 
L 1178 0 
L 603 0 
L 603 3500 
z
M 603 4863 
L 1178 4863 
L 1178 4134 
L 603 4134 
L 603 4863 
z
" transform="scale(0.015625)"/>
       <path id="DejaVuSans-6e" d="M 3513 2113 
L 3513 0 
L 2938 0 
L 2938 2094 
Q 2938 2591 2744 2837 
Q 2550 3084 2163 3084 
Q 1697 3084 1428 2787 
Q 1159 2491 1159 1978 
L 1159 0 
L 581 0 
L 581 3500 
L 1159 3500 
L 1159 2956 
Q 1366 3272 1645 3428 
Q 1925 3584 2291 3584 
Q 2894 3584 3203 3211 
Q 3513 2838 3513 2113 
z
" transform="scale(0.015625)"/>
       <path id="DejaVuSans-20" transform="scale(0.015625)"/>
       <path id="DejaVuSans-67" d="M 2906 1791 
Q 2906 2416 2648 2759 
Q 2391 3103 1925 3103 
Q 1463 3103 1205 2759 
Q 947 2416 947 1791 
Q 947 1169 1205 825 
Q 1463 481 1925 481 
Q 2391 481 2648 825 
Q 2906 1169 2906 1791 
z
M 3481 434 
Q 3481 -459 3084 -895 
Q 2688 -1331 1869 -1331 
Q 1566 -1331 1297 -1286 
Q 1028 -1241 775 -1147 
L 775 -588 
Q 1028 -725 1275 -790 
Q 1522 -856 1778 -856 
Q 2344 -856 2625 -561 
Q 2906 -266 2906 331 
L 2906 616 
Q 2728 306 2450 153 
Q 2172 0 1784 0 
Q 1141 0 747 490 
Q 353 981 353 1791 
Q 353 2603 747 3093 
Q 1141 3584 1784 3584 
Q 2172 3584 2450 3431 
Q 2728 3278 2906 2969 
L 2906 3500 
L 3481 3500 
L 3481 434 
z
" transform="scale(0.015625)"/>
       <path id="DejaVuSans-65" d="M 3597 1894 
L 3597 1613 
L 953 1613 
Q 991 1019 1311 708 
Q 1631 397 2203 397 
Q 2534 397 2845 478 
Q 3156 559 3463 722 
L 3463 178 
Q 3153 47 2828 -22 
Q 2503 -91 2169 -91 
Q 1331 -91 842 396 
Q 353 884 353 1716 
Q 353 2575 817 3079 
Q 1281 3584 2069 3584 
Q 2775 3584 3186 3129 
Q 3597 2675 3597 1894 
z
M 3022 2063 
Q 3016 2534 2758 2815 
Q 2500 3097 2075 3097 
Q 1594 3097 1305 2825 
Q 1016 2553 972 2059 
L 3022 2063 
z
" transform="scale(0.015625)"/>
      </defs>
      <use xlink:href="#DejaVuSans-52"/>
      <use xlink:href="#DejaVuSans-6f" x="64.982422"/>
      <use xlink:href="#DejaVuSans-74" x="126.164062"/>
      <use xlink:href="#DejaVuSans-61" x="165.373047"/>
      <use xlink:href="#DejaVuSans-74" x="226.652344"/>
      <use xlink:href="#DejaVuSans-69" x="265.861328"/>
      <use xlink:href="#DejaVuSans-6f" x="293.644531"/>
      <use xlink:href="#DejaVuSans-6e" x="354.826172"/>
      <use xlink:href="#DejaVuSans-20" x="418.205078"/>
      <use xlink:href="#DejaVuSans-52" x="449.992188"/>
      <use xlink:href="#DejaVuSans-61" x="517.224609"/>
      <use xlink:href="#DejaVuSans-6e" x="578.503906"/>
      <use xlink:href="#DejaVuSans-67" x="641.882812"/>
      <use xlink:href="#DejaVuSans-65" x="705.359375"/>
     </g>
    </g>
   </g>
   <g id="matplotlib.axis_2">
    <g id="ytick_1">
     <g id="line2d_7">
      <defs>
       <path id="m042ba154b6" d="M 0 0 
L -3.5 0 
" style="stroke: #000000; stroke-width: 0.8"/>
      </defs>
      <g>
       <use xlink:href="#m042ba154b6" x="54" y="246.24" style="stroke: #000000; stroke-width: 0.8"/>
      </g>
     </g>
     <g id="text_8">
      <!-- 0.0 -->
      <g transform="translate(31.096875 250.039219) scale(0.1 -0.1)">
       <defs>
        <path id="DejaVuSans-2e" d="M 684 794 
L 1344 794 
L 1344 0 
L 684 0 
L 684 794 
z
" transform="scale(0.015625)"/>
       </defs>
       <use xlink:href="#DejaVuSans-30"/>
       <use xlink:href="#DejaVuSans-2e" x="63.623047"/>
       <use xlink:href="#DejaVuSans-30" x="95.410156"/>
      </g>
     </g>
    </g>
    <g id="ytick_2">
     <g id="line2d_8">
      <g>
       <use xlink:href="#m042ba154b6" x="54" y="205.92" style="stroke: #000000; stroke-width: 0.8"/>
      </g>
     </g>
     <g id="text_9">
      <!-- 0.2 -->
      <g transform="translate(31.096875 209.719219) scale(0.1 -0.1)">
       <use xlink:href="#DejaVuSans-30"/>
       <use xlink:href="#DejaVuSans-2e" x="63.623047"/>
       <use xlink:href="#DejaVuSans-32" x="95.410156"/>
      </g>
     </g>
    </g>
    <g id="ytick_3">
     <g id="line2d_9">
      <g>
       <use xlink:href="#m042ba154b6" x="54" y="165.6" style="stroke: #000000; stroke-width: 0.8"/>
      </g>
     </g>
     <g id="text_10">
      <!-- 0.4 -->
      <g transform="translate(31.096875 169.399219) scale(0.1 -0.1)">
       <use xlink:href="#DejaVuSans-30"/>
       <use xlink:href="#DejaVuSans-2e" x="63.623047"/>
       <use xlink:href="#DejaVuSans-34" x="95.410156"/>
      </g>
     </g>
    </g>
    <g id="ytick_4">
     <g id="line2d_10">
      <g>
       <use xlink:href="#m042ba154b6" x="54" y="125.28" style="stroke: #000000; stroke-width: 0.8"/>
      </g>
     </g>
     <g id="text_11">
      <!-- 0.6 -->
      <g transform="translate(31.096875 129.079219) scale(0.1 -0.1)">
       <use xlink:href="#DejaVuSans-30"/>
       <use xlink:href="#DejaVuSans-2e" x="63.623047"/>
       <use xlink:href="#DejaVuSans-36" x="95.410156"/>
      </g>
     </g>
    </g>
    <g id="ytick_5">
     <g id="line2d_11">
      <g>
       <use xlink:href="#m042ba154b6" x="54" y="84.96" style="stroke: #000000; stroke-width: 0.8"/>
      </g>
     </g>
     <g id="text_12">
      <!-- 0.8 -->
      <g transform="translate(31.096875 88.759219) scale(0.1 -0.1)">
       <use xlink:href="#DejaVuSans-30"/>
       <use xlink:href="#DejaVuSans-2e" x="63.623047"/>
       <use xlink:href="#DejaVuSans-38" x="95.410156"/>
      </g>
     </g>
    </g>
    <g id="ytick_6">
     <g id="line2d_12">
      <g>
       <use xlink:href="#m042ba154b6" x="54" y="44.64" style="stroke: #000000; stroke-width: 0.8"/>
      </g>
     </g>
     <g id="text_13">
      <!-- 1.0 -->
      <g transform="translate(31.096875 48.439219) scale(0.1 -0.1)">
       <use xlink:href="#DejaVuSans-31"/>
       <use xlink:href="#DejaVuSans-2e" x="63.623047"/>
       <use xlink:href="#DejaVuSans-30" x="95.410156"/>
      </g>
     </g>
    </g>
    <g id="text_14">
     <!-- Accuracy -->
     <g transform="translate(25.017187 168.268125) rotate(-90) scale(0.1 -0.1)">
      <defs>
       <path id="DejaVuSans-41" d="M 2188 4044 
L 1331 1722 
L 3047 1722 
L 2188 4044 
z
M 1831 4666 
L 2547 4666 
L 4325 0 
L 3669 0 
L 3244 1197 
L 1141 1197 
L 716 0 
L 50 0 
L 1831 4666 
z
" transform="scale(0.015625)"/>
       <path id="DejaVuSans-63" d="M 3122 3366 
L 3122 2828 
Q 2878 2963 2633 3030 
Q 2388 3097 2138 3097 
Q 1578 3097 1268 2742 
Q 959 2388 959 1747 
Q 959 1106 1268 751 
Q 1578 397 2138 397 
Q 2388 397 2633 464 
Q 2878 531 3122 666 
L 3122 134 
Q 2881 22 2623 -34 
Q 2366 -91 2075 -91 
Q 1284 -91 818 406 
Q 353 903 353 1747 
Q 353 2603 823 3093 
Q 1294 3584 2113 3584 
Q 2378 3584 2631 3529 
Q 2884 3475 3122 3366 
z
" transform="scale(0.015625)"/>
       <path id="DejaVuSans-75" d="M 544 1381 
L 544 3500 
L 1119 3500 
L 1119 1403 
Q 1119 906 1312 657 
Q 1506 409 1894 409 
Q 2359 409 2629 706 
Q 2900 1003 2900 1516 
L 2900 3500 
L 3475 3500 
L 3475 0 
L 2900 0 
L 2900 538 
Q 2691 219 2414 64 
Q 2138 -91 1772 -91 
Q 1169 -91 856 284 
Q 544 659 544 1381 
z
M 1991 3584 
L 1991 3584 
z
" transform="scale(0.015625)"/>
       <path id="DejaVuSans-72" d="M 2631 2963 
Q 2534 3019 2420 3045 
Q 2306 3072 2169 3072 
Q 1681 3072 1420 2755 
Q 1159 2438 1159 1844 
L 1159 0 
L 581 0 
L 581 3500 
L 1159 3500 
L 1159 2956 
Q 1341 3275 1631 3429 
Q 1922 3584 2338 3584 
Q 2397 3584 2469 3576 
Q 2541 3569 2628 3553 
L 2631 2963 
z
" transform="scale(0.015625)"/>
       <path id="DejaVuSans-79" d="M 2059 -325 
Q 1816 -950 1584 -1140 
Q 1353 -1331 966 -1331 
L 506 -1331 
L 506 -850 
L 844 -850 
Q 1081 -850 1212 -737 
Q 1344 -625 1503 -206 
L 1606 56 
L 191 3500 
L 800 3500 
L 1894 763 
L 2988 3500 
L 3597 3500 
L 2059 -325 
z
" transform="scale(0.015625)"/>
      </defs>
      <use xlink:href="#DejaVuSans-41"/>
      <use xlink:href="#DejaVuSans-63" x="66.658203"/>
      <use xlink:href="#DejaVuSans-63" x="121.638672"/>
      <use xlink:href="#DejaVuSans-75" x="176.619141"/>
      <use xlink:href="#DejaVuSans-72" x="239.998047"/>
      <use xlink:href="#DejaVuSans-61" x="281.111328"/>
      <use xlink:href="#DejaVuSans-63" x="342.390625"/>
      <use xlink:href="#DejaVuSans-79" x="397.371094"/>
     </g>
    </g>
   </g>
   <g id="line2d_13">
    <path d="M 54 243.554343 
L 57.38182 243.34884 
L 60.76364 243.11293 
L 64.145459 242.842206 
L 67.527279 242.531648 
L 70.909084 242.175552 
L 74.290904 241.767439 
L 77.672724 241.299981 
L 81.054544 240.764902 
L 84.436364 240.152878 
L 87.818183 239.453447 
L 91.200003 238.654908 
L 94.581823 237.744241 
L 97.963643 236.707027 
L 101.345448 235.527403 
L 104.727268 234.188029 
L 108.109088 232.670126 
L 111.490907 230.953562 
L 114.872727 229.017 
L 118.254547 226.838172 
L 121.636367 224.394253 
L 125.018187 221.66236 
L 128.400006 218.620239 
L 131.781812 215.247088 
L 135.163632 211.524478 
L 138.545451 207.437601 
L 141.927271 202.976409 
L 145.309091 198.136951 
L 148.690911 192.922593 
L 152.07273 187.345127 
L 155.45455 181.425641 
L 158.83637 175.194969 
L 162.218175 168.693648 
L 165.599995 161.971276 
L 168.981815 155.085343 
L 172.363635 148.099459 
L 175.745455 141.080992 
L 179.12726 134.098695 
L 182.509094 127.219738 
L 185.890899 120.507507 
L 189.272734 114.019091 
L 192.654539 107.803686 
L 196.036373 101.901293 
L 199.418179 96.342314 
L 202.800013 91.147213 
L 206.181818 86.32744 
L 209.563623 81.885881 
L 212.945458 77.818244 
L 216.327263 74.114233 
L 219.709097 70.758742 
L 223.090903 67.733303 
L 226.472737 65.016935 
L 229.854542 62.587384 
L 233.236377 60.421723 
L 236.618182 58.497145 
L 239.999987 56.791444 
L 243.381821 55.283302 
L 246.763627 53.952702 
L 250.145461 52.780873 
L 253.527266 51.750631 
L 256.909101 50.846141 
L 260.290906 50.053077 
L 263.67274 49.358463 
L 267.054545 48.750691 
L 270.436351 48.219354 
L 273.818185 47.755177 
L 277.19999 47.349927 
L 280.581825 46.99636 
L 283.96363 46.688009 
L 287.345464 46.419217 
L 290.72727 46.184995 
L 294.109104 45.980959 
L 297.490909 45.803274 
L 300.872714 45.648588 
L 304.254549 45.513921 
L 307.636354 45.396738 
L 311.018188 45.29478 
L 314.399994 45.206064 
L 317.781828 45.128907 
L 321.163633 45.06176 
L 324.545467 45.003397 
L 327.927273 44.952616 
L 331.309078 44.90848 
L 334.690912 44.8701 
L 338.072718 44.836695 
L 341.454552 44.807687 
L 344.836357 44.782441 
L 348.218191 44.760511 
L 351.599997 44.74143 
L 354.981831 44.724859 
L 358.363636 44.710452 
L 361.745442 44.697931 
L 365.127276 44.68702 
L 368.509081 44.677563 
L 371.890916 44.669344 
L 375.272721 44.662182 
L 378.654555 44.65597 
L 382.03636 44.65055 
L 385.418195 44.645876 
L 388.8 44.641778 
" clip-path="url(#pe4200fe266)" style="fill: none; stroke: #ff0000; stroke-width: 1.5; stroke-linecap: square"/>
   </g>
   <g id="line2d_14">
    <path d="M 54 247.987489 
L 57.38182 247.863288 
L 60.76364 247.722548 
L 64.145459 247.563094 
L 67.527279 247.382473 
L 70.909084 247.177923 
L 74.290904 246.94633 
L 77.672724 246.684195 
L 81.054544 246.387586 
L 84.436364 246.052095 
L 87.818183 245.67278 
L 91.200003 245.244121 
L 94.581823 244.759953 
L 97.963643 244.213419 
L 101.345448 243.596906 
L 104.727268 242.901979 
L 108.109088 242.119342 
L 111.490907 241.238779 
L 114.872727 240.249118 
L 118.254547 239.138209 
L 121.636367 237.892912 
L 125.018187 236.499125 
L 128.400006 234.94183 
L 131.781812 233.205213 
L 135.163632 231.27277 
L 138.545451 229.127571 
L 141.927271 226.752508 
L 145.309091 224.130679 
L 148.690911 221.245833 
L 152.07273 218.082904 
L 155.45455 214.62863 
L 158.83637 210.872285 
L 162.218175 206.806406 
L 165.599995 202.427544 
L 168.981815 197.7371 
L 172.363635 192.741982 
L 175.745455 187.455143 
L 179.12726 181.896037 
L 182.509094 176.09061 
L 185.890899 170.071395 
L 189.272734 163.87667 
L 192.654539 157.550042 
L 196.036373 151.138933 
L 199.418179 144.69356 
L 202.800013 138.265033 
L 206.181818 131.904183 
L 209.563623 125.659482 
L 212.945458 119.575895 
L 216.327263 113.693774 
L 219.709097 108.047533 
L 223.090903 102.665494 
L 226.472737 97.569274 
L 229.854542 92.774075 
L 233.236377 88.288704 
L 236.618182 84.116442 
L 239.999987 80.255365 
L 243.381821 76.699311 
L 246.763627 73.438592 
L 250.145461 70.460678 
L 253.527266 67.751111 
L 256.909101 65.293911 
L 260.290906 63.072398 
L 263.67274 61.069437 
L 267.054545 59.268014 
L 270.436351 57.65151 
L 273.818185 56.203787 
L 277.19999 54.909571 
L 280.581825 53.754433 
L 283.96363 52.724925 
L 287.345464 51.808502 
L 290.72727 50.993737 
L 294.109104 50.270043 
L 297.490909 49.627808 
L 300.872714 49.058356 
L 304.254549 48.553756 
L 307.636354 48.10693 
L 311.018188 47.711474 
L 314.399994 47.361643 
L 317.781828 47.052308 
L 321.163633 46.778889 
L 324.545467 46.537313 
L 327.927273 46.323928 
L 331.309078 46.135488 
L 334.690912 45.969135 
L 338.072718 45.822295 
L 341.454552 45.692664 
L 344.836357 45.578317 
L 348.218191 45.477428 
L 351.599997 45.388411 
L 354.981831 45.309921 
L 358.363636 45.240683 
L 361.745442 45.179592 
L 365.127276 45.125735 
L 368.509081 45.078246 
L 371.890916 45.036406 
L 375.272721 44.999492 
L 378.654555 44.966951 
L 382.03636 44.938256 
L 385.418195 44.91295 
L 388.8 44.890672 
" clip-path="url(#pe4200fe266)" style="fill: none; stroke: #0000ff; stroke-width: 1.5; stroke-linecap: square"/>
   </g>
   <g id="line2d_15">
    <path d="M 54 247.187259 
L 57.38182 247.155885 
L 60.76364 247.119919 
L 64.145459 247.07869 
L 67.527279 247.03143 
L 70.909084 246.977262 
L 74.290904 246.91518 
L 77.672724 246.844033 
L 81.054544 246.762506 
L 84.436364 246.669095 
L 87.818183 246.562081 
L 91.200003 246.439502 
L 94.581823 246.299116 
L 97.963643 246.138368 
L 101.345448 245.954346 
L 104.727268 245.743731 
L 108.109088 245.502749 
L 111.490907 245.227114 
L 114.872727 244.91196 
L 118.254547 244.551777 
L 121.636367 244.140334 
L 125.018187 243.670597 
L 128.400006 243.13465 
L 131.781812 242.523613 
L 135.163632 241.82754 
L 138.545451 241.035348 
L 141.927271 240.13474 
L 145.309091 239.112131 
L 148.690911 237.952616 
L 152.07273 236.639942 
L 155.45455 235.156526 
L 158.83637 233.483554 
L 162.218175 231.601102 
L 165.599995 229.488347 
L 168.981815 227.123933 
L 172.363635 224.486397 
L 175.745455 221.55472 
L 179.12726 218.309104 
L 182.509094 214.731715 
L 185.890899 210.807841 
L 189.272734 206.52678 
L 192.654539 201.883185 
L 196.036373 196.877974 
L 199.418179 191.519661 
L 202.800013 185.82485 
L 206.181818 179.819147 
L 209.563623 173.536997 
L 212.945458 167.021425 
L 216.327263 160.323391 
L 219.709097 153.499991 
L 223.090903 146.613115 
L 226.472737 139.72672 
L 229.854542 132.904948 
L 233.236377 126.209408 
L 236.618182 119.697356 
L 239.999987 113.419406 
L 243.381821 107.418516 
L 246.763627 101.729124 
L 250.145461 96.376452 
L 253.527266 91.377193 
L 256.909101 86.739527 
L 260.290906 82.464441 
L 263.67274 78.546323 
L 267.054545 74.974563 
L 270.436351 71.734249 
L 273.818185 68.807584 
L 277.19999 66.174705 
L 280.581825 63.814608 
L 283.96363 61.705821 
L 287.345464 59.826952 
L 290.72727 58.157252 
L 294.109104 56.676796 
L 297.490909 55.36678 
L 300.872714 54.209658 
L 304.254549 53.189162 
L 307.636354 52.290439 
L 311.018188 51.499935 
L 314.399994 50.805345 
L 317.781828 50.195626 
L 321.163633 49.660829 
L 324.545467 49.19211 
L 327.927273 48.781585 
L 331.309078 48.422165 
L 334.690912 48.107723 
L 338.072718 47.832706 
L 341.454552 47.592236 
L 344.836357 47.382095 
L 348.218191 47.198498 
L 351.599997 47.03808 
L 354.981831 46.89803 
L 358.363636 46.775704 
L 361.745442 46.668952 
L 365.127276 46.575729 
L 368.509081 46.494391 
L 371.890916 46.423411 
L 375.272721 46.361455 
L 378.654555 46.307417 
L 382.03636 46.260265 
L 385.418195 46.219122 
L 388.8 46.183241 
" clip-path="url(#pe4200fe266)" style="fill: none; stroke: #bf00bf; stroke-width: 1.5; stroke-linecap: square"/>
   </g>
   <g id="line2d_16">
    <path d="M 54 247.911973 
L 57.38182 247.890641 
L 60.76364 247.86629 
L 64.145459 247.838494 
L 67.527279 247.806766 
L 70.909084 247.770552 
L 74.290904 247.729219 
L 77.672724 247.682047 
L 81.054544 247.628214 
L 84.436364 247.566784 
L 87.818183 247.496691 
L 91.200003 247.416719 
L 94.581823 247.325487 
L 97.963643 247.221421 
L 101.345448 247.102733 
L 104.727268 246.967387 
L 108.109088 246.813077 
L 111.490907 246.637178 
L 114.872727 246.436717 
L 118.254547 246.208325 
L 121.636367 245.948188 
L 125.018187 245.651996 
L 128.400006 245.314883 
L 131.781812 244.931367 
L 135.163632 244.495276 
L 138.545451 243.999695 
L 141.927271 243.436869 
L 145.309091 242.798153 
L 148.690911 242.073922 
L 152.07273 241.253507 
L 155.45455 240.32514 
L 158.83637 239.275901 
L 162.218175 238.091692 
L 165.599995 236.757226 
L 168.981815 235.256081 
L 172.363635 233.570771 
L 175.745455 231.682898 
L 179.12726 229.573373 
L 182.509094 227.222676 
L 185.890899 224.611363 
L 189.272734 221.720441 
L 192.654539 218.532172 
L 196.036373 215.030626 
L 199.418179 211.202748 
L 202.800013 207.039053 
L 206.181818 202.534871 
L 209.563623 197.691065 
L 212.945458 192.515031 
L 216.327263 187.021528 
L 219.709097 181.232906 
L 223.090903 175.179583 
L 226.472737 168.899427 
L 229.854542 162.437556 
L 233.236377 155.844713 
L 236.618182 149.176305 
L 239.999987 142.490143 
L 243.381821 135.844699 
L 246.763627 129.297151 
L 250.145461 122.901141 
L 253.527266 116.705503 
L 256.909101 110.752437 
L 260.290906 105.07708 
L 263.67274 99.706541 
L 267.054545 94.660249 
L 270.436351 89.949897 
L 273.818185 85.580219 
L 277.19999 81.549857 
L 280.581825 77.852046 
L 283.96363 74.475839 
L 287.345464 71.406877 
L 290.72727 68.628457 
L 294.109104 66.122242 
L 297.490909 63.86903 
L 300.872714 61.849259 
L 304.254549 60.043534 
L 307.636354 58.433038 
L 311.018188 56.99965 
L 314.399994 55.726367 
L 317.781828 54.597136 
L 321.163633 53.597212 
L 324.545467 52.712908 
L 327.927273 51.931765 
L 331.309078 51.242486 
L 334.690912 50.634786 
L 338.072718 50.099496 
L 341.454552 49.628241 
L 344.836357 49.213667 
L 348.218191 48.849176 
L 351.599997 48.528798 
L 354.981831 48.247388 
L 358.363636 48.000261 
L 361.745442 47.783307 
L 365.127276 47.592921 
L 368.509081 47.425882 
L 371.890916 47.279331 
L 375.272721 47.150841 
L 378.654555 47.038128 
L 382.03636 46.939318 
L 385.418195 46.852717 
L 388.8 46.776786 
" clip-path="url(#pe4200fe266)" style="fill: none; stroke: #00bfbf; stroke-width: 1.5; stroke-linecap: square"/>
   </g>
   <g id="patch_3">
    <path d="M 54 256.32 
L 54 34.56 
" style="fill: none; stroke: #000000; stroke-width: 0.8; stroke-linejoin: miter; stroke-linecap: square"/>
   </g>
   <g id="patch_4">
    <path d="M 388.8 256.32 
L 388.8 34.56 
" style="fill: none; stroke: #000000; stroke-width: 0.8; stroke-linejoin: miter; stroke-linecap: square"/>
   </g>
   <g id="patch_5">
    <path d="M 54 256.32 
L 388.8 256.32 
" style="fill: none; stroke: #000000; stroke-width: 0.8; stroke-linejoin: miter; stroke-linecap: square"/>
   </g>
   <g id="patch_6">
    <path d="M 54 34.56 
L 388.8 34.56 
" style="fill: none; stroke: #000000; stroke-width: 0.8; stroke-linejoin: miter; stroke-linecap: square"/>
   </g>
   <g id="text_15">
    <!-- b0.0 n0.125 -->
    <g transform="translate(185.162813 28.56) scale(0.12 -0.12)">
     <defs>
      <path id="DejaVuSans-62" d="M 3116 1747 
Q 3116 2381 2855 2742 
Q 2594 3103 2138 3103 
Q 1681 3103 1420 2742 
Q 1159 2381 1159 1747 
Q 1159 1113 1420 752 
Q 1681 391 2138 391 
Q 2594 391 2855 752 
Q 3116 1113 3116 1747 
z
M 1159 2969 
Q 1341 3281 1617 3432 
Q 1894 3584 2278 3584 
Q 2916 3584 3314 3078 
Q 3713 2572 3713 1747 
Q 3713 922 3314 415 
Q 2916 -91 2278 -91 
Q 1894 -91 1617 61 
Q 1341 213 1159 525 
L 1159 0 
L 581 0 
L 581 4863 
L 1159 4863 
L 1159 2969 
z
" transform="scale(0.015625)"/>
      <path id="DejaVuSans-35" d="M 691 4666 
L 3169 4666 
L 3169 4134 
L 1269 4134 
L 1269 2991 
Q 1406 3038 1543 3061 
Q 1681 3084 1819 3084 
Q 2600 3084 3056 2656 
Q 3513 2228 3513 1497 
Q 3513 744 3044 326 
Q 2575 -91 1722 -91 
Q 1428 -91 1123 -41 
Q 819 9 494 109 
L 494 744 
Q 775 591 1075 516 
Q 1375 441 1709 441 
Q 2250 441 2565 725 
Q 2881 1009 2881 1497 
Q 2881 1984 2565 2268 
Q 2250 2553 1709 2553 
Q 1456 2553 1204 2497 
Q 953 2441 691 2322 
L 691 4666 
z
" transform="scale(0.015625)"/>
     </defs>
     <use xlink:href="#DejaVuSans-62"/>
     <use xlink:href="#DejaVuSans-30" x="63.476562"/>
     <use xlink:href="#DejaVuSans-2e" x="127.099609"/>
     <use xlink:href="#DejaVuSans-30" x="158.886719"/>
     <use xlink:href="#DejaVuSans-20" x="222.509766"/>
     <use xlink:href="#DejaVuSans-6e" x="254.296875"/>
     <use xlink:href="#DejaVuSans-30" x="317.675781"/>
     <use xlink:href="#DejaVuSans-2e" x="381.298828"/>
     <use xlink:href="#DejaVuSans-31" x="413.085938"/>
     <use xlink:href="#DejaVuSans-32" x="476.708984"/>
     <use xlink:href="#DejaVuSans-35" x="540.332031"/>
    </g>
   </g>
   <g id="legend_1">
    <g id="patch_7">
     <path d="M 61 101.2725 
L 99.3625 101.2725 
Q 101.3625 101.2725 101.3625 99.2725 
L 101.3625 41.56 
Q 101.3625 39.56 99.3625 39.56 
L 61 39.56 
Q 59 39.56 59 41.56 
L 59 99.2725 
Q 59 101.2725 61 101.2725 
z
" style="fill: #ffffff; opacity: 0.8; stroke: #cccccc; stroke-linejoin: miter"/>
    </g>
    <g id="PathCollection_5">
     <g>
      <use xlink:href="#m9c29770616" x="73" y="48.533438" style="fill: #ff0000; stroke: #ff0000"/>
     </g>
    </g>
    <g id="text_16">
     <!-- 1 -->
     <g transform="translate(91 51.158438) scale(0.1 -0.1)">
      <use xlink:href="#DejaVuSans-31"/>
     </g>
    </g>
    <g id="PathCollection_6">
     <g>
      <use xlink:href="#meaabd702d8" x="73" y="63.211563" style="fill: #0000ff; stroke: #0000ff"/>
     </g>
    </g>
    <g id="text_17">
     <!-- 2 -->
     <g transform="translate(91 65.836563) scale(0.1 -0.1)">
      <use xlink:href="#DejaVuSans-32"/>
     </g>
    </g>
    <g id="PathCollection_7">
     <g>
      <use xlink:href="#m47c3fe4a3d" x="73" y="77.889688" style="fill: #bf00bf; stroke: #bf00bf"/>
     </g>
    </g>
    <g id="text_18">
     <!-- 4 -->
     <g transform="translate(91 80.514688) scale(0.1 -0.1)">
      <use xlink:href="#DejaVuSans-34"/>
     </g>
    </g>
    <g id="PathCollection_8">
     <g>
      <use xlink:href="#m9a0dd877af" x="73" y="92.567813" style="fill: #00bfbf; stroke: #00bfbf"/>
     </g>
    </g>
    <g id="text_19">
     <!-- 8 -->
     <g transform="translate(91 95.192813) scale(0.1 -0.1)">
      <use xlink:href="#DejaVuSans-38"/>
     </g>
    </g>
   </g>
  </g>
 </g>
 <defs>
  <clipPath id="pe4200fe266">
   <rect x="54" y="34.56" width="334.8" height="221.76"/>
  </clipPath>
 </defs>
</svg>
