<?xml version="1.0" encoding="utf-8" standalone="no"?>
<!DOCTYPE svg PUBLIC "-//W3C//DTD SVG 1.1//EN"
  "http://www.w3.org/Graphics/SVG/1.1/DTD/svg11.dtd">
<svg xmlns:xlink="http://www.w3.org/1999/xlink" width="432pt" height="288pt" viewBox="0 0 432 288" xmlns="http://www.w3.org/2000/svg" version="1.1">
 <metadata>
  <rdf:RDF xmlns:dc="http://purl.org/dc/elements/1.1/" xmlns:cc="http://creativecommons.org/ns#" xmlns:rdf="http://www.w3.org/1999/02/22-rdf-syntax-ns#">
   <cc:Work>
    <dc:type rdf:resource="http://purl.org/dc/dcmitype/StillImage"/>
    <dc:date>2025-07-23T14:34:06.730472</dc:date>
    <dc:format>image/svg+xml</dc:format>
    <dc:creator>
     <cc:Agent>
      <dc:title>Matplotlib v3.8.0, https://matplotlib.org/</dc:title>
     </cc:Agent>
    </dc:creator>
   </cc:Work>
  </rdf:RDF>
 </metadata>
 <defs>
  <style type="text/css">*{stroke-linejoin: round; stroke-linecap: butt}</style>
 </defs>
 <g id="figure_1">
  <g id="patch_1">
   <path d="M 0 288 
L 432 288 
L 432 0 
L 0 0 
z
" style="fill: #ffffff"/>
  </g>
  <g id="axes_1">
   <g id="patch_2">
    <path d="M 54 256.32 
L 388.8 256.32 
L 388.8 34.56 
L 54 34.56 
z
" style="fill: #ffffff"/>
   </g>
   <g id="PathCollection_1">
    <defs>
     <path id="m9f8d54e30c" d="M 0 1.581139 
C 0.419323 1.581139 0.821528 1.41454 1.118034 1.118034 
C 1.41454 0.821528 1.581139 0.419323 1.581139 0 
C 1.581139 -0.419323 1.41454 -0.821528 1.118034 -1.118034 
C 0.821528 -1.41454 0.419323 -1.581139 0 -1.581139 
C -0.419323 -1.581139 -0.821528 -1.41454 -1.118034 -1.118034 
C -1.41454 -0.821528 -1.581139 -0.419323 -1.581139 0 
C -1.581139 0.419323 -1.41454 0.821528 -1.118034 1.118034 
C -0.821528 1.41454 -0.419323 1.581139 0 1.581139 
z
" style="stroke: #ff0000"/>
    </defs>
    <g clip-path="url(#p08524761d8)">
     <use xlink:href="#m9f8d54e30c" x="84.436364" y="246.24" style="fill: #ff0000; stroke: #ff0000"/>
     <use xlink:href="#m9f8d54e30c" x="114.872727" y="245.84625" style="fill: #ff0000; stroke: #ff0000"/>
     <use xlink:href="#m9f8d54e30c" x="145.309091" y="245.05875" style="fill: #ff0000; stroke: #ff0000"/>
     <use xlink:href="#m9f8d54e30c" x="175.745455" y="243.48375" style="fill: #ff0000; stroke: #ff0000"/>
     <use xlink:href="#m9f8d54e30c" x="206.181818" y="213.9525" style="fill: #ff0000; stroke: #ff0000"/>
     <use xlink:href="#m9f8d54e30c" x="236.618182" y="177.7275" style="fill: #ff0000; stroke: #ff0000"/>
     <use xlink:href="#m9f8d54e30c" x="267.054545" y="113.94" style="fill: #ff0000; stroke: #ff0000"/>
     <use xlink:href="#m9f8d54e30c" x="297.490909" y="73.38375" style="fill: #ff0000; stroke: #ff0000"/>
     <use xlink:href="#m9f8d54e30c" x="327.927273" y="59.99625" style="fill: #ff0000; stroke: #ff0000"/>
     <use xlink:href="#m9f8d54e30c" x="358.363636" y="48.97125" style="fill: #ff0000; stroke: #ff0000"/>
     <use xlink:href="#m9f8d54e30c" x="388.8" y="46.60875" style="fill: #ff0000; stroke: #ff0000"/>
    </g>
   </g>
   <g id="PathCollection_2">
    <defs>
     <path id="m97ca9c931f" d="M 0 1.581139 
C 0.419323 1.581139 0.821528 1.41454 1.118034 1.118034 
C 1.41454 0.821528 1.581139 0.419323 1.581139 0 
C 1.581139 -0.419323 1.41454 -0.821528 1.118034 -1.118034 
C 0.821528 -1.41454 0.419323 -1.581139 0 -1.581139 
C -0.419323 -1.581139 -0.821528 -1.41454 -1.118034 -1.118034 
C -1.41454 -0.821528 -1.581139 -0.419323 -1.581139 0 
C -1.581139 0.419323 -1.41454 0.821528 -1.118034 1.118034 
C -0.821528 1.41454 -0.419323 1.581139 0 1.581139 
z
" style="stroke: #0000ff"/>
    </defs>
    <g clip-path="url(#p08524761d8)">
     <use xlink:href="#m97ca9c931f" x="84.436364" y="245.84625" style="fill: #0000ff; stroke: #0000ff"/>
     <use xlink:href="#m97ca9c931f" x="114.872727" y="240.7275" style="fill: #0000ff; stroke: #0000ff"/>
     <use xlink:href="#m97ca9c931f" x="145.309091" y="223.4025" style="fill: #0000ff; stroke: #0000ff"/>
     <use xlink:href="#m97ca9c931f" x="175.745455" y="188.35875" style="fill: #0000ff; stroke: #0000ff"/>
     <use xlink:href="#m97ca9c931f" x="206.181818" y="131.265" style="fill: #0000ff; stroke: #0000ff"/>
     <use xlink:href="#m97ca9c931f" x="236.618182" y="84.015" style="fill: #0000ff; stroke: #0000ff"/>
     <use xlink:href="#m97ca9c931f" x="267.054545" y="59.6025" style="fill: #0000ff; stroke: #0000ff"/>
     <use xlink:href="#m97ca9c931f" x="297.490909" y="50.94" style="fill: #0000ff; stroke: #0000ff"/>
     <use xlink:href="#m97ca9c931f" x="327.927273" y="45.03375" style="fill: #0000ff; stroke: #0000ff"/>
     <use xlink:href="#m97ca9c931f" x="358.363636" y="45.4275" style="fill: #0000ff; stroke: #0000ff"/>
     <use xlink:href="#m97ca9c931f" x="388.8" y="44.64" style="fill: #0000ff; stroke: #0000ff"/>
    </g>
   </g>
   <g id="PathCollection_3">
    <defs>
     <path id="mf60d45e0c7" d="M 0 1.581139 
C 0.419323 1.581139 0.821528 1.41454 1.118034 1.118034 
C 1.41454 0.821528 1.581139 0.419323 1.581139 0 
C 1.581139 -0.419323 1.41454 -0.821528 1.118034 -1.118034 
C 0.821528 -1.41454 0.419323 -1.581139 0 -1.581139 
C -0.419323 -1.581139 -0.821528 -1.41454 -1.118034 -1.118034 
C -1.41454 -0.821528 -1.581139 -0.419323 -1.581139 0 
C -1.581139 0.419323 -1.41454 0.821528 -1.118034 1.118034 
C -0.821528 1.41454 -0.419323 1.581139 0 1.581139 
z
" style="stroke: #bf00bf"/>
    </defs>
    <g clip-path="url(#p08524761d8)">
     <use xlink:href="#mf60d45e0c7" x="84.436364" y="245.05875" style="fill: #bf00bf; stroke: #bf00bf"/>
     <use xlink:href="#mf60d45e0c7" x="114.872727" y="235.60875" style="fill: #bf00bf; stroke: #bf00bf"/>
     <use xlink:href="#mf60d45e0c7" x="145.309091" y="209.62125" style="fill: #bf00bf; stroke: #bf00bf"/>
     <use xlink:href="#mf60d45e0c7" x="175.745455" y="157.64625" style="fill: #bf00bf; stroke: #bf00bf"/>
     <use xlink:href="#mf60d45e0c7" x="206.181818" y="102.915" style="fill: #bf00bf; stroke: #bf00bf"/>
     <use xlink:href="#mf60d45e0c7" x="236.618182" y="68.265" style="fill: #bf00bf; stroke: #bf00bf"/>
     <use xlink:href="#mf60d45e0c7" x="267.054545" y="52.90875" style="fill: #bf00bf; stroke: #bf00bf"/>
     <use xlink:href="#mf60d45e0c7" x="297.490909" y="47.39625" style="fill: #bf00bf; stroke: #bf00bf"/>
     <use xlink:href="#mf60d45e0c7" x="327.927273" y="45.82125" style="fill: #bf00bf; stroke: #bf00bf"/>
     <use xlink:href="#mf60d45e0c7" x="358.363636" y="45.03375" style="fill: #bf00bf; stroke: #bf00bf"/>
     <use xlink:href="#mf60d45e0c7" x="388.8" y="44.64" style="fill: #bf00bf; stroke: #bf00bf"/>
    </g>
   </g>
   <g id="matplotlib.axis_1">
    <g id="xtick_1">
     <g id="line2d_1">
      <defs>
       <path id="mdb603ac231" d="M 0 0 
L 0 3.5 
" style="stroke: #000000; stroke-width: 0.8"/>
      </defs>
      <g>
       <use xlink:href="#mdb603ac231" x="54" y="256.32" style="stroke: #000000; stroke-width: 0.8"/>
      </g>
     </g>
     <g id="text_1">
      <!-- 4 -->
      <g transform="translate(50.81875 270.918437) scale(0.1 -0.1)">
       <defs>
        <path id="DejaVuSans-34" d="M 2419 4116 
L 825 1625 
L 2419 1625 
L 2419 4116 
z
M 2253 4666 
L 3047 4666 
L 3047 1625 
L 3713 1625 
L 3713 1100 
L 3047 1100 
L 3047 0 
L 2419 0 
L 2419 1100 
L 313 1100 
L 313 1709 
L 2253 4666 
z
" transform="scale(0.015625)"/>
       </defs>
       <use xlink:href="#DejaVuSans-34"/>
      </g>
     </g>
    </g>
    <g id="xtick_2">
     <g id="line2d_2">
      <g>
       <use xlink:href="#mdb603ac231" x="114.872727" y="256.32" style="stroke: #000000; stroke-width: 0.8"/>
      </g>
     </g>
     <g id="text_2">
      <!-- 6 -->
      <g transform="translate(111.691477 270.918437) scale(0.1 -0.1)">
       <defs>
        <path id="DejaVuSans-36" d="M 2113 2584 
Q 1688 2584 1439 2293 
Q 1191 2003 1191 1497 
Q 1191 994 1439 701 
Q 1688 409 2113 409 
Q 2538 409 2786 701 
Q 3034 994 3034 1497 
Q 3034 2003 2786 2293 
Q 2538 2584 2113 2584 
z
M 3366 4563 
L 3366 3988 
Q 3128 4100 2886 4159 
Q 2644 4219 2406 4219 
Q 1781 4219 1451 3797 
Q 1122 3375 1075 2522 
Q 1259 2794 1537 2939 
Q 1816 3084 2150 3084 
Q 2853 3084 3261 2657 
Q 3669 2231 3669 1497 
Q 3669 778 3244 343 
Q 2819 -91 2113 -91 
Q 1303 -91 875 529 
Q 447 1150 447 2328 
Q 447 3434 972 4092 
Q 1497 4750 2381 4750 
Q 2619 4750 2861 4703 
Q 3103 4656 3366 4563 
z
" transform="scale(0.015625)"/>
       </defs>
       <use xlink:href="#DejaVuSans-36"/>
      </g>
     </g>
    </g>
    <g id="xtick_3">
     <g id="line2d_3">
      <g>
       <use xlink:href="#mdb603ac231" x="175.745455" y="256.32" style="stroke: #000000; stroke-width: 0.8"/>
      </g>
     </g>
     <g id="text_3">
      <!-- 8 -->
      <g transform="translate(172.564205 270.918437) scale(0.1 -0.1)">
       <defs>
        <path id="DejaVuSans-38" d="M 2034 2216 
Q 1584 2216 1326 1975 
Q 1069 1734 1069 1313 
Q 1069 891 1326 650 
Q 1584 409 2034 409 
Q 2484 409 2743 651 
Q 3003 894 3003 1313 
Q 3003 1734 2745 1975 
Q 2488 2216 2034 2216 
z
M 1403 2484 
Q 997 2584 770 2862 
Q 544 3141 544 3541 
Q 544 4100 942 4425 
Q 1341 4750 2034 4750 
Q 2731 4750 3128 4425 
Q 3525 4100 3525 3541 
Q 3525 3141 3298 2862 
Q 3072 2584 2669 2484 
Q 3125 2378 3379 2068 
Q 3634 1759 3634 1313 
Q 3634 634 3220 271 
Q 2806 -91 2034 -91 
Q 1263 -91 848 271 
Q 434 634 434 1313 
Q 434 1759 690 2068 
Q 947 2378 1403 2484 
z
M 1172 3481 
Q 1172 3119 1398 2916 
Q 1625 2713 2034 2713 
Q 2441 2713 2670 2916 
Q 2900 3119 2900 3481 
Q 2900 3844 2670 4047 
Q 2441 4250 2034 4250 
Q 1625 4250 1398 4047 
Q 1172 3844 1172 3481 
z
" transform="scale(0.015625)"/>
       </defs>
       <use xlink:href="#DejaVuSans-38"/>
      </g>
     </g>
    </g>
    <g id="xtick_4">
     <g id="line2d_4">
      <g>
       <use xlink:href="#mdb603ac231" x="236.618182" y="256.32" style="stroke: #000000; stroke-width: 0.8"/>
      </g>
     </g>
     <g id="text_4">
      <!-- 10 -->
      <g transform="translate(230.255682 270.918437) scale(0.1 -0.1)">
       <defs>
        <path id="DejaVuSans-31" d="M 794 531 
L 1825 531 
L 1825 4091 
L 703 3866 
L 703 4441 
L 1819 4666 
L 2450 4666 
L 2450 531 
L 3481 531 
L 3481 0 
L 794 0 
L 794 531 
z
" transform="scale(0.015625)"/>
        <path id="DejaVuSans-30" d="M 2034 4250 
Q 1547 4250 1301 3770 
Q 1056 3291 1056 2328 
Q 1056 1369 1301 889 
Q 1547 409 2034 409 
Q 2525 409 2770 889 
Q 3016 1369 3016 2328 
Q 3016 3291 2770 3770 
Q 2525 4250 2034 4250 
z
M 2034 4750 
Q 2819 4750 3233 4129 
Q 3647 3509 3647 2328 
Q 3647 1150 3233 529 
Q 2819 -91 2034 -91 
Q 1250 -91 836 529 
Q 422 1150 422 2328 
Q 422 3509 836 4129 
Q 1250 4750 2034 4750 
z
" transform="scale(0.015625)"/>
       </defs>
       <use xlink:href="#DejaVuSans-31"/>
       <use xlink:href="#DejaVuSans-30" x="63.623047"/>
      </g>
     </g>
    </g>
    <g id="xtick_5">
     <g id="line2d_5">
      <g>
       <use xlink:href="#mdb603ac231" x="297.490909" y="256.32" style="stroke: #000000; stroke-width: 0.8"/>
      </g>
     </g>
     <g id="text_5">
      <!-- 12 -->
      <g transform="translate(291.128409 270.918437) scale(0.1 -0.1)">
       <defs>
        <path id="DejaVuSans-32" d="M 1228 531 
L 3431 531 
L 3431 0 
L 469 0 
L 469 531 
Q 828 903 1448 1529 
Q 2069 2156 2228 2338 
Q 2531 2678 2651 2914 
Q 2772 3150 2772 3378 
Q 2772 3750 2511 3984 
Q 2250 4219 1831 4219 
Q 1534 4219 1204 4116 
Q 875 4013 500 3803 
L 500 4441 
Q 881 4594 1212 4672 
Q 1544 4750 1819 4750 
Q 2544 4750 2975 4387 
Q 3406 4025 3406 3419 
Q 3406 3131 3298 2873 
Q 3191 2616 2906 2266 
Q 2828 2175 2409 1742 
Q 1991 1309 1228 531 
z
" transform="scale(0.015625)"/>
       </defs>
       <use xlink:href="#DejaVuSans-31"/>
       <use xlink:href="#DejaVuSans-32" x="63.623047"/>
      </g>
     </g>
    </g>
    <g id="xtick_6">
     <g id="line2d_6">
      <g>
       <use xlink:href="#mdb603ac231" x="358.363636" y="256.32" style="stroke: #000000; stroke-width: 0.8"/>
      </g>
     </g>
     <g id="text_6">
      <!-- 14 -->
      <g transform="translate(352.001136 270.918437) scale(0.1 -0.1)">
       <use xlink:href="#DejaVuSans-31"/>
       <use xlink:href="#DejaVuSans-34" x="63.623047"/>
      </g>
     </g>
    </g>
    <g id="text_7">
     <!-- Rotation Range -->
     <g transform="translate(183.055469 284.596563) scale(0.1 -0.1)">
      <defs>
       <path id="DejaVuSans-52" d="M 2841 2188 
Q 3044 2119 3236 1894 
Q 3428 1669 3622 1275 
L 4263 0 
L 3584 0 
L 2988 1197 
Q 2756 1666 2539 1819 
Q 2322 1972 1947 1972 
L 1259 1972 
L 1259 0 
L 628 0 
L 628 4666 
L 2053 4666 
Q 2853 4666 3247 4331 
Q 3641 3997 3641 3322 
Q 3641 2881 3436 2590 
Q 3231 2300 2841 2188 
z
M 1259 4147 
L 1259 2491 
L 2053 2491 
Q 2509 2491 2742 2702 
Q 2975 2913 2975 3322 
Q 2975 3731 2742 3939 
Q 2509 4147 2053 4147 
L 1259 4147 
z
" transform="scale(0.015625)"/>
       <path id="DejaVuSans-6f" d="M 1959 3097 
Q 1497 3097 1228 2736 
Q 959 2375 959 1747 
Q 959 1119 1226 758 
Q 1494 397 1959 397 
Q 2419 397 2687 759 
Q 2956 1122 2956 1747 
Q 2956 2369 2687 2733 
Q 2419 3097 1959 3097 
z
M 1959 3584 
Q 2709 3584 3137 3096 
Q 3566 2609 3566 1747 
Q 3566 888 3137 398 
Q 2709 -91 1959 -91 
Q 1206 -91 779 398 
Q 353 888 353 1747 
Q 353 2609 779 3096 
Q 1206 3584 1959 3584 
z
" transform="scale(0.015625)"/>
       <path id="DejaVuSans-74" d="M 1172 4494 
L 1172 3500 
L 2356 3500 
L 2356 3053 
L 1172 3053 
L 1172 1153 
Q 1172 725 1289 603 
Q 1406 481 1766 481 
L 2356 481 
L 2356 0 
L 1766 0 
Q 1100 0 847 248 
Q 594 497 594 1153 
L 594 3053 
L 172 3053 
L 172 3500 
L 594 3500 
L 594 4494 
L 1172 4494 
z
" transform="scale(0.015625)"/>
       <path id="DejaVuSans-61" d="M 2194 1759 
Q 1497 1759 1228 1600 
Q 959 1441 959 1056 
Q 959 750 1161 570 
Q 1363 391 1709 391 
Q 2188 391 2477 730 
Q 2766 1069 2766 1631 
L 2766 1759 
L 2194 1759 
z
M 3341 1997 
L 3341 0 
L 2766 0 
L 2766 531 
Q 2569 213 2275 61 
Q 1981 -91 1556 -91 
Q 1019 -91 701 211 
Q 384 513 384 1019 
Q 384 1609 779 1909 
Q 1175 2209 1959 2209 
L 2766 2209 
L 2766 2266 
Q 2766 2663 2505 2880 
Q 2244 3097 1772 3097 
Q 1472 3097 1187 3025 
Q 903 2953 641 2809 
L 641 3341 
Q 956 3463 1253 3523 
Q 1550 3584 1831 3584 
Q 2591 3584 2966 3190 
Q 3341 2797 3341 1997 
z
" transform="scale(0.015625)"/>
       <path id="DejaVuSans-69" d="M 603 3500 
L 1178 3500 
L 1178 0 
L 603 0 
L 603 3500 
z
M 603 4863 
L 1178 4863 
L 1178 4134 
L 603 4134 
L 603 4863 
z
" transform="scale(0.015625)"/>
       <path id="DejaVuSans-6e" d="M 3513 2113 
L 3513 0 
L 2938 0 
L 2938 2094 
Q 2938 2591 2744 2837 
Q 2550 3084 2163 3084 
Q 1697 3084 1428 2787 
Q 1159 2491 1159 1978 
L 1159 0 
L 581 0 
L 581 3500 
L 1159 3500 
L 1159 2956 
Q 1366 3272 1645 3428 
Q 1925 3584 2291 3584 
Q 2894 3584 3203 3211 
Q 3513 2838 3513 2113 
z
" transform="scale(0.015625)"/>
       <path id="DejaVuSans-20" transform="scale(0.015625)"/>
       <path id="DejaVuSans-67" d="M 2906 1791 
Q 2906 2416 2648 2759 
Q 2391 3103 1925 3103 
Q 1463 3103 1205 2759 
Q 947 2416 947 1791 
Q 947 1169 1205 825 
Q 1463 481 1925 481 
Q 2391 481 2648 825 
Q 2906 1169 2906 1791 
z
M 3481 434 
Q 3481 -459 3084 -895 
Q 2688 -1331 1869 -1331 
Q 1566 -1331 1297 -1286 
Q 1028 -1241 775 -1147 
L 775 -588 
Q 1028 -725 1275 -790 
Q 1522 -856 1778 -856 
Q 2344 -856 2625 -561 
Q 2906 -266 2906 331 
L 2906 616 
Q 2728 306 2450 153 
Q 2172 0 1784 0 
Q 1141 0 747 490 
Q 353 981 353 1791 
Q 353 2603 747 3093 
Q 1141 3584 1784 3584 
Q 2172 3584 2450 3431 
Q 2728 3278 2906 2969 
L 2906 3500 
L 3481 3500 
L 3481 434 
z
" transform="scale(0.015625)"/>
       <path id="DejaVuSans-65" d="M 3597 1894 
L 3597 1613 
L 953 1613 
Q 991 1019 1311 708 
Q 1631 397 2203 397 
Q 2534 397 2845 478 
Q 3156 559 3463 722 
L 3463 178 
Q 3153 47 2828 -22 
Q 2503 -91 2169 -91 
Q 1331 -91 842 396 
Q 353 884 353 1716 
Q 353 2575 817 3079 
Q 1281 3584 2069 3584 
Q 2775 3584 3186 3129 
Q 3597 2675 3597 1894 
z
M 3022 2063 
Q 3016 2534 2758 2815 
Q 2500 3097 2075 3097 
Q 1594 3097 1305 2825 
Q 1016 2553 972 2059 
L 3022 2063 
z
" transform="scale(0.015625)"/>
      </defs>
      <use xlink:href="#DejaVuSans-52"/>
      <use xlink:href="#DejaVuSans-6f" x="64.982422"/>
      <use xlink:href="#DejaVuSans-74" x="126.164062"/>
      <use xlink:href="#DejaVuSans-61" x="165.373047"/>
      <use xlink:href="#DejaVuSans-74" x="226.652344"/>
      <use xlink:href="#DejaVuSans-69" x="265.861328"/>
      <use xlink:href="#DejaVuSans-6f" x="293.644531"/>
      <use xlink:href="#DejaVuSans-6e" x="354.826172"/>
      <use xlink:href="#DejaVuSans-20" x="418.205078"/>
      <use xlink:href="#DejaVuSans-52" x="449.992188"/>
      <use xlink:href="#DejaVuSans-61" x="517.224609"/>
      <use xlink:href="#DejaVuSans-6e" x="578.503906"/>
      <use xlink:href="#DejaVuSans-67" x="641.882812"/>
      <use xlink:href="#DejaVuSans-65" x="705.359375"/>
     </g>
    </g>
   </g>
   <g id="matplotlib.axis_2">
    <g id="ytick_1">
     <g id="line2d_7">
      <defs>
       <path id="md8b710f92a" d="M 0 0 
L -3.5 0 
" style="stroke: #000000; stroke-width: 0.8"/>
      </defs>
      <g>
       <use xlink:href="#md8b710f92a" x="54" y="246.24" style="stroke: #000000; stroke-width: 0.8"/>
      </g>
     </g>
     <g id="text_8">
      <!-- 0.0 -->
      <g transform="translate(31.096875 250.039219) scale(0.1 -0.1)">
       <defs>
        <path id="DejaVuSans-2e" d="M 684 794 
L 1344 794 
L 1344 0 
L 684 0 
L 684 794 
z
" transform="scale(0.015625)"/>
       </defs>
       <use xlink:href="#DejaVuSans-30"/>
       <use xlink:href="#DejaVuSans-2e" x="63.623047"/>
       <use xlink:href="#DejaVuSans-30" x="95.410156"/>
      </g>
     </g>
    </g>
    <g id="ytick_2">
     <g id="line2d_8">
      <g>
       <use xlink:href="#md8b710f92a" x="54" y="205.92" style="stroke: #000000; stroke-width: 0.8"/>
      </g>
     </g>
     <g id="text_9">
      <!-- 0.2 -->
      <g transform="translate(31.096875 209.719219) scale(0.1 -0.1)">
       <use xlink:href="#DejaVuSans-30"/>
       <use xlink:href="#DejaVuSans-2e" x="63.623047"/>
       <use xlink:href="#DejaVuSans-32" x="95.410156"/>
      </g>
     </g>
    </g>
    <g id="ytick_3">
     <g id="line2d_9">
      <g>
       <use xlink:href="#md8b710f92a" x="54" y="165.6" style="stroke: #000000; stroke-width: 0.8"/>
      </g>
     </g>
     <g id="text_10">
      <!-- 0.4 -->
      <g transform="translate(31.096875 169.399219) scale(0.1 -0.1)">
       <use xlink:href="#DejaVuSans-30"/>
       <use xlink:href="#DejaVuSans-2e" x="63.623047"/>
       <use xlink:href="#DejaVuSans-34" x="95.410156"/>
      </g>
     </g>
    </g>
    <g id="ytick_4">
     <g id="line2d_10">
      <g>
       <use xlink:href="#md8b710f92a" x="54" y="125.28" style="stroke: #000000; stroke-width: 0.8"/>
      </g>
     </g>
     <g id="text_11">
      <!-- 0.6 -->
      <g transform="translate(31.096875 129.079219) scale(0.1 -0.1)">
       <use xlink:href="#DejaVuSans-30"/>
       <use xlink:href="#DejaVuSans-2e" x="63.623047"/>
       <use xlink:href="#DejaVuSans-36" x="95.410156"/>
      </g>
     </g>
    </g>
    <g id="ytick_5">
     <g id="line2d_11">
      <g>
       <use xlink:href="#md8b710f92a" x="54" y="84.96" style="stroke: #000000; stroke-width: 0.8"/>
      </g>
     </g>
     <g id="text_12">
      <!-- 0.8 -->
      <g transform="translate(31.096875 88.759219) scale(0.1 -0.1)">
       <use xlink:href="#DejaVuSans-30"/>
       <use xlink:href="#DejaVuSans-2e" x="63.623047"/>
       <use xlink:href="#DejaVuSans-38" x="95.410156"/>
      </g>
     </g>
    </g>
    <g id="ytick_6">
     <g id="line2d_12">
      <g>
       <use xlink:href="#md8b710f92a" x="54" y="44.64" style="stroke: #000000; stroke-width: 0.8"/>
      </g>
     </g>
     <g id="text_13">
      <!-- 1.0 -->
      <g transform="translate(31.096875 48.439219) scale(0.1 -0.1)">
       <use xlink:href="#DejaVuSans-31"/>
       <use xlink:href="#DejaVuSans-2e" x="63.623047"/>
       <use xlink:href="#DejaVuSans-30" x="95.410156"/>
      </g>
     </g>
    </g>
    <g id="text_14">
     <!-- Accuracy -->
     <g transform="translate(25.017187 168.268125) rotate(-90) scale(0.1 -0.1)">
      <defs>
       <path id="DejaVuSans-41" d="M 2188 4044 
L 1331 1722 
L 3047 1722 
L 2188 4044 
z
M 1831 4666 
L 2547 4666 
L 4325 0 
L 3669 0 
L 3244 1197 
L 1141 1197 
L 716 0 
L 50 0 
L 1831 4666 
z
" transform="scale(0.015625)"/>
       <path id="DejaVuSans-63" d="M 3122 3366 
L 3122 2828 
Q 2878 2963 2633 3030 
Q 2388 3097 2138 3097 
Q 1578 3097 1268 2742 
Q 959 2388 959 1747 
Q 959 1106 1268 751 
Q 1578 397 2138 397 
Q 2388 397 2633 464 
Q 2878 531 3122 666 
L 3122 134 
Q 2881 22 2623 -34 
Q 2366 -91 2075 -91 
Q 1284 -91 818 406 
Q 353 903 353 1747 
Q 353 2603 823 3093 
Q 1294 3584 2113 3584 
Q 2378 3584 2631 3529 
Q 2884 3475 3122 3366 
z
" transform="scale(0.015625)"/>
       <path id="DejaVuSans-75" d="M 544 1381 
L 544 3500 
L 1119 3500 
L 1119 1403 
Q 1119 906 1312 657 
Q 1506 409 1894 409 
Q 2359 409 2629 706 
Q 2900 1003 2900 1516 
L 2900 3500 
L 3475 3500 
L 3475 0 
L 2900 0 
L 2900 538 
Q 2691 219 2414 64 
Q 2138 -91 1772 -91 
Q 1169 -91 856 284 
Q 544 659 544 1381 
z
M 1991 3584 
L 1991 3584 
z
" transform="scale(0.015625)"/>
       <path id="DejaVuSans-72" d="M 2631 2963 
Q 2534 3019 2420 3045 
Q 2306 3072 2169 3072 
Q 1681 3072 1420 2755 
Q 1159 2438 1159 1844 
L 1159 0 
L 581 0 
L 581 3500 
L 1159 3500 
L 1159 2956 
Q 1341 3275 1631 3429 
Q 1922 3584 2338 3584 
Q 2397 3584 2469 3576 
Q 2541 3569 2628 3553 
L 2631 2963 
z
" transform="scale(0.015625)"/>
       <path id="DejaVuSans-79" d="M 2059 -325 
Q 1816 -950 1584 -1140 
Q 1353 -1331 966 -1331 
L 506 -1331 
L 506 -850 
L 844 -850 
Q 1081 -850 1212 -737 
Q 1344 -625 1503 -206 
L 1606 56 
L 191 3500 
L 800 3500 
L 1894 763 
L 2988 3500 
L 3597 3500 
L 2059 -325 
z
" transform="scale(0.015625)"/>
      </defs>
      <use xlink:href="#DejaVuSans-41"/>
      <use xlink:href="#DejaVuSans-63" x="66.658203"/>
      <use xlink:href="#DejaVuSans-63" x="121.638672"/>
      <use xlink:href="#DejaVuSans-75" x="176.619141"/>
      <use xlink:href="#DejaVuSans-72" x="239.998047"/>
      <use xlink:href="#DejaVuSans-61" x="281.111328"/>
      <use xlink:href="#DejaVuSans-63" x="342.390625"/>
      <use xlink:href="#DejaVuSans-79" x="397.371094"/>
     </g>
    </g>
   </g>
   <g id="line2d_13">
    <path d="M 54 247.747166 
L 57.38182 247.735958 
L 60.76364 247.72313 
L 64.145459 247.708446 
L 67.527279 247.691638 
L 70.909084 247.672401 
L 74.290904 247.650383 
L 77.672724 247.625183 
L 81.054544 247.596341 
L 84.436364 247.563335 
L 87.818183 247.525562 
L 91.200003 247.482338 
L 94.581823 247.432879 
L 97.963643 247.376288 
L 101.345448 247.311544 
L 104.727268 247.237476 
L 108.109088 247.152752 
L 111.490907 247.055849 
L 114.872727 246.945031 
L 118.254547 246.818319 
L 121.636367 246.673458 
L 125.018187 246.50788 
L 128.400006 246.318667 
L 131.781812 246.1025 
L 135.163632 245.85561 
L 138.545451 245.573725 
L 141.927271 245.252009 
L 145.309091 244.884991 
L 148.690911 244.466503 
L 152.07273 243.989595 
L 155.45455 243.446462 
L 158.83637 242.828363 
L 162.218175 242.125544 
L 165.599995 241.327141 
L 168.981815 240.421141 
L 172.363635 239.394299 
L 175.745455 238.232116 
L 179.12726 236.918826 
L 182.509094 235.437394 
L 185.890899 233.769666 
L 189.272734 231.896408 
L 192.654539 229.797651 
L 196.036373 227.452868 
L 199.418179 224.841558 
L 202.800013 221.943612 
L 206.181818 218.740192 
L 209.563623 215.214346 
L 212.945458 211.352029 
L 216.327263 207.14321 
L 219.709097 202.582695 
L 223.090903 197.671497 
L 226.472737 192.417488 
L 229.854542 186.836526 
L 233.236377 180.952614 
L 236.618182 174.798414 
L 239.999987 168.414642 
L 243.381821 161.849394 
L 246.763627 155.157104 
L 250.145461 148.396448 
L 253.527266 141.628743 
L 256.909101 134.915395 
L 260.290906 128.316021 
L 263.67274 121.886028 
L 267.054545 115.675225 
L 270.436351 109.726089 
L 273.818185 104.073083 
L 277.19999 98.742341 
L 280.581825 93.75142 
L 283.96363 89.110066 
L 287.345464 84.820717 
L 290.72727 80.879588 
L 294.109104 77.277547 
L 297.490909 74.001508 
L 300.872714 71.035033 
L 304.254549 68.35964 
L 307.636354 65.955492 
L 311.018188 63.802039 
L 314.399994 61.878819 
L 317.781828 60.165596 
L 321.163633 58.643035 
L 324.545467 57.292679 
L 327.927273 56.097238 
L 331.309078 55.040645 
L 334.690912 54.108109 
L 338.072718 53.286122 
L 341.454552 52.562356 
L 344.836357 51.925685 
L 348.218191 51.366158 
L 351.599997 50.874752 
L 354.981831 50.443511 
L 358.363636 50.065226 
L 361.745442 49.733624 
L 365.127276 49.443046 
L 368.509081 49.188529 
L 371.890916 48.96565 
L 375.272721 48.770542 
L 378.654555 48.599814 
L 382.03636 48.450452 
L 385.418195 48.319774 
L 388.8 48.205475 
" clip-path="url(#p08524761d8)" style="fill: none; stroke: #ff0000; stroke-width: 1.5; stroke-linecap: square"/>
   </g>
   <g id="line2d_14">
    <path d="M 54 247.987489 
L 57.38182 247.863288 
L 60.76364 247.722548 
L 64.145459 247.563094 
L 67.527279 247.382473 
L 70.909084 247.177923 
L 74.290904 246.94633 
L 77.672724 246.684195 
L 81.054544 246.387586 
L 84.436364 246.052095 
L 87.818183 245.67278 
L 91.200003 245.244121 
L 94.581823 244.759953 
L 97.963643 244.213419 
L 101.345448 243.596906 
L 104.727268 242.901979 
L 108.109088 242.119342 
L 111.490907 241.238779 
L 114.872727 240.249118 
L 118.254547 239.138209 
L 121.636367 237.892912 
L 125.018187 236.499125 
L 128.400006 234.94183 
L 131.781812 233.205213 
L 135.163632 231.27277 
L 138.545451 229.127571 
L 141.927271 226.752508 
L 145.309091 224.130679 
L 148.690911 221.245833 
L 152.07273 218.082904 
L 155.45455 214.62863 
L 158.83637 210.872285 
L 162.218175 206.806406 
L 165.599995 202.427544 
L 168.981815 197.7371 
L 172.363635 192.741982 
L 175.745455 187.455143 
L 179.12726 181.896037 
L 182.509094 176.09061 
L 185.890899 170.071395 
L 189.272734 163.87667 
L 192.654539 157.550042 
L 196.036373 151.138933 
L 199.418179 144.69356 
L 202.800013 138.265033 
L 206.181818 131.904183 
L 209.563623 125.659482 
L 212.945458 119.575895 
L 216.327263 113.693774 
L 219.709097 108.047533 
L 223.090903 102.665494 
L 226.472737 97.569274 
L 229.854542 92.774075 
L 233.236377 88.288704 
L 236.618182 84.116442 
L 239.999987 80.255365 
L 243.381821 76.699311 
L 246.763627 73.438592 
L 250.145461 70.460678 
L 253.527266 67.751111 
L 256.909101 65.293911 
L 260.290906 63.072398 
L 263.67274 61.069437 
L 267.054545 59.268014 
L 270.436351 57.65151 
L 273.818185 56.203787 
L 277.19999 54.909571 
L 280.581825 53.754433 
L 283.96363 52.724925 
L 287.345464 51.808502 
L 290.72727 50.993737 
L 294.109104 50.270043 
L 297.490909 49.627808 
L 300.872714 49.058356 
L 304.254549 48.553756 
L 307.636354 48.10693 
L 311.018188 47.711474 
L 314.399994 47.361643 
L 317.781828 47.052308 
L 321.163633 46.778889 
L 324.545467 46.537313 
L 327.927273 46.323928 
L 331.309078 46.135488 
L 334.690912 45.969135 
L 338.072718 45.822295 
L 341.454552 45.692664 
L 344.836357 45.578317 
L 348.218191 45.477428 
L 351.599997 45.388411 
L 354.981831 45.309921 
L 358.363636 45.240683 
L 361.745442 45.179592 
L 365.127276 45.125735 
L 368.509081 45.078246 
L 371.890916 45.036406 
L 375.272721 44.999492 
L 378.654555 44.966951 
L 382.03636 44.938256 
L 385.418195 44.91295 
L 388.8 44.890672 
" clip-path="url(#p08524761d8)" style="fill: none; stroke: #0000ff; stroke-width: 1.5; stroke-linecap: square"/>
   </g>
   <g id="line2d_15">
    <path d="M 54 249.18002 
L 57.38182 248.953503 
L 60.76364 248.696785 
L 64.145459 248.405931 
L 67.527279 248.076521 
L 70.909084 247.7036 
L 74.290904 247.281612 
L 77.672724 246.80435 
L 81.054544 246.264899 
L 84.436364 245.655559 
L 87.818183 244.967799 
L 91.200003 244.192187 
L 94.581823 243.318346 
L 97.963643 242.334899 
L 101.345448 241.229453 
L 104.727268 239.988572 
L 108.109088 238.597806 
L 111.490907 237.041743 
L 114.872727 235.30409 
L 118.254547 233.36784 
L 121.636367 231.215466 
L 125.018187 228.829223 
L 128.400006 226.191521 
L 131.781812 223.285392 
L 135.163632 220.095002 
L 138.545451 216.606392 
L 141.927271 212.808134 
L 145.309091 208.692174 
L 148.690911 204.254592 
L 152.07273 199.496514 
L 155.45455 194.424733 
L 158.83637 189.052427 
L 162.218175 183.399516 
L 165.599995 177.492762 
L 168.981815 171.36576 
L 172.363635 165.05825 
L 175.745455 158.615424 
L 179.12726 152.08661 
L 182.509094 145.523826 
L 185.890899 138.980327 
L 189.272734 132.50853 
L 192.654539 126.158783 
L 196.036373 119.977444 
L 199.418179 114.005993 
L 202.800013 108.279639 
L 206.181818 102.827245 
L 209.563623 97.670536 
L 212.945458 92.824483 
L 216.327263 88.297692 
L 219.709097 84.092697 
L 223.090903 80.206964 
L 226.472737 76.633497 
L 229.854542 73.361712 
L 233.236377 70.378222 
L 236.618182 67.667742 
L 239.999987 65.213522 
L 243.381821 62.998041 
L 246.763627 61.003636 
L 250.145461 59.212619 
L 253.527266 57.607843 
L 256.909101 56.172821 
L 260.290906 54.891871 
L 263.67274 53.750251 
L 267.054545 52.734249 
L 270.436351 51.831189 
L 273.818185 51.029413 
L 277.19999 50.318289 
L 280.581825 49.68807 
L 283.96363 49.130045 
L 287.345464 48.636248 
L 290.72727 48.199599 
L 294.109104 47.813636 
L 297.490909 47.472686 
L 300.872714 47.171629 
L 304.254549 46.905829 
L 307.636354 46.671319 
L 311.018188 46.464398 
L 314.399994 46.281943 
L 317.781828 46.121069 
L 321.163633 45.979228 
L 324.545467 45.854211 
L 327.927273 45.744021 
L 331.309078 45.646954 
L 334.690912 45.561422 
L 338.072718 45.486055 
L 341.454552 45.419701 
L 344.836357 45.36123 
L 348.218191 45.309728 
L 351.599997 45.264379 
L 354.981831 45.224437 
L 358.363636 45.189277 
L 361.745442 45.158323 
L 365.127276 45.13107 
L 368.509081 45.107061 
L 371.890916 45.085913 
L 375.272721 45.067287 
L 378.654555 45.050897 
L 382.03636 45.036502 
L 385.418195 45.023788 
L 388.8 45.012589 
" clip-path="url(#p08524761d8)" style="fill: none; stroke: #bf00bf; stroke-width: 1.5; stroke-linecap: square"/>
   </g>
   <g id="patch_3">
    <path d="M 54 256.32 
L 54 34.56 
" style="fill: none; stroke: #000000; stroke-width: 0.8; stroke-linejoin: miter; stroke-linecap: square"/>
   </g>
   <g id="patch_4">
    <path d="M 388.8 256.32 
L 388.8 34.56 
" style="fill: none; stroke: #000000; stroke-width: 0.8; stroke-linejoin: miter; stroke-linecap: square"/>
   </g>
   <g id="patch_5">
    <path d="M 54 256.32 
L 388.8 256.32 
" style="fill: none; stroke: #000000; stroke-width: 0.8; stroke-linejoin: miter; stroke-linecap: square"/>
   </g>
   <g id="patch_6">
    <path d="M 54 34.56 
L 388.8 34.56 
" style="fill: none; stroke: #000000; stroke-width: 0.8; stroke-linejoin: miter; stroke-linecap: square"/>
   </g>
   <g id="text_15">
    <!-- ob1 n0.125 -->
    <g transform="translate(187.215937 28.56) scale(0.12 -0.12)">
     <defs>
      <path id="DejaVuSans-62" d="M 3116 1747 
Q 3116 2381 2855 2742 
Q 2594 3103 2138 3103 
Q 1681 3103 1420 2742 
Q 1159 2381 1159 1747 
Q 1159 1113 1420 752 
Q 1681 391 2138 391 
Q 2594 391 2855 752 
Q 3116 1113 3116 1747 
z
M 1159 2969 
Q 1341 3281 1617 3432 
Q 1894 3584 2278 3584 
Q 2916 3584 3314 3078 
Q 3713 2572 3713 1747 
Q 3713 922 3314 415 
Q 2916 -91 2278 -91 
Q 1894 -91 1617 61 
Q 1341 213 1159 525 
L 1159 0 
L 581 0 
L 581 4863 
L 1159 4863 
L 1159 2969 
z
" transform="scale(0.015625)"/>
      <path id="DejaVuSans-35" d="M 691 4666 
L 3169 4666 
L 3169 4134 
L 1269 4134 
L 1269 2991 
Q 1406 3038 1543 3061 
Q 1681 3084 1819 3084 
Q 2600 3084 3056 2656 
Q 3513 2228 3513 1497 
Q 3513 744 3044 326 
Q 2575 -91 1722 -91 
Q 1428 -91 1123 -41 
Q 819 9 494 109 
L 494 744 
Q 775 591 1075 516 
Q 1375 441 1709 441 
Q 2250 441 2565 725 
Q 2881 1009 2881 1497 
Q 2881 1984 2565 2268 
Q 2250 2553 1709 2553 
Q 1456 2553 1204 2497 
Q 953 2441 691 2322 
L 691 4666 
z
" transform="scale(0.015625)"/>
     </defs>
     <use xlink:href="#DejaVuSans-6f"/>
     <use xlink:href="#DejaVuSans-62" x="61.181641"/>
     <use xlink:href="#DejaVuSans-31" x="124.658203"/>
     <use xlink:href="#DejaVuSans-20" x="188.28125"/>
     <use xlink:href="#DejaVuSans-6e" x="220.068359"/>
     <use xlink:href="#DejaVuSans-30" x="283.447266"/>
     <use xlink:href="#DejaVuSans-2e" x="347.070312"/>
     <use xlink:href="#DejaVuSans-31" x="378.857422"/>
     <use xlink:href="#DejaVuSans-32" x="442.480469"/>
     <use xlink:href="#DejaVuSans-35" x="506.103516"/>
    </g>
   </g>
   <g id="legend_1">
    <g id="patch_7">
     <path d="M 61 86.594375 
L 112.510937 86.594375 
Q 114.510937 86.594375 114.510937 84.594375 
L 114.510937 41.56 
Q 114.510937 39.56 112.510937 39.56 
L 61 39.56 
Q 59 39.56 59 41.56 
L 59 84.594375 
Q 59 86.594375 61 86.594375 
z
" style="fill: #ffffff; opacity: 0.8; stroke: #cccccc; stroke-linejoin: miter"/>
    </g>
    <g id="PathCollection_4">
     <g>
      <use xlink:href="#m9f8d54e30c" x="73" y="48.533438" style="fill: #ff0000; stroke: #ff0000"/>
     </g>
    </g>
    <g id="text_16">
     <!-- -1.0 -->
     <g transform="translate(91 51.158438) scale(0.1 -0.1)">
      <defs>
       <path id="DejaVuSans-2d" d="M 313 2009 
L 1997 2009 
L 1997 1497 
L 313 1497 
L 313 2009 
z
" transform="scale(0.015625)"/>
      </defs>
      <use xlink:href="#DejaVuSans-2d"/>
      <use xlink:href="#DejaVuSans-31" x="36.083984"/>
      <use xlink:href="#DejaVuSans-2e" x="99.707031"/>
      <use xlink:href="#DejaVuSans-30" x="131.494141"/>
     </g>
    </g>
    <g id="PathCollection_5">
     <g>
      <use xlink:href="#m97ca9c931f" x="73" y="63.211563" style="fill: #0000ff; stroke: #0000ff"/>
     </g>
    </g>
    <g id="text_17">
     <!-- 0.0 -->
     <g transform="translate(91 65.836563) scale(0.1 -0.1)">
      <use xlink:href="#DejaVuSans-30"/>
      <use xlink:href="#DejaVuSans-2e" x="63.623047"/>
      <use xlink:href="#DejaVuSans-30" x="95.410156"/>
     </g>
    </g>
    <g id="PathCollection_6">
     <g>
      <use xlink:href="#mf60d45e0c7" x="73" y="77.889688" style="fill: #bf00bf; stroke: #bf00bf"/>
     </g>
    </g>
    <g id="text_18">
     <!-- 1.0 -->
     <g transform="translate(91 80.514688) scale(0.1 -0.1)">
      <use xlink:href="#DejaVuSans-31"/>
      <use xlink:href="#DejaVuSans-2e" x="63.623047"/>
      <use xlink:href="#DejaVuSans-30" x="95.410156"/>
     </g>
    </g>
   </g>
  </g>
 </g>
 <defs>
  <clipPath id="p08524761d8">
   <rect x="54" y="34.56" width="334.8" height="221.76"/>
  </clipPath>
 </defs>
</svg>
