<?xml version="1.0" encoding="utf-8" standalone="no"?>
<!DOCTYPE svg PUBLIC "-//W3C//DTD SVG 1.1//EN"
  "http://www.w3.org/Graphics/SVG/1.1/DTD/svg11.dtd">
<svg xmlns:xlink="http://www.w3.org/1999/xlink" width="432pt" height="288pt" viewBox="0 0 432 288" xmlns="http://www.w3.org/2000/svg" version="1.1">
 <metadata>
  <rdf:RDF xmlns:dc="http://purl.org/dc/elements/1.1/" xmlns:cc="http://creativecommons.org/ns#" xmlns:rdf="http://www.w3.org/1999/02/22-rdf-syntax-ns#">
   <cc:Work>
    <dc:type rdf:resource="http://purl.org/dc/dcmitype/StillImage"/>
    <dc:date>2025-07-23T12:22:42.987357</dc:date>
    <dc:format>image/svg+xml</dc:format>
    <dc:creator>
     <cc:Agent>
      <dc:title>Matplotlib v3.8.0, https://matplotlib.org/</dc:title>
     </cc:Agent>
    </dc:creator>
   </cc:Work>
  </rdf:RDF>
 </metadata>
 <defs>
  <style type="text/css">*{stroke-linejoin: round; stroke-linecap: butt}</style>
 </defs>
 <g id="figure_1">
  <g id="patch_1">
   <path d="M 0 288 
L 432 288 
L 432 0 
L 0 0 
z
" style="fill: #ffffff"/>
  </g>
  <g id="axes_1">
   <g id="patch_2">
    <path d="M 54 256.32 
L 388.8 256.32 
L 388.8 34.56 
L 54 34.56 
z
" style="fill: #ffffff"/>
   </g>
   <g id="PathCollection_1">
    <defs>
     <path id="m3c952ce79a" d="M 0 1.118034 
C 0.296506 1.118034 0.580908 1.000231 0.790569 0.790569 
C 1.000231 0.580908 1.118034 0.296506 1.118034 0 
C 1.118034 -0.296506 1.000231 -0.580908 0.790569 -0.790569 
C 0.580908 -1.000231 0.296506 -1.118034 0 -1.118034 
C -0.296506 -1.118034 -0.580908 -1.000231 -0.790569 -0.790569 
C -1.000231 -0.580908 -1.118034 -0.296506 -1.118034 0 
C -1.118034 0.296506 -1.000231 0.580908 -0.790569 0.790569 
C -0.580908 1.000231 -0.296506 1.118034 0 1.118034 
z
" style="stroke: #00bfbf"/>
    </defs>
    <g clip-path="url(#p685b3abedb)">
     <use xlink:href="#m3c952ce79a" x="69.218182" y="252.195" style="fill: #00bfbf; stroke: #00bfbf"/>
     <use xlink:href="#m3c952ce79a" x="75.305455" y="248.895" style="fill: #00bfbf; stroke: #00bfbf"/>
     <use xlink:href="#m3c952ce79a" x="81.392727" y="249.72" style="fill: #00bfbf; stroke: #00bfbf"/>
     <use xlink:href="#m3c952ce79a" x="87.48" y="246.42" style="fill: #00bfbf; stroke: #00bfbf"/>
     <use xlink:href="#m3c952ce79a" x="93.567273" y="241.47" style="fill: #00bfbf; stroke: #00bfbf"/>
     <use xlink:href="#m3c952ce79a" x="99.654543" y="238.17" style="fill: #00bfbf; stroke: #00bfbf"/>
     <use xlink:href="#m3c952ce79a" x="105.741818" y="240.2325" style="fill: #00bfbf; stroke: #00bfbf"/>
     <use xlink:href="#m3c952ce79a" x="111.829091" y="238.5825" style="fill: #00bfbf; stroke: #00bfbf"/>
     <use xlink:href="#m3c952ce79a" x="117.916364" y="230.3325" style="fill: #00bfbf; stroke: #00bfbf"/>
     <use xlink:href="#m3c952ce79a" x="124.003636" y="232.8075" style="fill: #00bfbf; stroke: #00bfbf"/>
     <use xlink:href="#m3c952ce79a" x="130.090903" y="227.0325" style="fill: #00bfbf; stroke: #00bfbf"/>
     <use xlink:href="#m3c952ce79a" x="136.178182" y="221.67" style="fill: #00bfbf; stroke: #00bfbf"/>
     <use xlink:href="#m3c952ce79a" x="142.265455" y="218.37" style="fill: #00bfbf; stroke: #00bfbf"/>
     <use xlink:href="#m3c952ce79a" x="148.352727" y="212.595" style="fill: #00bfbf; stroke: #00bfbf"/>
     <use xlink:href="#m3c952ce79a" x="154.44" y="210.5325" style="fill: #00bfbf; stroke: #00bfbf"/>
     <use xlink:href="#m3c952ce79a" x="160.527267" y="198.57" style="fill: #00bfbf; stroke: #00bfbf"/>
     <use xlink:href="#m3c952ce79a" x="166.614545" y="192.3825" style="fill: #00bfbf; stroke: #00bfbf"/>
     <use xlink:href="#m3c952ce79a" x="172.701818" y="196.92" style="fill: #00bfbf; stroke: #00bfbf"/>
     <use xlink:href="#m3c952ce79a" x="178.789091" y="181.6575" style="fill: #00bfbf; stroke: #00bfbf"/>
     <use xlink:href="#m3c952ce79a" x="184.876364" y="170.9325" style="fill: #00bfbf; stroke: #00bfbf"/>
     <use xlink:href="#m3c952ce79a" x="190.963625" y="157.7325" style="fill: #00bfbf; stroke: #00bfbf"/>
     <use xlink:href="#m3c952ce79a" x="197.050909" y="156.495" style="fill: #00bfbf; stroke: #00bfbf"/>
     <use xlink:href="#m3c952ce79a" x="203.138182" y="148.6575" style="fill: #00bfbf; stroke: #00bfbf"/>
     <use xlink:href="#m3c952ce79a" x="209.225443" y="142.8825" style="fill: #00bfbf; stroke: #00bfbf"/>
     <use xlink:href="#m3c952ce79a" x="215.312727" y="130.92" style="fill: #00bfbf; stroke: #00bfbf"/>
     <use xlink:href="#m3c952ce79a" x="221.4" y="121.845" style="fill: #00bfbf; stroke: #00bfbf"/>
     <use xlink:href="#m3c952ce79a" x="227.487273" y="132.57" style="fill: #00bfbf; stroke: #00bfbf"/>
     <use xlink:href="#m3c952ce79a" x="233.574557" y="114.0075" style="fill: #00bfbf; stroke: #00bfbf"/>
     <use xlink:href="#m3c952ce79a" x="239.661818" y="112.77" style="fill: #00bfbf; stroke: #00bfbf"/>
     <use xlink:href="#m3c952ce79a" x="245.749091" y="97.5075" style="fill: #00bfbf; stroke: #00bfbf"/>
     <use xlink:href="#m3c952ce79a" x="251.836375" y="95.8575" style="fill: #00bfbf; stroke: #00bfbf"/>
     <use xlink:href="#m3c952ce79a" x="257.923636" y="78.5325" style="fill: #00bfbf; stroke: #00bfbf"/>
     <use xlink:href="#m3c952ce79a" x="264.010909" y="77.7075" style="fill: #00bfbf; stroke: #00bfbf"/>
     <use xlink:href="#m3c952ce79a" x="270.098182" y="77.295" style="fill: #00bfbf; stroke: #00bfbf"/>
     <use xlink:href="#m3c952ce79a" x="276.185455" y="75.645" style="fill: #00bfbf; stroke: #00bfbf"/>
     <use xlink:href="#m3c952ce79a" x="282.272727" y="70.2825" style="fill: #00bfbf; stroke: #00bfbf"/>
     <use xlink:href="#m3c952ce79a" x="288.36" y="66.9825" style="fill: #00bfbf; stroke: #00bfbf"/>
     <use xlink:href="#m3c952ce79a" x="294.447273" y="63.6825" style="fill: #00bfbf; stroke: #00bfbf"/>
     <use xlink:href="#m3c952ce79a" x="300.534545" y="62.445" style="fill: #00bfbf; stroke: #00bfbf"/>
     <use xlink:href="#m3c952ce79a" x="306.621818" y="63.6825" style="fill: #00bfbf; stroke: #00bfbf"/>
     <use xlink:href="#m3c952ce79a" x="312.709091" y="57.495" style="fill: #00bfbf; stroke: #00bfbf"/>
     <use xlink:href="#m3c952ce79a" x="318.796364" y="51.3075" style="fill: #00bfbf; stroke: #00bfbf"/>
     <use xlink:href="#m3c952ce79a" x="324.883636" y="51.72" style="fill: #00bfbf; stroke: #00bfbf"/>
     <use xlink:href="#m3c952ce79a" x="330.970909" y="51.3075" style="fill: #00bfbf; stroke: #00bfbf"/>
     <use xlink:href="#m3c952ce79a" x="337.058182" y="50.4825" style="fill: #00bfbf; stroke: #00bfbf"/>
     <use xlink:href="#m3c952ce79a" x="343.145455" y="47.595" style="fill: #00bfbf; stroke: #00bfbf"/>
     <use xlink:href="#m3c952ce79a" x="349.232727" y="48.8325" style="fill: #00bfbf; stroke: #00bfbf"/>
     <use xlink:href="#m3c952ce79a" x="355.32" y="47.1825" style="fill: #00bfbf; stroke: #00bfbf"/>
     <use xlink:href="#m3c952ce79a" x="361.407273" y="46.77" style="fill: #00bfbf; stroke: #00bfbf"/>
     <use xlink:href="#m3c952ce79a" x="367.494545" y="45.945" style="fill: #00bfbf; stroke: #00bfbf"/>
     <use xlink:href="#m3c952ce79a" x="373.581818" y="45.945" style="fill: #00bfbf; stroke: #00bfbf"/>
    </g>
   </g>
   <g id="PathCollection_2">
    <defs>
     <path id="ma99418dfb6" d="M 0 1.118034 
C 0.296506 1.118034 0.580908 1.000231 0.790569 0.790569 
C 1.000231 0.580908 1.118034 0.296506 1.118034 0 
C 1.118034 -0.296506 1.000231 -0.580908 0.790569 -0.790569 
C 0.580908 -1.000231 0.296506 -1.118034 0 -1.118034 
C -0.296506 -1.118034 -0.580908 -1.000231 -0.790569 -0.790569 
C -1.000231 -0.580908 -1.118034 -0.296506 -1.118034 0 
C -1.118034 0.296506 -1.000231 0.580908 -0.790569 0.790569 
C -0.580908 1.000231 -0.296506 1.118034 0 1.118034 
z
" style="stroke: #bf00bf"/>
    </defs>
    <g clip-path="url(#p685b3abedb)">
     <use xlink:href="#ma99418dfb6" x="69.218182" y="254.67" style="fill: #bf00bf; stroke: #bf00bf"/>
     <use xlink:href="#ma99418dfb6" x="75.305455" y="251.37" style="fill: #bf00bf; stroke: #bf00bf"/>
     <use xlink:href="#ma99418dfb6" x="81.392727" y="255.0825" style="fill: #bf00bf; stroke: #bf00bf"/>
     <use xlink:href="#ma99418dfb6" x="87.48" y="250.9575" style="fill: #bf00bf; stroke: #bf00bf"/>
     <use xlink:href="#ma99418dfb6" x="93.567273" y="248.07" style="fill: #bf00bf; stroke: #bf00bf"/>
     <use xlink:href="#ma99418dfb6" x="99.654543" y="248.4825" style="fill: #bf00bf; stroke: #bf00bf"/>
     <use xlink:href="#ma99418dfb6" x="105.741818" y="247.245" style="fill: #bf00bf; stroke: #bf00bf"/>
     <use xlink:href="#ma99418dfb6" x="111.829091" y="246.8325" style="fill: #bf00bf; stroke: #bf00bf"/>
     <use xlink:href="#ma99418dfb6" x="117.916364" y="242.295" style="fill: #bf00bf; stroke: #bf00bf"/>
     <use xlink:href="#ma99418dfb6" x="124.003636" y="243.12" style="fill: #bf00bf; stroke: #bf00bf"/>
     <use xlink:href="#ma99418dfb6" x="130.090903" y="234.045" style="fill: #bf00bf; stroke: #bf00bf"/>
     <use xlink:href="#ma99418dfb6" x="136.178182" y="241.0575" style="fill: #bf00bf; stroke: #bf00bf"/>
     <use xlink:href="#ma99418dfb6" x="142.265455" y="235.2825" style="fill: #bf00bf; stroke: #bf00bf"/>
     <use xlink:href="#ma99418dfb6" x="148.352727" y="229.92" style="fill: #bf00bf; stroke: #bf00bf"/>
     <use xlink:href="#ma99418dfb6" x="154.44" y="220.02" style="fill: #bf00bf; stroke: #bf00bf"/>
     <use xlink:href="#ma99418dfb6" x="160.527267" y="215.07" style="fill: #bf00bf; stroke: #bf00bf"/>
     <use xlink:href="#ma99418dfb6" x="166.614545" y="215.4825" style="fill: #bf00bf; stroke: #bf00bf"/>
     <use xlink:href="#ma99418dfb6" x="172.701818" y="204.345" style="fill: #bf00bf; stroke: #bf00bf"/>
     <use xlink:href="#ma99418dfb6" x="178.789091" y="205.995" style="fill: #bf00bf; stroke: #bf00bf"/>
     <use xlink:href="#ma99418dfb6" x="184.876364" y="196.5075" style="fill: #bf00bf; stroke: #bf00bf"/>
     <use xlink:href="#ma99418dfb6" x="190.963625" y="188.67" style="fill: #bf00bf; stroke: #bf00bf"/>
     <use xlink:href="#ma99418dfb6" x="197.050909" y="181.245" style="fill: #bf00bf; stroke: #bf00bf"/>
     <use xlink:href="#ma99418dfb6" x="203.138182" y="182.895" style="fill: #bf00bf; stroke: #bf00bf"/>
     <use xlink:href="#ma99418dfb6" x="209.225443" y="163.5075" style="fill: #bf00bf; stroke: #bf00bf"/>
     <use xlink:href="#ma99418dfb6" x="215.312727" y="161.8575" style="fill: #bf00bf; stroke: #bf00bf"/>
     <use xlink:href="#ma99418dfb6" x="221.4" y="154.4325" style="fill: #bf00bf; stroke: #bf00bf"/>
     <use xlink:href="#ma99418dfb6" x="227.487273" y="131.3325" style="fill: #bf00bf; stroke: #bf00bf"/>
     <use xlink:href="#ma99418dfb6" x="233.574557" y="130.92" style="fill: #bf00bf; stroke: #bf00bf"/>
     <use xlink:href="#ma99418dfb6" x="239.661818" y="123.9075" style="fill: #bf00bf; stroke: #bf00bf"/>
     <use xlink:href="#ma99418dfb6" x="245.749091" y="118.545" style="fill: #bf00bf; stroke: #bf00bf"/>
     <use xlink:href="#ma99418dfb6" x="251.836375" y="116.07" style="fill: #bf00bf; stroke: #bf00bf"/>
     <use xlink:href="#ma99418dfb6" x="257.923636" y="107.4075" style="fill: #bf00bf; stroke: #bf00bf"/>
     <use xlink:href="#ma99418dfb6" x="264.010909" y="96.6825" style="fill: #bf00bf; stroke: #bf00bf"/>
     <use xlink:href="#ma99418dfb6" x="270.098182" y="91.32" style="fill: #bf00bf; stroke: #bf00bf"/>
     <use xlink:href="#ma99418dfb6" x="276.185455" y="88.4325" style="fill: #bf00bf; stroke: #bf00bf"/>
     <use xlink:href="#ma99418dfb6" x="282.272727" y="87.195" style="fill: #bf00bf; stroke: #bf00bf"/>
     <use xlink:href="#ma99418dfb6" x="288.36" y="78.945" style="fill: #bf00bf; stroke: #bf00bf"/>
     <use xlink:href="#ma99418dfb6" x="294.447273" y="75.645" style="fill: #bf00bf; stroke: #bf00bf"/>
     <use xlink:href="#ma99418dfb6" x="300.534545" y="72.345" style="fill: #bf00bf; stroke: #bf00bf"/>
     <use xlink:href="#ma99418dfb6" x="306.621818" y="67.8075" style="fill: #bf00bf; stroke: #bf00bf"/>
     <use xlink:href="#ma99418dfb6" x="312.709091" y="59.97" style="fill: #bf00bf; stroke: #bf00bf"/>
     <use xlink:href="#ma99418dfb6" x="318.796364" y="59.5575" style="fill: #bf00bf; stroke: #bf00bf"/>
     <use xlink:href="#ma99418dfb6" x="324.883636" y="54.6075" style="fill: #bf00bf; stroke: #bf00bf"/>
     <use xlink:href="#ma99418dfb6" x="330.970909" y="53.37" style="fill: #bf00bf; stroke: #bf00bf"/>
     <use xlink:href="#ma99418dfb6" x="337.058182" y="52.1325" style="fill: #bf00bf; stroke: #bf00bf"/>
     <use xlink:href="#ma99418dfb6" x="343.145455" y="55.02" style="fill: #bf00bf; stroke: #bf00bf"/>
     <use xlink:href="#ma99418dfb6" x="349.232727" y="49.245" style="fill: #bf00bf; stroke: #bf00bf"/>
     <use xlink:href="#ma99418dfb6" x="355.32" y="50.4825" style="fill: #bf00bf; stroke: #bf00bf"/>
     <use xlink:href="#ma99418dfb6" x="361.407273" y="49.245" style="fill: #bf00bf; stroke: #bf00bf"/>
     <use xlink:href="#ma99418dfb6" x="367.494545" y="47.595" style="fill: #bf00bf; stroke: #bf00bf"/>
     <use xlink:href="#ma99418dfb6" x="373.581818" y="49.245" style="fill: #bf00bf; stroke: #bf00bf"/>
    </g>
   </g>
   <g id="matplotlib.axis_1">
    <g id="xtick_1">
     <g id="line2d_1">
      <defs>
       <path id="m1ee98b36a6" d="M 0 0 
L 0 3.5 
" style="stroke: #000000; stroke-width: 0.8"/>
      </defs>
      <g>
       <use xlink:href="#m1ee98b36a6" x="69.218182" y="256.32" style="stroke: #000000; stroke-width: 0.8"/>
      </g>
     </g>
     <g id="text_1">
      <!-- 0 -->
      <g transform="translate(66.036932 270.918437) scale(0.1 -0.1)">
       <defs>
        <path id="DejaVuSans-30" d="M 2034 4250 
Q 1547 4250 1301 3770 
Q 1056 3291 1056 2328 
Q 1056 1369 1301 889 
Q 1547 409 2034 409 
Q 2525 409 2770 889 
Q 3016 1369 3016 2328 
Q 3016 3291 2770 3770 
Q 2525 4250 2034 4250 
z
M 2034 4750 
Q 2819 4750 3233 4129 
Q 3647 3509 3647 2328 
Q 3647 1150 3233 529 
Q 2819 -91 2034 -91 
Q 1250 -91 836 529 
Q 422 1150 422 2328 
Q 422 3509 836 4129 
Q 1250 4750 2034 4750 
z
" transform="scale(0.015625)"/>
       </defs>
       <use xlink:href="#DejaVuSans-30"/>
      </g>
     </g>
    </g>
    <g id="xtick_2">
     <g id="line2d_2">
      <g>
       <use xlink:href="#m1ee98b36a6" x="130.090909" y="256.32" style="stroke: #000000; stroke-width: 0.8"/>
      </g>
     </g>
     <g id="text_2">
      <!-- 10 -->
      <g transform="translate(123.728409 270.918437) scale(0.1 -0.1)">
       <defs>
        <path id="DejaVuSans-31" d="M 794 531 
L 1825 531 
L 1825 4091 
L 703 3866 
L 703 4441 
L 1819 4666 
L 2450 4666 
L 2450 531 
L 3481 531 
L 3481 0 
L 794 0 
L 794 531 
z
" transform="scale(0.015625)"/>
       </defs>
       <use xlink:href="#DejaVuSans-31"/>
       <use xlink:href="#DejaVuSans-30" x="63.623047"/>
      </g>
     </g>
    </g>
    <g id="xtick_3">
     <g id="line2d_3">
      <g>
       <use xlink:href="#m1ee98b36a6" x="190.963636" y="256.32" style="stroke: #000000; stroke-width: 0.8"/>
      </g>
     </g>
     <g id="text_3">
      <!-- 20 -->
      <g transform="translate(184.601136 270.918437) scale(0.1 -0.1)">
       <defs>
        <path id="DejaVuSans-32" d="M 1228 531 
L 3431 531 
L 3431 0 
L 469 0 
L 469 531 
Q 828 903 1448 1529 
Q 2069 2156 2228 2338 
Q 2531 2678 2651 2914 
Q 2772 3150 2772 3378 
Q 2772 3750 2511 3984 
Q 2250 4219 1831 4219 
Q 1534 4219 1204 4116 
Q 875 4013 500 3803 
L 500 4441 
Q 881 4594 1212 4672 
Q 1544 4750 1819 4750 
Q 2544 4750 2975 4387 
Q 3406 4025 3406 3419 
Q 3406 3131 3298 2873 
Q 3191 2616 2906 2266 
Q 2828 2175 2409 1742 
Q 1991 1309 1228 531 
z
" transform="scale(0.015625)"/>
       </defs>
       <use xlink:href="#DejaVuSans-32"/>
       <use xlink:href="#DejaVuSans-30" x="63.623047"/>
      </g>
     </g>
    </g>
    <g id="xtick_4">
     <g id="line2d_4">
      <g>
       <use xlink:href="#m1ee98b36a6" x="251.836364" y="256.32" style="stroke: #000000; stroke-width: 0.8"/>
      </g>
     </g>
     <g id="text_4">
      <!-- 30 -->
      <g transform="translate(245.473864 270.918437) scale(0.1 -0.1)">
       <defs>
        <path id="DejaVuSans-33" d="M 2597 2516 
Q 3050 2419 3304 2112 
Q 3559 1806 3559 1356 
Q 3559 666 3084 287 
Q 2609 -91 1734 -91 
Q 1441 -91 1130 -33 
Q 819 25 488 141 
L 488 750 
Q 750 597 1062 519 
Q 1375 441 1716 441 
Q 2309 441 2620 675 
Q 2931 909 2931 1356 
Q 2931 1769 2642 2001 
Q 2353 2234 1838 2234 
L 1294 2234 
L 1294 2753 
L 1863 2753 
Q 2328 2753 2575 2939 
Q 2822 3125 2822 3475 
Q 2822 3834 2567 4026 
Q 2313 4219 1838 4219 
Q 1578 4219 1281 4162 
Q 984 4106 628 3988 
L 628 4550 
Q 988 4650 1302 4700 
Q 1616 4750 1894 4750 
Q 2613 4750 3031 4423 
Q 3450 4097 3450 3541 
Q 3450 3153 3228 2886 
Q 3006 2619 2597 2516 
z
" transform="scale(0.015625)"/>
       </defs>
       <use xlink:href="#DejaVuSans-33"/>
       <use xlink:href="#DejaVuSans-30" x="63.623047"/>
      </g>
     </g>
    </g>
    <g id="xtick_5">
     <g id="line2d_5">
      <g>
       <use xlink:href="#m1ee98b36a6" x="312.709091" y="256.32" style="stroke: #000000; stroke-width: 0.8"/>
      </g>
     </g>
     <g id="text_5">
      <!-- 40 -->
      <g transform="translate(306.346591 270.918437) scale(0.1 -0.1)">
       <defs>
        <path id="DejaVuSans-34" d="M 2419 4116 
L 825 1625 
L 2419 1625 
L 2419 4116 
z
M 2253 4666 
L 3047 4666 
L 3047 1625 
L 3713 1625 
L 3713 1100 
L 3047 1100 
L 3047 0 
L 2419 0 
L 2419 1100 
L 313 1100 
L 313 1709 
L 2253 4666 
z
" transform="scale(0.015625)"/>
       </defs>
       <use xlink:href="#DejaVuSans-34"/>
       <use xlink:href="#DejaVuSans-30" x="63.623047"/>
      </g>
     </g>
    </g>
    <g id="xtick_6">
     <g id="line2d_6">
      <g>
       <use xlink:href="#m1ee98b36a6" x="373.581818" y="256.32" style="stroke: #000000; stroke-width: 0.8"/>
      </g>
     </g>
     <g id="text_6">
      <!-- 50 -->
      <g transform="translate(367.219318 270.918437) scale(0.1 -0.1)">
       <defs>
        <path id="DejaVuSans-35" d="M 691 4666 
L 3169 4666 
L 3169 4134 
L 1269 4134 
L 1269 2991 
Q 1406 3038 1543 3061 
Q 1681 3084 1819 3084 
Q 2600 3084 3056 2656 
Q 3513 2228 3513 1497 
Q 3513 744 3044 326 
Q 2575 -91 1722 -91 
Q 1428 -91 1123 -41 
Q 819 9 494 109 
L 494 744 
Q 775 591 1075 516 
Q 1375 441 1709 441 
Q 2250 441 2565 725 
Q 2881 1009 2881 1497 
Q 2881 1984 2565 2268 
Q 2250 2553 1709 2553 
Q 1456 2553 1204 2497 
Q 953 2441 691 2322 
L 691 4666 
z
" transform="scale(0.015625)"/>
       </defs>
       <use xlink:href="#DejaVuSans-35"/>
       <use xlink:href="#DejaVuSans-30" x="63.623047"/>
      </g>
     </g>
    </g>
    <g id="text_7">
     <!-- Percent contrast -->
     <g transform="translate(180.38125 284.596563) scale(0.1 -0.1)">
      <defs>
       <path id="DejaVuSans-50" d="M 1259 4147 
L 1259 2394 
L 2053 2394 
Q 2494 2394 2734 2622 
Q 2975 2850 2975 3272 
Q 2975 3691 2734 3919 
Q 2494 4147 2053 4147 
L 1259 4147 
z
M 628 4666 
L 2053 4666 
Q 2838 4666 3239 4311 
Q 3641 3956 3641 3272 
Q 3641 2581 3239 2228 
Q 2838 1875 2053 1875 
L 1259 1875 
L 1259 0 
L 628 0 
L 628 4666 
z
" transform="scale(0.015625)"/>
       <path id="DejaVuSans-65" d="M 3597 1894 
L 3597 1613 
L 953 1613 
Q 991 1019 1311 708 
Q 1631 397 2203 397 
Q 2534 397 2845 478 
Q 3156 559 3463 722 
L 3463 178 
Q 3153 47 2828 -22 
Q 2503 -91 2169 -91 
Q 1331 -91 842 396 
Q 353 884 353 1716 
Q 353 2575 817 3079 
Q 1281 3584 2069 3584 
Q 2775 3584 3186 3129 
Q 3597 2675 3597 1894 
z
M 3022 2063 
Q 3016 2534 2758 2815 
Q 2500 3097 2075 3097 
Q 1594 3097 1305 2825 
Q 1016 2553 972 2059 
L 3022 2063 
z
" transform="scale(0.015625)"/>
       <path id="DejaVuSans-72" d="M 2631 2963 
Q 2534 3019 2420 3045 
Q 2306 3072 2169 3072 
Q 1681 3072 1420 2755 
Q 1159 2438 1159 1844 
L 1159 0 
L 581 0 
L 581 3500 
L 1159 3500 
L 1159 2956 
Q 1341 3275 1631 3429 
Q 1922 3584 2338 3584 
Q 2397 3584 2469 3576 
Q 2541 3569 2628 3553 
L 2631 2963 
z
" transform="scale(0.015625)"/>
       <path id="DejaVuSans-63" d="M 3122 3366 
L 3122 2828 
Q 2878 2963 2633 3030 
Q 2388 3097 2138 3097 
Q 1578 3097 1268 2742 
Q 959 2388 959 1747 
Q 959 1106 1268 751 
Q 1578 397 2138 397 
Q 2388 397 2633 464 
Q 2878 531 3122 666 
L 3122 134 
Q 2881 22 2623 -34 
Q 2366 -91 2075 -91 
Q 1284 -91 818 406 
Q 353 903 353 1747 
Q 353 2603 823 3093 
Q 1294 3584 2113 3584 
Q 2378 3584 2631 3529 
Q 2884 3475 3122 3366 
z
" transform="scale(0.015625)"/>
       <path id="DejaVuSans-6e" d="M 3513 2113 
L 3513 0 
L 2938 0 
L 2938 2094 
Q 2938 2591 2744 2837 
Q 2550 3084 2163 3084 
Q 1697 3084 1428 2787 
Q 1159 2491 1159 1978 
L 1159 0 
L 581 0 
L 581 3500 
L 1159 3500 
L 1159 2956 
Q 1366 3272 1645 3428 
Q 1925 3584 2291 3584 
Q 2894 3584 3203 3211 
Q 3513 2838 3513 2113 
z
" transform="scale(0.015625)"/>
       <path id="DejaVuSans-74" d="M 1172 4494 
L 1172 3500 
L 2356 3500 
L 2356 3053 
L 1172 3053 
L 1172 1153 
Q 1172 725 1289 603 
Q 1406 481 1766 481 
L 2356 481 
L 2356 0 
L 1766 0 
Q 1100 0 847 248 
Q 594 497 594 1153 
L 594 3053 
L 172 3053 
L 172 3500 
L 594 3500 
L 594 4494 
L 1172 4494 
z
" transform="scale(0.015625)"/>
       <path id="DejaVuSans-20" transform="scale(0.015625)"/>
       <path id="DejaVuSans-6f" d="M 1959 3097 
Q 1497 3097 1228 2736 
Q 959 2375 959 1747 
Q 959 1119 1226 758 
Q 1494 397 1959 397 
Q 2419 397 2687 759 
Q 2956 1122 2956 1747 
Q 2956 2369 2687 2733 
Q 2419 3097 1959 3097 
z
M 1959 3584 
Q 2709 3584 3137 3096 
Q 3566 2609 3566 1747 
Q 3566 888 3137 398 
Q 2709 -91 1959 -91 
Q 1206 -91 779 398 
Q 353 888 353 1747 
Q 353 2609 779 3096 
Q 1206 3584 1959 3584 
z
" transform="scale(0.015625)"/>
       <path id="DejaVuSans-61" d="M 2194 1759 
Q 1497 1759 1228 1600 
Q 959 1441 959 1056 
Q 959 750 1161 570 
Q 1363 391 1709 391 
Q 2188 391 2477 730 
Q 2766 1069 2766 1631 
L 2766 1759 
L 2194 1759 
z
M 3341 1997 
L 3341 0 
L 2766 0 
L 2766 531 
Q 2569 213 2275 61 
Q 1981 -91 1556 -91 
Q 1019 -91 701 211 
Q 384 513 384 1019 
Q 384 1609 779 1909 
Q 1175 2209 1959 2209 
L 2766 2209 
L 2766 2266 
Q 2766 2663 2505 2880 
Q 2244 3097 1772 3097 
Q 1472 3097 1187 3025 
Q 903 2953 641 2809 
L 641 3341 
Q 956 3463 1253 3523 
Q 1550 3584 1831 3584 
Q 2591 3584 2966 3190 
Q 3341 2797 3341 1997 
z
" transform="scale(0.015625)"/>
       <path id="DejaVuSans-73" d="M 2834 3397 
L 2834 2853 
Q 2591 2978 2328 3040 
Q 2066 3103 1784 3103 
Q 1356 3103 1142 2972 
Q 928 2841 928 2578 
Q 928 2378 1081 2264 
Q 1234 2150 1697 2047 
L 1894 2003 
Q 2506 1872 2764 1633 
Q 3022 1394 3022 966 
Q 3022 478 2636 193 
Q 2250 -91 1575 -91 
Q 1294 -91 989 -36 
Q 684 19 347 128 
L 347 722 
Q 666 556 975 473 
Q 1284 391 1588 391 
Q 1994 391 2212 530 
Q 2431 669 2431 922 
Q 2431 1156 2273 1281 
Q 2116 1406 1581 1522 
L 1381 1569 
Q 847 1681 609 1914 
Q 372 2147 372 2553 
Q 372 3047 722 3315 
Q 1072 3584 1716 3584 
Q 2034 3584 2315 3537 
Q 2597 3491 2834 3397 
z
" transform="scale(0.015625)"/>
      </defs>
      <use xlink:href="#DejaVuSans-50"/>
      <use xlink:href="#DejaVuSans-65" x="56.677734"/>
      <use xlink:href="#DejaVuSans-72" x="118.201172"/>
      <use xlink:href="#DejaVuSans-63" x="157.064453"/>
      <use xlink:href="#DejaVuSans-65" x="212.044922"/>
      <use xlink:href="#DejaVuSans-6e" x="273.568359"/>
      <use xlink:href="#DejaVuSans-74" x="336.947266"/>
      <use xlink:href="#DejaVuSans-20" x="376.15625"/>
      <use xlink:href="#DejaVuSans-63" x="407.943359"/>
      <use xlink:href="#DejaVuSans-6f" x="462.923828"/>
      <use xlink:href="#DejaVuSans-6e" x="524.105469"/>
      <use xlink:href="#DejaVuSans-74" x="587.484375"/>
      <use xlink:href="#DejaVuSans-72" x="626.693359"/>
      <use xlink:href="#DejaVuSans-61" x="667.806641"/>
      <use xlink:href="#DejaVuSans-73" x="729.085938"/>
      <use xlink:href="#DejaVuSans-74" x="781.185547"/>
     </g>
    </g>
   </g>
   <g id="matplotlib.axis_2">
    <g id="ytick_1">
     <g id="line2d_7">
      <defs>
       <path id="mf2c21e951a" d="M 0 0 
L -3.5 0 
" style="stroke: #000000; stroke-width: 0.8"/>
      </defs>
      <g>
       <use xlink:href="#mf2c21e951a" x="54" y="256.32" style="stroke: #000000; stroke-width: 0.8"/>
      </g>
     </g>
     <g id="text_8">
      <!-- 0 -->
      <g transform="translate(40.6375 260.119219) scale(0.1 -0.1)">
       <use xlink:href="#DejaVuSans-30"/>
      </g>
     </g>
    </g>
    <g id="ytick_2">
     <g id="line2d_8">
      <g>
       <use xlink:href="#mf2c21e951a" x="54" y="214.08" style="stroke: #000000; stroke-width: 0.8"/>
      </g>
     </g>
     <g id="text_9">
      <!-- 20 -->
      <g transform="translate(34.275 217.879219) scale(0.1 -0.1)">
       <use xlink:href="#DejaVuSans-32"/>
       <use xlink:href="#DejaVuSans-30" x="63.623047"/>
      </g>
     </g>
    </g>
    <g id="ytick_3">
     <g id="line2d_9">
      <g>
       <use xlink:href="#mf2c21e951a" x="54" y="171.84" style="stroke: #000000; stroke-width: 0.8"/>
      </g>
     </g>
     <g id="text_10">
      <!-- 40 -->
      <g transform="translate(34.275 175.639219) scale(0.1 -0.1)">
       <use xlink:href="#DejaVuSans-34"/>
       <use xlink:href="#DejaVuSans-30" x="63.623047"/>
      </g>
     </g>
    </g>
    <g id="ytick_4">
     <g id="line2d_10">
      <g>
       <use xlink:href="#mf2c21e951a" x="54" y="129.6" style="stroke: #000000; stroke-width: 0.8"/>
      </g>
     </g>
     <g id="text_11">
      <!-- 60 -->
      <g transform="translate(34.275 133.399219) scale(0.1 -0.1)">
       <defs>
        <path id="DejaVuSans-36" d="M 2113 2584 
Q 1688 2584 1439 2293 
Q 1191 2003 1191 1497 
Q 1191 994 1439 701 
Q 1688 409 2113 409 
Q 2538 409 2786 701 
Q 3034 994 3034 1497 
Q 3034 2003 2786 2293 
Q 2538 2584 2113 2584 
z
M 3366 4563 
L 3366 3988 
Q 3128 4100 2886 4159 
Q 2644 4219 2406 4219 
Q 1781 4219 1451 3797 
Q 1122 3375 1075 2522 
Q 1259 2794 1537 2939 
Q 1816 3084 2150 3084 
Q 2853 3084 3261 2657 
Q 3669 2231 3669 1497 
Q 3669 778 3244 343 
Q 2819 -91 2113 -91 
Q 1303 -91 875 529 
Q 447 1150 447 2328 
Q 447 3434 972 4092 
Q 1497 4750 2381 4750 
Q 2619 4750 2861 4703 
Q 3103 4656 3366 4563 
z
" transform="scale(0.015625)"/>
       </defs>
       <use xlink:href="#DejaVuSans-36"/>
       <use xlink:href="#DejaVuSans-30" x="63.623047"/>
      </g>
     </g>
    </g>
    <g id="ytick_5">
     <g id="line2d_11">
      <g>
       <use xlink:href="#mf2c21e951a" x="54" y="87.36" style="stroke: #000000; stroke-width: 0.8"/>
      </g>
     </g>
     <g id="text_12">
      <!-- 80 -->
      <g transform="translate(34.275 91.159219) scale(0.1 -0.1)">
       <defs>
        <path id="DejaVuSans-38" d="M 2034 2216 
Q 1584 2216 1326 1975 
Q 1069 1734 1069 1313 
Q 1069 891 1326 650 
Q 1584 409 2034 409 
Q 2484 409 2743 651 
Q 3003 894 3003 1313 
Q 3003 1734 2745 1975 
Q 2488 2216 2034 2216 
z
M 1403 2484 
Q 997 2584 770 2862 
Q 544 3141 544 3541 
Q 544 4100 942 4425 
Q 1341 4750 2034 4750 
Q 2731 4750 3128 4425 
Q 3525 4100 3525 3541 
Q 3525 3141 3298 2862 
Q 3072 2584 2669 2484 
Q 3125 2378 3379 2068 
Q 3634 1759 3634 1313 
Q 3634 634 3220 271 
Q 2806 -91 2034 -91 
Q 1263 -91 848 271 
Q 434 634 434 1313 
Q 434 1759 690 2068 
Q 947 2378 1403 2484 
z
M 1172 3481 
Q 1172 3119 1398 2916 
Q 1625 2713 2034 2713 
Q 2441 2713 2670 2916 
Q 2900 3119 2900 3481 
Q 2900 3844 2670 4047 
Q 2441 4250 2034 4250 
Q 1625 4250 1398 4047 
Q 1172 3844 1172 3481 
z
" transform="scale(0.015625)"/>
       </defs>
       <use xlink:href="#DejaVuSans-38"/>
       <use xlink:href="#DejaVuSans-30" x="63.623047"/>
      </g>
     </g>
    </g>
    <g id="ytick_6">
     <g id="line2d_12">
      <g>
       <use xlink:href="#mf2c21e951a" x="54" y="45.12" style="stroke: #000000; stroke-width: 0.8"/>
      </g>
     </g>
     <g id="text_13">
      <!-- 100 -->
      <g transform="translate(27.9125 48.919219) scale(0.1 -0.1)">
       <use xlink:href="#DejaVuSans-31"/>
       <use xlink:href="#DejaVuSans-30" x="63.623047"/>
       <use xlink:href="#DejaVuSans-30" x="127.246094"/>
      </g>
     </g>
    </g>
    <g id="text_14">
     <!-- Percent correct -->
     <g transform="translate(21.832812 183.342344) rotate(-90) scale(0.1 -0.1)">
      <use xlink:href="#DejaVuSans-50"/>
      <use xlink:href="#DejaVuSans-65" x="56.677734"/>
      <use xlink:href="#DejaVuSans-72" x="118.201172"/>
      <use xlink:href="#DejaVuSans-63" x="157.064453"/>
      <use xlink:href="#DejaVuSans-65" x="212.044922"/>
      <use xlink:href="#DejaVuSans-6e" x="273.568359"/>
      <use xlink:href="#DejaVuSans-74" x="336.947266"/>
      <use xlink:href="#DejaVuSans-20" x="376.15625"/>
      <use xlink:href="#DejaVuSans-63" x="407.943359"/>
      <use xlink:href="#DejaVuSans-6f" x="462.923828"/>
      <use xlink:href="#DejaVuSans-72" x="524.105469"/>
      <use xlink:href="#DejaVuSans-72" x="563.46875"/>
      <use xlink:href="#DejaVuSans-65" x="602.332031"/>
      <use xlink:href="#DejaVuSans-63" x="663.855469"/>
      <use xlink:href="#DejaVuSans-74" x="718.835938"/>
     </g>
    </g>
   </g>
   <g id="line2d_13">
    <path d="M 69.218182 250.573906 
L 75.305455 249.277958 
L 81.392727 247.800018 
L 87.48 246.117842 
L 93.567273 244.207497 
L 99.654543 242.043562 
L 105.741818 239.599427 
L 111.829091 236.847788 
L 117.916364 233.761306 
L 124.003636 230.313434 
L 130.090903 226.479502 
L 136.178182 222.238005 
L 142.265455 217.572026 
L 148.352727 212.470879 
L 154.44 206.931693 
L 160.527267 200.961001 
L 166.614545 194.576102 
L 172.701818 187.805958 
L 178.789091 180.691646 
L 184.876364 173.286006 
L 190.963625 165.652564 
L 197.050909 157.863719 
L 203.138182 149.998061 
L 209.225443 142.137446 
L 215.312727 134.363392 
L 221.4 126.753959 
L 227.487273 119.38057 
L 233.574557 112.305551 
L 239.661818 105.580334 
L 245.749091 99.244544 
L 251.836375 93.325668 
L 257.923636 87.839644 
L 264.010909 82.791788 
L 270.098182 78.178185 
L 276.185455 73.987314 
L 282.272727 70.201579 
L 288.36 66.79905 
L 294.447273 63.754752 
L 300.534545 61.042033 
L 306.621818 58.633436 
L 312.709091 56.501761 
L 318.796364 54.62052 
L 324.883636 52.964445 
L 330.970909 51.509818 
L 337.058182 50.234581 
L 343.145455 49.118527 
L 349.232727 48.143254 
L 355.32 47.292103 
L 361.407273 46.550118 
L 367.494545 45.903895 
L 373.581818 45.341622 
" clip-path="url(#p685b3abedb)" style="fill: none; stroke: #00bfbf; stroke-width: 1.5; stroke-linecap: square"/>
   </g>
   <g id="line2d_14">
    <path d="M 69.218182 254.438733 
L 75.305455 253.620935 
L 81.392727 252.680518 
L 87.48 251.600482 
L 93.567273 250.361922 
L 99.654543 248.943966 
L 105.741818 247.323762 
L 111.829091 245.47655 
L 117.916364 243.375817 
L 124.003636 240.99359 
L 130.090903 238.300902 
L 136.178182 235.268427 
L 142.265455 231.867367 
L 148.352727 228.07053 
L 154.44 223.853696 
L 160.527267 219.197195 
L 166.614545 214.08763 
L 172.701818 208.51975 
L 178.789091 202.49816 
L 184.876364 196.038942 
L 190.963625 189.170829 
L 197.050909 181.935688 
L 203.138182 174.388404 
L 209.225443 166.595739 
L 215.312727 158.634352 
L 221.4 150.58796 
L 227.487273 142.543944 
L 233.574557 134.589582 
L 239.661818 126.808342 
L 245.749091 119.27635 
L 251.836375 112.059775 
L 257.923636 105.212839 
L 264.010909 98.776743 
L 270.098182 92.779396 
L 276.185455 87.236314 
L 282.272727 82.151495 
L 288.36 77.519216 
L 294.447273 73.325687 
L 300.534545 69.550925 
L 306.621818 66.170536 
L 312.709091 63.157207 
L 318.796364 60.48208 
L 324.883636 58.115829 
L 330.970909 56.029529 
L 337.058182 54.195258 
L 343.145455 52.586653 
L 349.232727 51.178964 
L 355.32 49.949505 
L 361.407273 48.877521 
L 367.494545 47.944143 
L 373.581818 47.132533 
" clip-path="url(#p685b3abedb)" style="fill: none; stroke: #bf00bf; stroke-width: 1.5; stroke-linecap: square"/>
   </g>
   <g id="patch_3">
    <path d="M 54 256.32 
L 54 34.56 
" style="fill: none; stroke: #000000; stroke-width: 0.8; stroke-linejoin: miter; stroke-linecap: square"/>
   </g>
   <g id="patch_4">
    <path d="M 388.8 256.32 
L 388.8 34.56 
" style="fill: none; stroke: #000000; stroke-width: 0.8; stroke-linejoin: miter; stroke-linecap: square"/>
   </g>
   <g id="patch_5">
    <path d="M 54 256.32 
L 388.8 256.32 
" style="fill: none; stroke: #000000; stroke-width: 0.8; stroke-linejoin: miter; stroke-linecap: square"/>
   </g>
   <g id="patch_6">
    <path d="M 54 34.56 
L 388.8 34.56 
" style="fill: none; stroke: #000000; stroke-width: 0.8; stroke-linejoin: miter; stroke-linecap: square"/>
   </g>
   <g id="legend_1">
    <g id="patch_7">
     <path d="M 61 71.91625 
L 165.301562 71.91625 
Q 167.301562 71.91625 167.301562 69.91625 
L 167.301562 41.56 
Q 167.301562 39.56 165.301562 39.56 
L 61 39.56 
Q 59 39.56 59 41.56 
L 59 69.91625 
Q 59 71.91625 61 71.91625 
z
" style="fill: #ffffff; opacity: 0.8; stroke: #cccccc; stroke-linejoin: miter"/>
    </g>
    <g id="PathCollection_3">
     <g>
      <use xlink:href="#m3c952ce79a" x="73" y="48.533437" style="fill: #00bfbf; stroke: #00bfbf"/>
     </g>
    </g>
    <g id="text_15">
     <!-- test-cued -->
     <g transform="translate(91 51.158437) scale(0.1 -0.1)">
      <defs>
       <path id="DejaVuSans-2d" d="M 313 2009 
L 1997 2009 
L 1997 1497 
L 313 1497 
L 313 2009 
z
" transform="scale(0.015625)"/>
       <path id="DejaVuSans-75" d="M 544 1381 
L 544 3500 
L 1119 3500 
L 1119 1403 
Q 1119 906 1312 657 
Q 1506 409 1894 409 
Q 2359 409 2629 706 
Q 2900 1003 2900 1516 
L 2900 3500 
L 3475 3500 
L 3475 0 
L 2900 0 
L 2900 538 
Q 2691 219 2414 64 
Q 2138 -91 1772 -91 
Q 1169 -91 856 284 
Q 544 659 544 1381 
z
M 1991 3584 
L 1991 3584 
z
" transform="scale(0.015625)"/>
       <path id="DejaVuSans-64" d="M 2906 2969 
L 2906 4863 
L 3481 4863 
L 3481 0 
L 2906 0 
L 2906 525 
Q 2725 213 2448 61 
Q 2172 -91 1784 -91 
Q 1150 -91 751 415 
Q 353 922 353 1747 
Q 353 2572 751 3078 
Q 1150 3584 1784 3584 
Q 2172 3584 2448 3432 
Q 2725 3281 2906 2969 
z
M 947 1747 
Q 947 1113 1208 752 
Q 1469 391 1925 391 
Q 2381 391 2643 752 
Q 2906 1113 2906 1747 
Q 2906 2381 2643 2742 
Q 2381 3103 1925 3103 
Q 1469 3103 1208 2742 
Q 947 2381 947 1747 
z
" transform="scale(0.015625)"/>
      </defs>
      <use xlink:href="#DejaVuSans-74"/>
      <use xlink:href="#DejaVuSans-65" x="39.208984"/>
      <use xlink:href="#DejaVuSans-73" x="100.732422"/>
      <use xlink:href="#DejaVuSans-74" x="152.832031"/>
      <use xlink:href="#DejaVuSans-2d" x="192.041016"/>
      <use xlink:href="#DejaVuSans-63" x="228.125"/>
      <use xlink:href="#DejaVuSans-75" x="283.105469"/>
      <use xlink:href="#DejaVuSans-65" x="346.484375"/>
      <use xlink:href="#DejaVuSans-64" x="408.007812"/>
     </g>
    </g>
    <g id="PathCollection_4">
     <g>
      <use xlink:href="#ma99418dfb6" x="73" y="63.211562" style="fill: #bf00bf; stroke: #bf00bf"/>
     </g>
    </g>
    <g id="text_16">
     <!-- standard-cued -->
     <g transform="translate(91 65.836562) scale(0.1 -0.1)">
      <use xlink:href="#DejaVuSans-73"/>
      <use xlink:href="#DejaVuSans-74" x="52.099609"/>
      <use xlink:href="#DejaVuSans-61" x="91.308594"/>
      <use xlink:href="#DejaVuSans-6e" x="152.587891"/>
      <use xlink:href="#DejaVuSans-64" x="215.966797"/>
      <use xlink:href="#DejaVuSans-61" x="279.443359"/>
      <use xlink:href="#DejaVuSans-72" x="340.722656"/>
      <use xlink:href="#DejaVuSans-64" x="380.085938"/>
      <use xlink:href="#DejaVuSans-2d" x="443.5625"/>
      <use xlink:href="#DejaVuSans-63" x="479.646484"/>
      <use xlink:href="#DejaVuSans-75" x="534.626953"/>
      <use xlink:href="#DejaVuSans-65" x="598.005859"/>
      <use xlink:href="#DejaVuSans-64" x="659.529297"/>
     </g>
    </g>
   </g>
  </g>
 </g>
 <defs>
  <clipPath id="p685b3abedb">
   <rect x="54" y="34.56" width="334.8" height="221.76"/>
  </clipPath>
 </defs>
</svg>
